<svg id="Layer_1" data-name="Layer 1" xmlns="http://www.w3.org/2000/svg" viewBox="0 0 66.4 65.59"><title>algo.</title><path d="M51.3,20.1A32.8,32.8,0,1,0,84.5,52.9,33,33,0,0,0,51.3,20.1ZM65.09,72.75l-3-11.36-1.6-5.88-3.4,5.88L50.49,72.75H42.65l6.52-11.36,6.56-11.32L58,46.19l-2-7.48-.48-1.8-1.08,1.8L47.89,50.07,41.33,61.39,34.77,72.75H26.93l6.56-11.36L40,50.07l6.56-11.36L53,27.63l.16-.24H60l.32,1.2,2.48,9.28.24.84h7.12l-4.88,8.44.8,2.92,3,11.32,3,11.36Z" transform="translate(-18.1 -20.1)" style="fill:#010101"/></svg>