<svg id="Layer_1" data-name="Layer 1" xmlns="http://www.w3.org/2000/svg" viewBox="0 0 77.86 77.86"><title>closed</title><path d="M54.85,52.77c-1-.39-1.49-.62-1.49-1.13s.38-.78,1.17-.78a3.87,3.87,0,0,1,1.68.38l.4-1.46a4.79,4.79,0,0,0-2-.41c-1.89,0-3,1.05-3,2.42,0,1.17.87,1.91,2.2,2.38,1,.34,1.35.63,1.35,1.13s-.44.87-1.28.87a4.64,4.64,0,0,1-2-.5l-.37,1.5a5.24,5.24,0,0,0,2.27.49c2.21,0,3.25-1.15,3.25-2.49C56.94,54,56.27,53.29,54.85,52.77Z" transform="translate(-11.07 -11.07)" style="fill:#fff"/><polygon points="49.19 43.07 52.15 43.07 52.15 41.59 49.19 41.59 49.19 39.93 52.33 39.93 52.33 38.44 47.37 38.44 47.37 46.47 52.5 46.47 52.5 44.98 49.19 44.98 49.19 43.07" style="fill:#fff"/><path d="M46.45,49.37a3.89,3.89,0,0,0-3.91,4.21c0,2.29,1.39,4.09,3.78,4.09s3.94-1.6,3.94-4.23A3.75,3.75,0,0,0,46.45,49.37Zm0,6.86c-1.21,0-1.95-1.11-1.95-2.68s.71-2.73,1.94-2.73,1.94,1.24,1.94,2.68S47.64,56.23,46.41,56.23Z" transform="translate(-11.07 -11.07)" style="fill:#fff"/><path d="M70.82,50.3a5.18,5.18,0,0,0-3.29-.86,15.86,15.86,0,0,0-2.45.17V57.5a15.57,15.57,0,0,0,2.06.12,5.81,5.81,0,0,0,3.71-1,4.1,4.1,0,0,0,1.33-3.26A3.54,3.54,0,0,0,70.82,50.3Zm-3.29,5.9a4,4,0,0,1-.63,0V50.91a4.29,4.29,0,0,1,.82-.07,2.3,2.3,0,0,1,2.53,2.55A2.48,2.48,0,0,1,67.53,56.2Z" transform="translate(-11.07 -11.07)" style="fill:#fff"/><path d="M50,11.07A38.93,38.93,0,1,0,88.93,50,38.93,38.93,0,0,0,50,11.07ZM81.28,40.2V66.85a5.67,5.67,0,0,1-5.67,5.67H25.84a5.67,5.67,0,0,1-5.68-5.67V40.2a5.68,5.68,0,0,1,5.68-5.68H31l15-10.2s0,0,0-.06a3.07,3.07,0,0,1,6.14-.11L69.51,34.52h6.1A5.67,5.67,0,0,1,81.28,40.2Z" transform="translate(-11.07 -11.07)" style="fill:#fff"/><path d="M28.14,36.54a5.74,5.74,0,0,0-5.88,5.59V65.07a5.74,5.74,0,0,0,5.88,5.59H73.47a5.75,5.75,0,0,0,5.88-5.59V42.13a5.75,5.75,0,0,0-5.88-5.59Zm49.79,5.59V65.07a4.33,4.33,0,0,1-4.46,4.17H28.14a4.33,4.33,0,0,1-4.46-4.17V42.13A4.33,4.33,0,0,1,28.14,38H73.47A4.33,4.33,0,0,1,77.93,42.13Z" transform="translate(-11.07 -11.07)" style="fill:#fff"/><polygon points="27.75 38.44 25.93 38.44 25.93 46.47 30.95 46.47 30.95 44.95 27.75 44.95 27.75 38.44" style="fill:#fff"/><path d="M33.73,50.88a4,4,0,0,1,1.52.29l.37-1.44a4.63,4.63,0,0,0-2-.36,4.1,4.1,0,0,0-4.39,4.27c0,2.29,1.43,4,4.21,4a5.14,5.14,0,0,0,2.06-.35l-.28-1.42a4.29,4.29,0,0,1-1.51.27,2.64,2.64,0,0,1,0-5.28Z" transform="translate(-11.07 -11.07)" style="fill:#fff"/><path d="M51.27,26.39a3.06,3.06,0,0,1-4.29.12l-11.8,8H64.9Z" transform="translate(-11.07 -11.07)" style="fill:#fff"/></svg>