<svg id="Layer_1" data-name="Layer 1" xmlns="http://www.w3.org/2000/svg" viewBox="0 0 2775.55 2137.76"><title>cool_cat</title><g style="opacity:0.2"><ellipse cx="1617.4" cy="2021.75" rx="1139.59" ry="116.01" style="fill:#000072"/></g><path d="M2510.66,2078.59H1421c-303.48,0-462.68-154.07-526-350-66.45-205.63,102.21-519.68,102.21-519.68s407.18,15.06,722.46,38.37C1969,1265.69,2032,1291.65,2124,1376.39c145.09,133.64,142.38,333.42,142.38,333.42s171.16-1.14,328.17,42.2C2779.64,1803.09,2818.38,2078.59,2510.66,2078.59Z" transform="translate(-39.78 -40.37)" style="fill:#9e9e9e"/><path d="M2510.65,2078.61H1421c-303.51,0-462.72-154.09-526-350-55.57-172,53.33-419.81,90.43-496.33,7.27-15,11.8-23.37,11.8-23.37S1353,1222.05,1657,1242.82c21.18,1.41,42.12,2.92,62.66,4.43C1969,1265.69,2032,1291.66,2124,1376.41c145.07,133.65,142.38,333.38,142.38,333.38s77.93-.51,176.9,12.53c47.66,6.22,100.21,15.6,151.26,29.68C2779.63,1803.09,2818.37,2078.61,2510.65,2078.61Z" transform="translate(-39.78 -40.37)" style="fill:#8e8fb3"/><g style="opacity:0.15"><path d="M2137.17,2078.61H1421c-303.51,0-462.72-154.09-526-350-55.57-172,53.33-419.81,90.43-496.33,7.27-15,11.8-23.37,11.8-23.37S1353,1222.05,1657,1242.82c31.83,49.9,58.36,107,43.18,142.6-45.88,107.94-411.77,200.28-462.77,333.24C1194,1831.77,1285.87,1910.8,1386.31,1929c302.37,54.89,445.52-330.76,554.19-236.78C2003.34,1746.56,2082,1931.88,2137.17,2078.61Z" transform="translate(-39.78 -40.37)" style="fill:#000072"/></g><path d="M2042.18,2078.61H1421c-303.51,0-462.72-154.09-526-350-55.57-172,53.33-419.81,90.43-496.33,276,32.52,557.75,143.43,567.72,200.15,3.85,21.9-4.07,46.92-15.13,75.6-121.3,63.62-269.48,129.57-300.59,210.66C1194,1831.77,1285.87,1910.8,1386.31,1929c90.33,16.42,166.48-6.54,231.7-44.18,144.44,93.67,374.18,103.37,374.18,103.37Z" transform="translate(-39.78 -40.37)" style="fill:#686868"/><path d="M2510.65,2078.61h-90.1c38.06-56.58,83.43-171,22.73-356.29,47.66,6.22,100.21,15.6,151.26,29.68C2779.63,1803.09,2818.37,2078.61,2510.65,2078.61Z" transform="translate(-39.78 -40.37)" style="fill:#fff"/><g style="opacity:0.15"><path d="M2510.65,2078.61h-90.1c38.06-56.58,83.43-171,22.73-356.29,17.06,2.24,34.77,4.85,52.79,8,53.52,37.52,136.22,92.42,146.85,209.93,2.33,25.78,36,34.63,50.15,13,14.7-22.46,27.22-54.11,28.61-97.51C2768.24,1953,2718.44,2078.61,2510.65,2078.61Z" transform="translate(-39.78 -40.37)" style="fill:#000072"/></g><path d="M2612.51,2009.18a110.94,110.94,0,0,0,12.91,1.33c4.45.23,8.92.15,13.34,0a113.87,113.87,0,0,0,25.68-4.44,108.93,108.93,0,0,0,11.89-4.29c1.9-.86,3.71-1.88,5.56-2.79a35.61,35.61,0,0,0,5.33-3.07c7.09-4.07,13-9.77,18.55-15.39l.75-.75a18.37,18.37,0,1,1,26,25.93,20.2,20.2,0,0,1-2.06,1.78c-9.08,6.76-18.53,13-29,17.07a57.51,57.51,0,0,1-7.78,2.94c-2.64.82-5.24,1.73-7.89,2.44a135.86,135.86,0,0,1-16,3,139.45,139.45,0,0,1-31.74.39,155.72,155.72,0,0,1-15.43-2.41,122.55,122.55,0,0,1-15.41-4.21,9.13,9.13,0,0,1,4.42-17.66Z" transform="translate(-39.78 -40.37)" style="fill:#0c6cf2"/><path d="M2642.17,1867.66a229,229,0,0,1,24.5-.46,235.4,235.4,0,0,1,24.52,2.11,181.91,181.91,0,0,1,24.85,5.46,126,126,0,0,1,24.9,10.73l.13.07a18.4,18.4,0,1,1-18.19,32,20.12,20.12,0,0,1-3-2.12,91.34,91.34,0,0,0-15.86-11,152.68,152.68,0,0,0-19.25-8.45,208.43,208.43,0,0,0-21-6.1,214.17,214.17,0,0,0-21.62-3.94l-.46,0a9.17,9.17,0,0,1,.46-18.24Z" transform="translate(-39.78 -40.37)" style="fill:#0c6cf2"/><path d="M2042.18,2078.61H1421c-303.51,0-462.72-154.09-526-350-55.57-172,53.33-419.81,90.43-496.33,276,32.52,557.77,143.42,567.71,200.13,12.92,73.69-107,182.64-31.87,347.29,87.83,192.37,470.94,208.52,470.94,208.52Z" transform="translate(-39.78 -40.37)" style="fill:#fff"/><g style="opacity:0.15"><path d="M2042.18,2078.61H1421c-303.51,0-462.72-154.09-526-350-55.57-172,53.33-419.81,90.43-496.33,276,32.52,557.75,143.43,567.72,200.15,3.85,21.9-4.07,46.92-15.13,75.6-121.3,63.62-269.48,129.57-300.59,210.66C1194,1831.77,1285.87,1910.8,1386.31,1929c90.33,16.42,166.48-6.54,231.7-44.18,144.44,93.67,374.18,103.37,374.18,103.37Z" transform="translate(-39.78 -40.37)" style="fill:#000072"/></g><path d="M2510.66,2096.88H1421c-146.68,0-269.11-35.36-363.9-105.08-83.8-61.65-144.2-148.32-179.51-257.6-68.06-210.63,96.47-520.87,103.5-534l5.4-10,11.4.43c4.07.14,411.12,15.34,723.12,38.4,255,18.85,321,47,415.41,133.93,125,115.18,144.73,274.81,147.76,328.74,48.32,1,185.45,6.86,315.27,42.69,99.35,27.42,167.56,120,155.27,210.66C2749.86,1980.65,2718,2096.88,2510.66,2096.88ZM1008.12,1227.61c-27.44,54.71-152.52,319.65-95.75,495.34,49.72,153.89,178.33,337.34,508.59,337.34h1089.7c119.91,0,197.57-44.92,207.77-120.17,8.65-63.94-37.14-145.19-128.76-170.48-152.61-42.12-321.5-41.55-323.18-41.53l-18.66.11.25-18.66c0-1.9.62-193.43-136.48-319.71-88.51-81.52-147.43-106.17-393.32-124.35C1436.52,1244.67,1076.94,1230.27,1008.12,1227.61Z" transform="translate(-39.78 -40.37)" style="fill:#3a3a3a"/><path d="M2510.66,2096.88H1421c-146.68,0-269.11-35.36-363.9-105.08-83.8-61.65-144.2-148.32-179.51-257.6-68.06-210.63,96.47-520.87,103.5-534l5.4-10,11.4.43c4.07.14,411.12,15.34,723.12,38.4,255,18.85,321,47,415.41,133.93,125,115.18,144.73,274.81,147.76,328.74,48.32,1,185.45,6.86,315.27,42.69,99.35,27.42,167.56,120,155.27,210.66C2749.86,1980.65,2718,2096.88,2510.66,2096.88ZM1008.12,1227.61c-27.44,54.71-152.52,319.65-95.75,495.34,49.72,153.89,178.33,337.34,508.59,337.34h1089.7c119.91,0,197.57-44.92,207.77-120.17,8.65-63.94-37.14-145.19-128.76-170.48-152.61-42.12-321.5-41.55-323.18-41.53l-18.66.11.25-18.66c0-1.9.62-193.43-136.48-319.71-88.51-81.52-147.43-106.17-393.32-124.35C1436.52,1244.67,1076.94,1230.27,1008.12,1227.61Z" transform="translate(-39.78 -40.37)" style="fill:#0c6cf2"/><path d="M2794.65,867.14c-.37,2.79-.78,5.62-1.19,8.37-1.28,8-2.79,15.64-4.71,23-43.13,166-247.3,145.9-251.19-37.78C2534.82,730,2474.4,688.44,2417.69,696.4a108.27,108.27,0,0,0-25.85,7.09,123.07,123.07,0,0,0-49,37.18,113.37,113.37,0,0,0-22.5,48.35c-6.59,34.12-3.89,68.28,5.35,102.45,19.44,72,68.06,144,120.65,215.51,15,20.49,30.42,40.84,45.51,61.24a357.16,357.16,0,0,1,41.16,70.53c17.71,40.66,26.07,82,26.17,122.16a292.52,292.52,0,0,1-18.12,101.81c-56.89,154.68-242.4,260.19-471,179.7L2094.33,1442c45.14,30.33,90.69,41.35,131,39.79,4.72-.13,9.38-.5,13.95-1h.05c1.6-.19,3.2-.37,4.71-.64,60.24-8.14,105.74-44,115.85-81.18,32.06-117.37-131.45-318.24-183.49-431.12-96.92-210.29-16.74-406.92,155.55-474.74a355.06,355.06,0,0,1,75.32-20.27,388,388,0,0,1,44.46-4.34c11.11-.46,21.95-.46,32.47.09C2713.74,479.84,2812.94,716.53,2794.65,867.14Z" transform="translate(-39.78 -40.37)" style="fill:#8e8fb3"/><g style="opacity:0.15"><path d="M2541.08,1462.72c-56.89,154.68-242.4,260.19-471,179.7L2094.33,1442c45.14,30.33,90.69,41.35,131,39.79C2281.66,1562,2457.11,1598.72,2541.08,1462.72Z" transform="translate(-39.78 -40.37)" style="fill:#000072"/></g><g style="opacity:0.15"><path d="M2249.33,843.4c35.39,130.87,147.6,226.64,197,263.57-52.59-71.47-101.17-143.52-120.65-215.49-9.24-34.18-11.93-68.35-5.3-102.44a112.69,112.69,0,0,1,22.48-48.35c18.81-23.89,46.36-40.35,74.84-44.29,56.69-7.95,117.1,33.6,119.84,164.33,3.88,183.68,208.07,203.81,251.19,37.78,1.91-7.35,3.45-15.06,4.7-23-30.89,33.5-112,96.17-171.76,50.08-84.13-64.85-12.8-212-122.12-290.69C2416.29,575,2203.43,673.7,2249.33,843.4Z" transform="translate(-39.78 -40.37)" style="fill:#000072"/></g><path d="M2357.52,642.46c2.1,1.53,23.69-8.53,23.51-5.94-.66,11.33-1.54,34.13,10.82,67a1.18,1.18,0,0,1,.35-.11,51.56,51.56,0,0,1,4.91-1.88c1.43-.54,2.89-1,4.34-1.44,1.14-.35,2.33-.71,3.53-1s2.17-.58,3.29-.83a94,94,0,0,1,9.44-1.78c56.71-8,117.12,33.58,119.84,164.31,3.89,183.67,208.07,203.82,251.22,37.78,1.9-7.37,3.42-15,4.7-23-30.91,33.49-112,96.14-171.79,50.07-84.13-64.85-12.77-212-122.09-290.71-34.78-25-92.05-22.38-143.7,1.48C2355.69,639.31,2356.13,641.46,2357.52,642.46Z" transform="translate(-39.78 -40.37)" style="fill:#686868"/><path d="M2391.85,703.49a105.89,105.89,0,0,1,25.86-7.07c56.71-8,117.12,33.58,119.84,164.31,3.89,183.67,208.07,203.82,251.22,37.78,1.9-7.37,3.42-15,4.7-23,.38-2.76.79-5.58,1.16-8.39,18.32-150.6-80.88-387.3-310.39-398.56-10.53-.58-21.36-.58-32.48-.12a394.61,394.61,0,0,0-44.45,4.35c-12.84,11.74-42.64,53.76-45.89,92.66-.4,4.81,21.13-8.38,20.21-3.17-3.1,17.5-33.11,73.65-24.11,80.2,2.08,1.51,23.67-8.53,23.52-6C2380.39,647.85,2379.48,670.64,2391.85,703.49Z" transform="translate(-39.78 -40.37)" style="fill:#fff"/><g style="opacity:0.15"><path d="M2357.52,642.46c2.1,1.53,23.69-8.53,23.51-5.94-.66,11.33-1.54,34.13,10.82,67a1.18,1.18,0,0,1,.35-.11c1.64-.67,3.25-1.29,4.91-1.88,1.43-.54,2.89-1,4.34-1.44,1.14-.35,2.33-.71,3.53-1s2.22-.59,3.29-.83a94,94,0,0,1,9.44-1.78c56.71-8,117.12,33.58,119.84,164.31,3.89,183.67,208.07,203.82,251.22,37.78,1.9-7.37,3.42-15,4.7-23-30.91,33.49-112,96.14-171.79,50.07-84.13-64.85-12.77-212-122.09-290.71-34.78-25-92.05-22.38-143.7,1.48C2355.69,639.31,2356.13,641.46,2357.52,642.46Z" transform="translate(-39.78 -40.37)" style="fill:#000072"/></g><path d="M2224.48,1688.36c-52.11,0-106.26-9.6-160.44-28.68a18.29,18.29,0,1,1,12.16-34.51c162.55,57.27,323.43,18.57,409.83-98.57,76.58-103.84,73.21-237-8.79-347.44q-8.52-11.49-17.13-23c-89.57-120-182.18-244.07-157.68-370.59,12.36-63.86,75.35-113.38,137.77-108,26.27,2.24,112.27,22,115.66,182.81,1.89,89.64,52.79,127.33,95.81,132.36,45.21,5.3,99.74-23.2,119.37-98.83,20-76.94.42-204.1-75.63-298.28-42.43-52.54-119-114.08-242.91-108.88-110.6,4.64-203.87,56.14-255.9,141.28-56.75,92.87-58,213.93-3.56,332.15,14.45,31.35,38.46,70.84,63.88,112.65,68.27,112.28,145.64,239.52,120.69,330.9-9.55,35-43.35,67.12-88.2,83.84-65.36,24.35-140.19,13.28-205.27-30.38a18.29,18.29,0,1,1,20.38-30.38c55.18,37,117.92,46.68,172.12,26.47,33.49-12.48,59.27-35.71,65.68-59.19,20.8-76.18-55.42-201.53-116.66-302.25-26-42.73-50.52-83.09-65.85-116.35C2100.14,846,2102.16,712.39,2165.38,609,2223.88,513.21,2328,455.34,2451,450.18c139.23-5.86,225.18,63.37,272.9,122.45,75,92.91,109,228.8,82.58,330.47-25.17,96.93-98,133.1-159,126-62.17-7.28-125.9-62-128.13-167.93-1.86-87.9-32.58-142.9-82.19-147.13-43.83-3.75-89.92,33-98.74,78.51-21.42,110.65,66.27,228.14,151.08,341.76q8.63,11.54,17.19,23.07c90.56,122,94,275.46,8.85,391-44.94,60.94-108.83,104.43-184.75,125.76A392.3,392.3,0,0,1,2224.48,1688.36Z" transform="translate(-39.78 -40.37)" style="fill:#0c6cf2"/><path d="M2555.8,2054.37c-53.24,46.51-150.93,8.09-223.56-25-.74.41-1.47.87-2.2,1.28-77.84,45.23-215,71.81-311,35-215.47-82.6-138.08-389-90-439.07l28.63-265.5,8.46-78.71c341.84,102.08,323.27,437.84,323.27,437.84a162.3,162.3,0,0,1,19.66-3.25c35.45-4.16,113.57-5.49,191.82,45.23,36.46,23.65,61.75,50.45,78.26,78.21v0C2629.2,1924.43,2598.88,2016.77,2555.8,2054.37Z" transform="translate(-39.78 -40.37)" style="fill:#8e8fb3"/><g style="opacity:0.15"><path d="M2555.8,2054.37c-53.24,46.51-150.93,8.09-223.56-25-.74.41-1.47.87-2.2,1.28-77.84,45.23-215,71.81-311,35-215.47-82.6-138.08-389-90-439.07l28.63-265.5,16.19-20.21s55.34,77.66,34.21,250.22c-4.66,38.05-69.7,126.78-77.8,173.94-42.53,247.89,184.67,254.11,267.43,242.9,103.3-14,185.41-116.62,185.41-116.62s5.08,62.43,42.17,102.63c47.34,51.22,187.75-3.61,153.86-153.49C2629.2,1924.43,2598.88,2016.77,2555.8,2054.37Z" transform="translate(-39.78 -40.37)" style="fill:#000072"/></g><path d="M2555.8,2054.37c-53.24,46.51-150.93,8.09-223.56-25-.74.41-1.47.87-2.2,1.28,18.75-27.9,48-78.9,54-132.32,2.52,17.43,11.75,63.58,41.3,95.64,47.34,51.22,187.75-3.61,153.86-153.49,1.14,1.92,2.24,3.88,3.34,5.81,2.1,3.88,4.11,7.77,5.9,11.7.91,1.92,1.73,3.85,2.6,5.81a.12.12,0,0,0,0,.09c.78,1.92,1.55,3.89,2.29,5.81s1.46,3.89,2.15,5.86v.09c.68,1.92,1.28,3.89,1.87,5.81s1.14,3.79,1.65,5.71a3,3,0,0,0,.09.32c.5,1.88,1,3.8,1.42,5.72.36,1.56.68,3.11,1,4.67.51,2.33.92,4.66,1.28,7,.28,1.65.55,3.25.74,4.9C2611.69,1970.71,2587.13,2027,2555.8,2054.37Z" transform="translate(-39.78 -40.37)" style="fill:#e8e8e8"/><path d="M2555.8,2054.37c-53.24,46.51-150.93,8.09-223.56-25-.74.41-1.47.87-2.2,1.28,27.12-40.39,76.24-128.93,45-203.44-29.55-70.39-52.88-92-66-110.22,35.45-4.16,113.57-5.49,191.82,45.23C2647.82,1857.43,2613.1,2004.33,2555.8,2054.37Z" transform="translate(-39.78 -40.37)" style="fill:#fff"/><g style="opacity:0.15"><path d="M2555.8,2054.37c-53.24,46.51-150.93,8.09-223.56-25-.74.41-1.47.87-2.2,1.28,18.75-27.9,48-78.9,54-132.32,2.52,17.43,11.75,63.58,41.3,95.64,47.34,51.22,187.75-3.61,153.86-153.49,1.14,1.92,2.24,3.88,3.34,5.81,2.19,3.88,4.16,7.82,5.9,11.7.91,1.92,1.73,3.85,2.6,5.81a.12.12,0,0,0,0,.09c.78,1.92,1.55,3.89,2.29,5.81s1.46,3.89,2.15,5.86v.09c.68,1.92,1.28,3.89,1.87,5.81s1.14,3.79,1.65,5.71a3,3,0,0,0,.09.32c.5,1.88,1,3.8,1.42,5.72.36,1.56.68,3.11,1,4.67.51,2.33.92,4.66,1.28,7,.28,1.65.55,3.25.74,4.9C2611.69,1970.71,2587.13,2027,2555.8,2054.37Z" transform="translate(-39.78 -40.37)" style="fill:#000072"/></g><path d="M1935.66,1632.94c-4.34,5.65-8.13,12.93-11.5,20.29a233.36,233.36,0,0,0-8.8,23.16,421,421,0,0,0-12.64,48.59,480.26,480.26,0,0,0-9.41,99.67c.46,33.16,4.89,66,14.58,96.78s25.44,59,47.39,81.59,50.14,39.13,80.58,49.14c30.48,9.81,63.65,13.19,96.72,12.39a437,437,0,0,0,98.68-14.21c32.16-8.52,63.76-20.3,91.64-36.72l0,0a18.53,18.53,0,0,1,16.88-.89c30,13.65,60.15,26.36,90.74,35.13a254.85,254.85,0,0,0,45.71,9.09c15,1.41,29.79.73,42.76-3.07a67.35,67.35,0,0,0,17.87-8.12,62.72,62.72,0,0,0,7.69-5.91l3.76-3.55,3.6-3.86a132.12,132.12,0,0,0,12.8-17.47,159.12,159.12,0,0,0,19.84-108.1c-5-29.57-18.52-57.44-38.14-80.9s-44.84-43-72.13-58.34a272.28,272.28,0,0,0-88.24-30.53,281,281,0,0,0-46.79-3.63c-7.82,0-15.63.44-23.35,1.19-3.86.36-7.7.83-11.47,1.4l-5.59.92c-1.73.31-3.85.75-5,1l-.06,0a18.47,18.47,0,0,1-22.21-13.76,19,19,0,0,1-.48-5c.21-4.94.18-11.15,0-16.83s-.46-11.66-.88-17.51c-.84-11.7-2.15-23.41-3.87-35.06a485.09,485.09,0,0,0-15.45-68.89c-13.68-45-34.13-87.88-61.6-125.7a391.3,391.3,0,0,0-100.64-96.47c-39-26-82.54-45.2-127.86-58.83l-.07,0a18.29,18.29,0,0,1,10.53-35c48.26,14.5,95.23,35.11,137.67,63.43a428,428,0,0,1,110,105.48c30,41.37,52.23,88,67,136.53a521.43,521.43,0,0,1,16.62,74.14q2.78,18.79,4.18,37.83.68,9.51,1,19.11c.16,6.54.24,12.57-.06,19.85L2285,1702.49c3-.71,4.93-1.09,7.3-1.52l6.76-1.12c4.48-.68,8.93-1.22,13.38-1.64q13.34-1.29,26.63-1.36A316.8,316.8,0,0,1,2392,1701,308.41,308.41,0,0,1,2492,1735.59c7.73,4.32,15.36,8.87,22.65,13.86,3.64,2.52,7.31,5,10.91,7.54l10.57,8.1a267.48,267.48,0,0,1,38.45,37.49c23.2,27.68,39.95,61.83,46.07,98.2a195.59,195.59,0,0,1-24.62,133.09,167.94,167.94,0,0,1-16.76,22.85l-5,5.29-5.33,5a99.71,99.71,0,0,1-12.13,9.32,103.69,103.69,0,0,1-27.51,12.56c-19.14,5.58-38.36,6.07-56.47,4.41a290.69,290.69,0,0,1-52.38-10.33c-33.62-9.66-65.15-23.07-95.87-37l16.92-.92c-32,18.82-66.2,31.38-101.06,40.66a473.36,473.36,0,0,1-107,15.39c-36.23.84-73.17-2.7-108.89-14.16a260.14,260.14,0,0,1-51.18-23,226.49,226.49,0,0,1-44.73-34.71,223.22,223.22,0,0,1-34.65-44.87,257,257,0,0,1-22.64-51.35c-11.36-35.51-15.15-72.45-14.28-108.64a431,431,0,0,1,16.44-106.56,358,358,0,0,1,18.47-50.72,253.89,253.89,0,0,1,12.8-24.2c4.82-7.9,10.13-15.61,17.65-22.68a9.15,9.15,0,0,1,13.52,12.25Z" transform="translate(-39.78 -40.37)" style="fill:#0c6cf2"/><path d="M2001.8,1522.16c-9.71,43.85-29.52,79.59-51.71,107.82-44.78,57-99.13,83.2-99.13,83.2s-7.32,109.32-88.67,170.16c-44,32.91-173.51,50.73-222.48-51.44-24.8-51.75-29.65-158.69,16.19-243.39,29.34-54.22,79.45-99.31,158.42-115l-41.25-210C1922,1210.43,2037.27,1361.93,2001.8,1522.16Z" transform="translate(-39.78 -40.37)" style="fill:#8e8fb3"/><g style="opacity:0.15"><path d="M2008.06,1470.77a260.27,260.27,0,0,1-6.27,51.41c-9.7,43.81-29.5,79.58-51.68,107.8-44.78,57-99.16,83.19-99.16,83.19s-7.32,109.31-88.68,170.19c-44,32.88-173.48,50.72-222.47-51.46-7.09-14.81-12.53-34.12-15.64-56.16.87,2.1,1.79,4.12,2.7,6.08,49,102.18,178.46,84.34,222.51,51.41,81.32-60.83,52-150.56,59.27-177.82s67.19-36.87,128.52-75.51c30.28-19.08,61.15-65.13,70.85-109A.16.16,0,0,1,2008.06,1470.77Z" transform="translate(-39.78 -40.37)" style="fill:#000072"/></g><path d="M1905.19,1676.26a4.18,4.18,0,0,1-.5.46c-1.55,1.28-3.06,2.56-4.57,3.75-2,1.6-3.85,3.11-5.77,4.57-1.73,1.38-3.47,2.66-5.16,3.94s-3.34,2.47-5,3.61c-1.37,1-2.7,1.92-4,2.84-.23.18-.5.32-.73.5l-4.48,3a224,224,0,0,1-24.06,14.22s-7.32,109.31-88.68,170.19c-44,32.88-173.48,50.72-222.47-51.46-.45-.91-.86-1.87-1.28-2.83s-.87-1.92-1.28-2.93a147.78,147.78,0,0,1-5.12-14.13c-.46-1.46-.91-3-1.37-4.48-.78-2.79-1.56-5.72-2.24-8.74-.51-2.06-1-4.16-1.42-6.26a16.06,16.06,0,0,1-.41-2.11c-.46-2.1-.83-4.25-1.24-6.45v-.14c-.45-2.65-.91-5.35-1.28-8.09.87,2.1,1.79,4.12,2.7,6.08,49,102.18,178.46,84.34,222.51,51.41,81.32-60.83,52-150.56,59.27-177.82a24.8,24.8,0,0,1,5.9-10.34C1848.53,1677.73,1851.64,1700.69,1905.19,1676.26Z" transform="translate(-39.78 -40.37)" style="fill:#e8e8e8"/><path d="M1905.24,1676.25c-29.71,25.09-54.28,36.93-54.28,36.93s-7.32,109.32-88.67,170.16c-44,32.91-173.51,50.73-222.48-51.44-24.8-51.75-29.65-158.69,16.19-243.39,51.48-21.66,146.25-23.66,230.87,34.06C1849.58,1665.34,1839.9,1706.1,1905.24,1676.25Z" transform="translate(-39.78 -40.37)" style="fill:#fff"/><g style="opacity:0.15"><path d="M1905.19,1676.26a4.18,4.18,0,0,1-.5.46c-1.55,1.28-3.06,2.56-4.57,3.75-2,1.6-3.85,3.11-5.77,4.57-1.73,1.38-3.47,2.66-5.16,3.94s-3.34,2.47-5,3.61c-1.33,1-2.7,1.92-4,2.84-.23.18-.5.32-.73.5l-4.48,3a224,224,0,0,1-24.06,14.22s-7.32,109.31-88.68,170.19c-44,32.88-173.48,50.72-222.47-51.46-.45-.91-.86-1.87-1.28-2.83s-.87-1.92-1.28-2.93a147.78,147.78,0,0,1-5.12-14.13c-.46-1.46-.91-3-1.37-4.48-.78-2.79-1.56-5.72-2.24-8.74-.51-2.06-1-4.16-1.42-6.26a16.06,16.06,0,0,1-.41-2.11c-.46-2.1-.83-4.25-1.24-6.45v-.14c-.45-2.65-.91-5.35-1.28-8.09.87,2.1,1.79,4.12,2.7,6.08,49,102.18,178.46,84.34,222.51,51.41,81.32-60.83,52-150.56,59.27-177.82a24.8,24.8,0,0,1,5.9-10.34C1848.53,1677.73,1851.64,1700.69,1905.19,1676.26Z" transform="translate(-39.78 -40.37)" style="fill:#000072"/></g><path d="M1669.35,1245.63c32.15-6.85,65.16-11,98.55-11.08l12.53,0,12.56.7c8.37.26,16.73,1.55,25.1,2.42,16.67,2.6,33.39,5.7,49.62,11.15,32.56,10.18,63.57,27.36,89.23,51a216.44,216.44,0,0,1,56.36,86.75,247.39,247.39,0,0,1,12,101.74c-.25,4.26-.76,8.49-1.37,12.7s-1,8.47-1.91,12.62l-2.42,12.51-3.33,12.35-3.38,12.33c-1.33,4-2.94,8-4.4,12l-4.52,12c-1.7,3.9-3.64,7.69-5.45,11.54a308.33,308.33,0,0,1-58.45,82.52,376.61,376.61,0,0,1-37.87,33.23c-6.77,5-13.6,9.9-20.69,14.47-3.56,2.3-7.18,4.5-10.84,6.69s-7.21,4.17-11.76,6.44l10.3-15.25v.06c-.27,3.15-.52,5.5-.88,8.12s-.68,5.09-1.1,7.59c-.74,5-1.78,10-2.76,14.9-2.2,9.81-4.6,19.58-7.76,29.14a286.54,286.54,0,0,1-24.18,55.55c-2.67,4.35-5.09,8.84-8,13.07l-8.83,12.59c-6.49,8-12.89,16.09-20.45,23.22l-5.49,5.49c-1.86,1.8-4,3.37-5.92,5-4.11,3.33-7.74,6.61-12.27,9.94a131.9,131.9,0,0,1-29.24,15.27,203.9,203.9,0,0,1-60.94,12.76,190.18,190.18,0,0,1-62.27-6.37,147.16,147.16,0,0,1-79.6-52.94,170.24,170.24,0,0,1-16.89-27.39c-9.32-19.8-14.24-39.87-17.23-59.91a326.8,326.8,0,0,1-3.23-60.18c1.82-40,10.19-79.76,26.3-116.87a262,262,0,0,1,30.74-52.36,227.3,227.3,0,0,1,43.13-43,215.69,215.69,0,0,1,52.71-29.42,251.07,251.07,0,0,1,57.57-14.21,9.17,9.17,0,0,1,3.82,17.87l-.26.08c-17.59,5.39-34.62,11.68-50.52,19.92l-11.74,6.42-11.17,7.23a207,207,0,0,0-20.86,16.21c-26.37,23.22-46.39,52.87-59.68,85.57-13.53,32.63-20.47,68.31-21.47,103.94a297,297,0,0,0,2.77,53.08c2.47,17.37,7,34.39,13.67,48.95a133.24,133.24,0,0,0,12.63,21,109.08,109.08,0,0,0,59.41,40.16c16,4.63,33.1,6.21,50.17,5.35a165,165,0,0,0,49.86-10.12,96.78,96.78,0,0,0,21-10.85c3.09-2.28,6.5-5.35,9.76-8,1.62-1.39,3.35-2.65,4.89-4.14l4.52-4.58c6.28-5.84,11.59-12.68,17.07-19.33l7.47-10.66c2.46-3.57,4.51-7.45,6.8-11.16a250.08,250.08,0,0,0,21-48.38c2.79-8.41,4.9-17.06,6.85-25.71.85-4.33,1.78-8.69,2.42-13,.36-2.18.68-4.33.94-6.46s.52-4.43.66-6v0l0-.18a18.75,18.75,0,0,1,10.28-15.07c2.59-1.29,6.08-3.26,9.18-5.06s6.35-3.84,9.49-5.86c6.29-4.06,12.39-8.45,18.45-12.91a341.24,341.24,0,0,0,33.9-29.74,271.68,271.68,0,0,0,51.51-72.66c1.58-3.35,3.29-6.65,4.77-10l3.9-10.4c1.27-3.47,2.69-6.9,3.85-10.41l2.9-10.72,2.93-10.7,2.11-11c.81-3.63,1.1-7.33,1.65-11s1-7.35,1.19-11a210.68,210.68,0,0,0-10.11-86.67,179.7,179.7,0,0,0-46.71-72,199.72,199.72,0,0,0-75.44-42.9c-14-4.75-28.74-7.43-43.49-9.77-7.48-.74-14.88-1.93-22.44-2.15l-11.3-.64-11.36,0c-30.32.06-60.88,3.85-91,10.28a18.3,18.3,0,1,1-7.63-35.79Z" transform="translate(-39.78 -40.37)" style="fill:#0c6cf2"/><path d="M1873,1050.41c9.66,354.7-401.19,452.56-592.6,516.66l-247.78,31.65c-130.14-9-352.57-8.61-515.17-100.57-39.27-22.2-75.05-49.78-105.22-84.18a359.23,359.23,0,0,1-55.11-84.48,405.43,405.43,0,0,1-25.21-70.68q-3.75-14.54-6.66-29.93a558.55,558.55,0,0,1-9.25-98.15c-.32-30.67,9.61-137,28.21-242.34,6.32-35.87,13.64-71.63,21.92-104.23C296,591,245.73,342.85,302,247.94c36.61-61.71,162.32-20.52,361.6,110.43,121.08-72.88,296.51-98.65,323.5-102,27-3.55,203.24-22.71,338.72,17.4C1485.81,97,1597.13,25.48,1648.07,76c78.34,77.71,92.09,330.53,72.7,535.13,63.77,116,125.71,282.94,135.64,322.84C1866.76,975.6,1872.09,1014.34,1873,1050.41Z" transform="translate(-39.78 -40.37)" style="fill:#8e8fb3"/><g style="opacity:0.5"><path d="M1721.79,303c-12.38-79.21-34-144-67.34-177-50.94-50.53-162.26,20.93-322.23,197.76-135.48-40.11-311.75-20.95-338.71-17.4-27,3.34-202.43,29.11-323.5,102-199.29-131-325-172.14-361.6-110.42-24,40.35-28.62,108.47-20.69,188.24C272.29,385.25,273.2,296.53,302,247.94c36.61-61.71,162.32-20.52,361.6,110.43,121.08-72.88,296.51-98.65,323.5-102,27-3.55,203.24-22.71,338.72,17.4C1485.81,97,1597.13,25.48,1648.07,76,1688.18,115.79,1711.36,201.44,1721.79,303Z" transform="translate(-39.78 -40.37)" style="fill:#fff"/></g><path d="M1873,1050.41c9.66,354.7-401.19,452.56-592.6,516.66l-247.78,31.65c-130.14-9-352.57-8.61-515.17-100.57-39.27-22.2-75.05-49.78-105.22-84.18a359.23,359.23,0,0,1-55.11-84.48,405.43,405.43,0,0,1-25.21-70.68c336.65,221.78,540.67,77,613.16-134.57,28-81.66,101.48-98.55,133.79-102.68s107.69-6.24,155.28,65.76C1359.24,1276.49,1598.11,1365.26,1873,1050.41Z" transform="translate(-39.78 -40.37)" style="fill:#fff"/><g style="opacity:0.15"><path d="M1855,1182.18c-80.68,249.07-409.36,329.55-574.57,384.89l-247.78,31.65c-130.14-9-352.57-8.61-515.17-100.57-39.27-22.2-75.05-49.78-105.22-84.18a357.71,357.71,0,0,1-32.42-43.2,485.57,485.57,0,0,0,57,37.62c123.79,70,522.21,62.26,702.39,39.24S1754,1312.18,1855,1182.18Z" transform="translate(-39.78 -40.37)" style="fill:#000072"/></g><path d="M586.69,724c-10.92-13,33.21-147.66,151.74-124.71,42.69,8.27,51.65,47.72,21,60.31-29.22,12-43.69,7.17-88.48,29.67C645.59,702,597.62,737,586.69,724Z" transform="translate(-39.78 -40.37)" style="fill:#0c6cf2"/><path d="M1492.19,608.29c7.3-15.36-69.25-134.57-178.21-82.56-39.24,18.73-38,59.17-5.15,63.64,31.3,4.26,44.09-4,93.1,6.48C1429.66,601.8,1484.9,623.64,1492.19,608.29Z" transform="translate(-39.78 -40.37)" style="fill:#0c6cf2"/><path d="M497.68,532.07c-47.71,66-72,152.82-78.13,143.82a31.23,31.23,0,0,1-1.86-3.13c-13.91-25.66-44.86-130.46-56.8-225.82-1.89-15.39-3.21-29-3.93-41.09-2-32.58,0-53.88,4-67.85,4.94-17.08,20-24,34.64-20.35,38.83,9.85,152.65,65.7,192.49,105.68C595.17,430.44,545.43,466.11,497.68,532.07Z" transform="translate(-39.78 -40.37)" style="fill:#f27e80"/><path d="M497.68,532.07c-47.71,66-72,152.82-78.13,143.82a31.23,31.23,0,0,1-1.86-3.13c6-51.59,31.11-125,50.75-178.26,26.85-72.74-28.85-120.83-73.26-131.71-15.24-3.74-29.48,22.32-38.22,43.06-2-32.58,0-53.88,4-67.85,4.94-17.08,20-24,34.64-20.35,38.83,9.85,152.65,65.7,192.49,105.68C595.17,430.44,545.43,466.11,497.68,532.07Z" transform="translate(-39.78 -40.37)" style="fill:#ff5c64"/><path d="M420.59,697.31a22.1,22.1,0,0,1-18.21-9.72c-15.64-22.92-49.68-138.7-62.09-238.07h0c-6.72-53.74-6.49-92.08.68-117.21,7.78-27,32.88-41.55,59.69-34.78C442,308,559,364.75,602.8,408.65c4.66,4.67,13.71,17.7-2.44,37.8-4.66,5.79-11.44,12.77-20,21.61-17.68,18.21-41.91,43.16-65.8,76.19-26.24,36.27-45.37,79.92-58,108.8-14,32-18.74,42.75-33.92,44.17C421.92,697.28,421.25,697.31,420.59,697.31ZM381.52,444.37c8.81,70.5,27.25,141.24,40.84,183.09,13.29-30.12,32.35-71.4,58.5-107.56,25.66-35.47,52.15-62.75,69.67-80.79,3.75-3.87,7.74-8,11.11-11.56C516.85,391.36,422,345.8,390.47,337.82c-4.86-1.23-8.06.78-9.56,5.95-3.78,13.27-6.77,41.54.61,100.6Z" transform="translate(-39.78 -40.37)" style="fill:#0c6cf2"/><path d="M1532,400c62.75,51.85,108.09,129.82,111.77,119.57a29.81,29.81,0,0,0,1-3.5c7-28.34,10.63-137.55-1.78-232.85-2-15.37-4.19-28.89-6.53-40.76-6.28-32-13.55-52.14-20.9-64.67-9.08-15.29-25.43-18.22-38.64-11-35.11,19.3-131.25,102-159.75,150.68C1412.14,326.09,1469.24,348.11,1532,400Z" transform="translate(-39.78 -40.37)" style="fill:#f27e80"/><path d="M1532,400c62.75,51.85,108.09,129.82,111.77,119.57a29.81,29.81,0,0,0,1-3.5c-18.75-48.44-61.53-113.17-93.92-159.78-44.28-63.66-2.45-124.2,37.8-145.9,13.81-7.45,34.14,14.2,47.81,32.07-6.28-32-13.55-52.14-20.9-64.67-9.08-15.29-25.43-18.22-38.64-11-35.11,19.3-131.25,102-159.75,150.68C1412.14,326.09,1469.24,348.11,1532,400Z" transform="translate(-39.78 -40.37)" style="fill:#ff5c64"/><path d="M1641.85,541.3c-12.3,0-20.15-10-39.56-34.61s-49-62.2-83.5-90.71c-31.44-26-61.15-44-82.85-57.21-10.53-6.39-18.84-11.45-24.81-15.88-20.7-15.4-15.19-30.29-11.86-36C1430.59,253.43,1529.65,169,1567,148.56c24.26-13.3,52.21-5.48,66.48,18.61,13.29,22.57,23.15,59.62,30.16,113.32h0c12.95,99.3,9.11,219.91-.26,246a22,22,0,0,1-17.14,14.4A27.21,27.21,0,0,1,1641.85,541.3Zm-198-226.44c4.16,2.63,9.05,5.6,13.64,8.4,21.5,13.06,54,32.8,87.74,60.68,34.41,28.43,63.23,63.6,83.67,89.41,2.63-43.92,2.7-117-6.49-187.48-7.71-59-17.7-85.63-24.73-97.57-2.73-4.59-6.35-5.71-10.72-3.31C1558.43,200.65,1478.12,268.57,1443.87,314.86Z" transform="translate(-39.78 -40.37)" style="fill:#0c6cf2"/><path d="M1277.61,1558.64c51.15-21.62,103.21-39.2,154.22-58.77,51.05-19.39,101.59-39.49,149.9-63.74,12-6.17,24-12.28,35.69-19,11.88-6.39,23.18-13.63,34.65-20.61,22.39-14.69,44.54-29.86,64.58-47.33l7.66-6.38c2.48-2.21,4.85-4.52,7.28-6.78l14.49-13.61,13.55-14.45c2.22-2.43,4.61-4.74,6.7-7.28l6.24-7.65c17.21-20,31.17-42.32,43.52-65.31l8.48-17.66c.7-1.48,1.45-2.93,2.1-4.43l1.72-4.58,3.46-9.16,3.47-9.15c.57-1.53,1.2-3,1.71-4.59l1.32-4.72,5.3-18.86,1.33-4.72.93-4.82,1.81-9.64c1.09-6.46,2.69-12.82,3.4-19.34l2-19.59,1-9.8.14-9.88.32-19.76a74.47,74.47,0,0,0-.28-9.9l-.65-9.9-1.26-19.81c-.8-6.59-1.84-13.16-2.74-19.74l-2.82-19.74-4.22-19.57-4.19-19.58-2.54-9.14-3-9.49c-8.3-25.52-17.81-51.22-27.6-76.66s-20.08-50.81-30.83-75.91c-21.44-50.21-44.47-99.78-70.38-147.24l-2.81-5.15.54-5.83c7.21-78.42,9.51-157.5,5.82-236-2-39.22-5.39-78.34-11.44-116.79s-14.51-76.43-28.37-111.21c-6.9-17.33-15.58-33.57-26.18-46.91a47.52,47.52,0,0,0-4.11-4.75l-2.09-2.29a16.3,16.3,0,0,0-2-2,29.91,29.91,0,0,0-3.73-3L1627.77,85c-.66-.4-1.38-.69-2-1.07A38.44,38.44,0,0,0,1606.5,80c-14.89.43-32,7-48.21,15.19-16.32,8.41-32.21,19-47.65,30.32-30.87,22.85-60,49.18-88.11,76.47s-55.19,56.1-81.69,85.38l-8.44,9.34-12.3-3.51a589.72,589.72,0,0,0-80.46-16.57c-27.36-3.8-55.14-5.69-83-6.76s-55.79-.83-83.72.36-56,3.27-83.24,6.62c-27.22,3.7-55,8.68-82.22,14.57s-54.43,12.74-81.11,20.72S773.33,329,747.8,339.52a590.63,590.63,0,0,0-73.69,36.28L663,382.32l-10.59-6.95c-33-21.68-66.44-42.64-100.53-62.09S483,275.79,447.42,261.44c-17.79-7.08-35.82-13.31-53.72-17.34-17.71-3.9-35.92-5.89-50.39-2.57a38.1,38.1,0,0,0-17.53,8.61c-.55.52-1.17,1-1.7,1.53l-1.51,1.78a29.51,29.51,0,0,0-2.83,3.86,15.16,15.16,0,0,0-1.43,2.44l-1.45,2.73a48.91,48.91,0,0,0-2.77,5.62c-6.89,15.55-11.2,33.44-13.52,51.93-4.66,37.12-3.3,76.08.52,114.72s10.35,77.44,18.3,115.89c16.17,76.88,38.29,152.83,65,226.9l2,5.62L385,788.93c-13.24,52.4-22.92,106.21-31.09,160.18q-6.08,40.5-10.73,81.22c-3.09,27.08-5.84,54.35-7.41,81.12-.41,6.71-.62,13.25-.64,19.39q.1,10,.52,20c.57,13.33,1.57,26.61,3.08,39.81a457.48,457.48,0,0,0,15.5,77.67c14.77,50.48,39.91,97.51,74.91,136.31,34.83,39,78.75,69.6,126.67,92.48s99.73,38.57,152.46,50,106.79,18.05,161.09,23.55l81.73,8.46c27.35,2.93,54.8,6.09,82.23,10.72a8.95,8.95,0,0,1-1.19,17.76h0c-55,1.82-110.27,1.86-165.72-1.83a1170.3,1170.3,0,0,1-165.79-22.67c-54.83-11.76-109.27-28.06-160.8-52.49S440,1472.89,401.21,1429.68c-39-43-67-95.47-83.26-150.58A495.64,495.64,0,0,1,301,1195c-1.65-14.15-2.75-28.33-3.38-42.51q-.45-10.63-.59-21.25c0-7.63.24-14.85.65-21.88,1.61-28.21,4.35-55.75,7.43-83.37s6.68-55.1,10.75-82.56c8.2-54.9,17.9-109.64,31.53-164.06l.57,11.39C320.47,715,297.77,637.7,281,558.7c-8.25-39.53-15.1-79.46-19.18-120S256,357,261.17,314.93c2.65-21,7.41-42.32,16.62-63.24a78.52,78.52,0,0,1,3.8-7.78l2.06-3.85a34.6,34.6,0,0,1,2.35-4,69.73,69.73,0,0,1,6-8.19l3.38-3.87c1.19-1.23,2.5-2.37,3.76-3.54a78.33,78.33,0,0,1,35.27-17.88,122.6,122.6,0,0,1,35.42-2.41A213.83,213.83,0,0,1,402.42,205c21,4.69,40.72,11.54,59.93,19.14,38.32,15.36,74.34,34.16,109.55,54s69.28,41.27,102.89,63.25L653.13,341c51.23-30.29,106-51.5,161.53-68.13,27.79-8.37,55.85-15.53,84.11-21.67s56.57-11.41,85.72-15.25c29.19-3.52,57.85-5.56,86.8-6.72s57.86-1.28,86.85-.16c57.94,2.16,116.27,8.93,173.44,25.38l-20.74,5.82c27-29.71,54.7-58.92,83.71-87.06s59.23-55.29,92.46-79.78c16.68-12.17,34-23.75,53.17-33.56A213.45,213.45,0,0,1,1570.54,47a122.29,122.29,0,0,1,34.83-6.56,78,78,0,0,1,38.53,8.43c1.52.82,3.07,1.58,4.53,2.47l4.22,2.9a68.48,68.48,0,0,1,7.81,6.41,33.55,33.55,0,0,1,3.27,3.27l3,3.21a77.92,77.92,0,0,1,5.63,6.56c14.15,17.92,24.11,37.37,31.94,57,15.52,39.37,24.19,79.66,30.46,119.89s9.63,80.64,11.57,121c3.59,80.66,1,161.22-6.52,241.41l-2.27-11c26.74,49.27,50,99.76,71.68,150.85q16.3,38.3,31.14,77.19c9.91,26,19.48,51.93,28.14,78.79l3.15,10.23,3,10.77,4.42,20.8,4.41,20.81,3,21.14c.95,7.06,2,14.09,2.86,21.16l1.34,21.41.66,10.7a87.19,87.19,0,0,1,.28,10.73l-.39,21.52-.21,10.76-1.09,10.75-2.21,21.49c-.81,7.15-2.54,14.2-3.77,21.31l-2,10.63-1,5.31-1.48,5.22-5.92,20.88-1.49,5.21c-.57,1.72-1.26,3.39-1.89,5.09l-3.85,10.15-3.88,10.14-1.94,5.07c-.72,1.65-1.55,3.26-2.32,4.9l-9.44,19.54c-13.67,25.41-29.24,50-48,71.72l-6.84,8.33c-2.3,2.76-4.86,5.26-7.28,7.9l-14.75,15.62-15.63,14.64c-2.62,2.41-5.19,4.9-7.86,7.26l-8.21,6.82c-21.55,18.66-45,34.65-68.64,50.07-12.06,7.3-24,14.88-36.36,21.52-12.21,7-24.73,13.35-37.23,19.73-25.15,12.36-50.55,24.15-76.49,34.4-12.9,5.35-26,10.11-39,15.09-13.11,4.61-26.23,9.26-39.43,13.52-52.77,17.32-106.21,31.39-159.59,44.4l-.06,0a8.93,8.93,0,0,1-5.59-16.9Z" transform="translate(-39.78 -40.37)" style="fill:#0c6cf2"/><path d="M1236.88,1143.46s10.49,81.85-63.28,86.88c-52.26,3.59-68.47-37.73-69.69-41.07-.37,3.54-5.67,47.62-57.15,57.28-72.71,13.67-83.13-68.19-83.13-68.19l122.47-123.44,1.25-.16Z" transform="translate(-39.78 -40.37)" style="fill:#e8e8e8"/><path d="M1236.22,1144.1s-15.93,65.33-73.37,57.93c-65.39-8.42-67.28-84.9-67.28-84.9l-2.34.3s17.11,74.56-44.16,98.91c-53.83,21.38-85.43-38-85.43-38s-33.45-137.83,118.14-157.19S1236.22,1144.1,1236.22,1144.1Z" transform="translate(-39.78 -40.37)" style="fill:#fff"/><g style="opacity:0.15"><path d="M1230.85,1158.91c-8.52,18.8-28.41,48.23-68,43.11-65.43-8.41-67.32-84.9-67.32-84.9l-2.31.3s17.11,74.59-44.18,98.93c-37,14.71-63.6-8.84-76.53-24.94a103.53,103.53,0,0,0,34.61-7.57c101.18-40.21,75.76-141.14,75.76-141.14l3.88-.49s.27,104.08,108.27,118A102.33,102.33,0,0,0,1230.85,1158.91Z" transform="translate(-39.78 -40.37)" style="fill:#000072"/></g><path d="M972.81,1173.48c2.28,2.68,5.21,6.13,8.07,9a111,111,0,0,0,8.93,8.24,67.06,67.06,0,0,0,19.23,11.49,47,47,0,0,0,19.69,2.95c3.33-.75,6.66-.76,10-2.21,1.66-.63,3.38-1,5-1.66l5-2.37c13.31-6.31,22.48-17.18,28.12-31.37a91.58,91.58,0,0,0,5.49-23.11,123.86,123.86,0,0,0,.89-12.42c.1-4.07,0-8.66-.17-12.22l-.06-.92a10.4,10.4,0,0,1,20.31-3.73,101.66,101.66,0,0,1,3.46,15.12,110.35,110.35,0,0,1,1.37,15.15c.18,10.19-.58,20.73-3.74,31.11-5.43,20.77-21,41-41.14,50.58l-7.44,3.63a76.31,76.31,0,0,1-8,2.71c-5.28,1.94-11.26,2.38-17,3.18a71.25,71.25,0,0,1-34-7,83.06,83.06,0,0,1-25.75-19.94,105.17,105.17,0,0,1-9.32-12.43,89.61,89.61,0,0,1-7.31-13.94,10.38,10.38,0,0,1,17.45-10.81Z" transform="translate(-39.78 -40.37)" style="fill:#0c6cf2"/><path d="M1246.31,1146.56a89,89,0,0,1-3.63,15.32,105.74,105.74,0,0,1-6,14.35,83.35,83.35,0,0,1-20,25.69,71.14,71.14,0,0,1-31.22,15.22c-5.74.65-11.65,1.7-17.24,1.13a78.5,78.5,0,0,1-8.44-.64l-8.11-1.69c-21.84-4.29-42-20-52.38-38.81-5.62-9.28-9-19.3-11.32-29.22a110.78,110.78,0,0,1-2.43-15,102.39,102.39,0,0,1-.38-15.5,10.4,10.4,0,0,1,20.6-1.42l.17.91c.66,3.5,1.76,8,2.86,11.88a124,124,0,0,0,3.93,11.82,91.35,91.35,0,0,0,11,21c9,12.36,20.55,20.62,35,23.44l5.42,1.06c1.79.27,3.54.16,5.3.36,3.61.58,6.84-.24,10.25-.34a46.93,46.93,0,0,0,18.35-7.73,67.3,67.3,0,0,0,15.79-15.89,109.39,109.39,0,0,0,6.61-10.2c2.07-3.43,4.06-7.5,5.61-10.66l.6-1.22a10.38,10.38,0,0,1,19.58,6.14Z" transform="translate(-39.78 -40.37)" style="fill:#0c6cf2"/><path d="M1165.71,1068.1c2.25,17.87-19.07,36.58-39.12,50a77.25,77.25,0,0,1-69.82,8.78c-22.73-8-48-20.89-50.27-38.75C999.73,1034.23,1158.94,1014.22,1165.71,1068.1Z" transform="translate(-39.78 -40.37)" style="fill:#0c6cf2"/><g style="opacity:0.5"><path d="M1116.34,1063.57c.65,5.16-8,10.87-16.11,15a41,41,0,0,1-27.69,3.48c-8.87-2-18.68-5.42-19.33-10.57C1051.26,1056,1114.39,1048,1116.34,1063.57Z" transform="translate(-39.78 -40.37)" style="fill:#0c6cf2"/></g><ellipse cx="751.73" cy="1063.34" rx="123.6" ry="129.68" transform="translate(-168.45 63.44) rotate(-7.28)" style="fill:#3a3a3a"/><ellipse cx="771.37" cy="1091.11" rx="52.31" ry="54.88" transform="matrix(0.99, -0.13, 0.13, 0.99, -171.82, 66.16)" style="fill:#fff"/><ellipse cx="707.18" cy="1015.32" rx="30.16" ry="31.64" transform="translate(-162.74 57.42) rotate(-7.28)" style="fill:#fff"/><ellipse cx="1414.25" cy="978.71" rx="123.6" ry="129.68" transform="matrix(0.99, -0.13, 0.13, 0.99, -152.39, 146.7)" style="fill:#3a3a3a"/><ellipse cx="1433.89" cy="1006.48" rx="52.31" ry="54.88" transform="translate(-155.73 149.38) rotate(-7.28)" style="fill:#fff"/><ellipse cx="1369.7" cy="930.7" rx="30.16" ry="31.64" transform="translate(-146.67 140.68) rotate(-7.28)" style="fill:#fff"/><path d="M419.43,1209.67c-3.21-1.3-7-2.68-10.57-4s-7.27-2.6-11-3.78-7.37-2.39-11.13-3.41-7.42-2.27-11.19-3.24c-15.06-3.93-30.16-7.68-45.49-10.39-30.59-5.55-61.54-9.46-92.71-10.23-7.78-.46-15.58,0-23.37-.1H202.3c-3.89,0-7.78.44-11.67.64-7.79.5-15.58,1-23.38,1.35l-23.3,2.64c-15.63,1.25-30.86,5.06-46.39,7.37l-5.82,1L86,1188.91l-11.46,2.72c-7.64,1.85-15.33,3.55-23,5.27l-.6.14a9.14,9.14,0,0,1-4.85-17.6c7.7-2.53,15.4-5.08,23.16-7.48l11.64-3.65,5.82-1.83,5.93-1.44c7.89-2,15.82-3.79,23.77-5.58,4-.83,7.92-2,12-2.56l12.08-1.94,24.19-3.8c8.12-.82,16.26-1.53,24.41-2.21,4.07-.3,8.14-.79,12.22-.93l12.27-.31c8.17-.1,16.36-.6,24.54-.2l24.54,1c8.17.51,16.31,1.5,24.46,2.34,8.17.67,16.22,2.28,24.33,3.49s16.1,3,24.1,4.84c32.06,7.43,63,17.69,92.5,34.31a9.14,9.14,0,0,1-7.91,16.43Z" transform="translate(-39.78 -40.37)" style="fill:#0c6cf2"/><path d="M455.77,1328.09c-13.33.24-27.38,1-41,2.27s-27.39,2.82-41,4.89c-27.12,4.23-54,9.89-79.85,18.44a361,361,0,0,0-38,14.69c-6.24,2.69-12.21,5.88-18.32,8.83-5.89,3.31-12,6.39-17.63,10.07a299.65,299.65,0,0,0-63.18,51l-.13.14a9.16,9.16,0,0,1-13.9-11.88,268.61,268.61,0,0,1,63.84-60,290.59,290.59,0,0,1,38.15-21.92,325.36,325.36,0,0,1,40.59-16.63,391.43,391.43,0,0,1,85.09-18.73c28.94-3,57.67-3.38,87,.67a9.15,9.15,0,0,1-1.09,18.22Z" transform="translate(-39.78 -40.37)" style="fill:#0c6cf2"/><path d="M1763.84,1022.87c24.38-23.5,51.74-41.21,80.9-56.46,7.29-3.75,14.57-7.54,22.11-10.75s14.94-6.79,22.67-9.49,15.31-5.86,23.09-8.4l23.5-7.15c7.82-2.45,15.86-4,23.81-6l11.94-2.79c4-.9,8.05-1.44,12.07-2.17,8-1.39,16.11-2.75,24.18-4l24.37-2.4,12.17-1.16c4.06-.43,8.15-.33,12.21-.52,8.15-.27,16.29-.49,24.42-.58l6.1-.1,6.09.31,12.18.61c8.12.37,16.22.9,24.3,1.42a9.14,9.14,0,0,1-.22,18.25l-.67,0c-7.89.27-15.76.56-23.62.69l-11.78.24-5.88.13-5.87.52c-15.61,1.67-31.31,1.8-46.76,4.52L2011.94,941c-7.65,1.6-15.3,3.1-23,4.57-3.81.78-7.68,1.38-11.46,2.32l-11.32,2.92c-7.51,2.09-15.18,3.57-22.6,6-30,8.58-58.95,20.15-87.16,33.21-14.16,6.48-27.83,13.9-41.41,21.49-3.41,1.88-6.63,4-10,6s-6.69,4-9.92,6.1-6.54,4.18-9.67,6.41-6.45,4.42-9.23,6.49l-.56.41a9.14,9.14,0,0,1-11.78-13.92Z" transform="translate(-39.78 -40.37)" style="fill:#0c6cf2"/><path d="M1764.63,1142.89c27.34-11.29,55.24-18.17,84-22.52a391.49,391.49,0,0,1,87.06-3.25,325.9,325.9,0,0,1,43.47,5.89,291.18,291.18,0,0,1,42.43,11.63,268.55,268.55,0,0,1,76.88,42.06,9.15,9.15,0,0,1-10.42,15l-.2-.12a299.94,299.94,0,0,0-74-33.47c-6.42-2.12-13.06-3.58-19.6-5.3-6.66-1.32-13.24-2.91-20-3.95a360.7,360.7,0,0,0-40.49-4.66c-27.2-1.77-54.61-.5-81.93,2.22-13.66,1.41-27.29,3.32-40.88,5.57s-27.32,5-40.28,8.11l-.5.12a9.15,9.15,0,0,1-5.64-17.35Z" transform="translate(-39.78 -40.37)" style="fill:#0c6cf2"/><path d="M827.14,2078.61c-300.49,14.91-160.13-337.31-158-342.71l.05,0S655,1733.62,635,1725.52c-37.78-15.37-96.09-51.64-117.22-133.37-29-112,92.85-184.36,175.4-42.39,0,0,235.59-86.58,273.64,109.08,5.76,29.5,11.39,60.92,15.69,92.8,3.52,25.84,6.22,51.91,7.45,77.52C996.22,1956.4,966.86,2071.66,827.14,2078.61Z" transform="translate(-39.78 -40.37)" style="fill:#8e8fb3"/><g style="opacity:0.15"><path d="M827.14,2078.61c-300.49,14.91-160.13-337.31-158-342.71l.05,0S655,1733.62,635,1725.52c99.53,25.66,158.3,15.6,160.45,15.23-2.61,1.88-103,76.43-59,190.4,35,90.7,231.79,81.55,253.56-102C996.22,1956.4,966.86,2071.66,827.14,2078.61Z" transform="translate(-39.78 -40.37)" style="fill:#000072"/></g><path d="M982.55,1751.64c-32.7-13.5-77.71-23.24-134.88-15.78-115.76,15-178.46,0-178.46,0S550.11,1717,517.82,1592.15c-6-23.19-5.53-44.68-.23-62.93,20-69.84,110.18-92,175.63,20.54,0,0,205.31-75.47,263.53,73.68a199.73,199.73,0,0,1,10.11,35.4C972.62,1688.34,978.25,1719.76,982.55,1751.64Z" transform="translate(-39.78 -40.37)" style="fill:#fff"/><g style="opacity:0.15"><path d="M956.75,1623.44c-74.36-71.35-192.59-67.92-217-50.63-11.39,8.09,2.15,22.77-4.53,31.37-4.53,5.86-35.44-23-54.79-24.38-23.19-1.64-43,16.74-46,6-3.66-12.94,23.83-64.17-35.91-83.51-24.19-7.87-55.93,8.91-80.95,26.89,20-69.84,110.18-92,175.63,20.54C693.22,1549.76,898.53,1474.29,956.75,1623.44Z" transform="translate(-39.78 -40.37)" style="fill:#000072"/></g><path d="M809,2097.34c-73.79,0-127.37-22.82-159.46-68-61.63-86.73-22.2-228.73-4.5-280.75-38.62-12.06-118.29-48.93-144.92-151.88-15.54-60.07,7.71-117.85,55.28-137.39,39.39-16.19,97.35-5.87,145.84,68.58,36-10.67,131.89-32.71,204.23,8.07,41.84,23.57,68.54,63.72,79.36,119.32,27,138.63,45.43,292-22.3,378.47-30.48,38.93-75.74,60.15-134.5,63.07Q818.32,2097.34,809,2097.34ZM588.87,1489.41a51.34,51.34,0,0,0-19.56,3.78c-26.13,10.74-46.12,46.61-33.76,94.39,28.77,111.22,132.17,129.49,136.56,130.21a18.34,18.34,0,0,1,14,24.92c-.71,1.75-70.1,176.45-6.74,265.51,27.08,38.06,76.46,55.61,146.81,52.1,48.36-2.41,83.54-18.46,107.52-49.09,59-75.31,39.1-226,15.18-348.92-8.67-44.55-29.29-76.3-61.3-94.38-74.09-41.85-187-1.41-188.12-1a18.32,18.32,0,0,1-22.11-8C647.48,1507.51,614.75,1489.41,588.87,1489.41Z" transform="translate(-39.78 -40.37)" style="fill:#0c6cf2"/><path d="M673.35,1718c4.23,1.31,9.82,2.64,14.92,3.76s10.53,2.18,15.89,3.06c10.69,1.81,21.53,3.23,32.44,4.27s21.89,1.74,32.9,1.92,22.07.11,33.14-.26h.2a9.16,9.16,0,0,1,1.84,18.18c-11.31,1.93-22.69,3.71-34.16,4.92-11.47,1.37-23,2.1-34.59,2.67s-23.23.53-34.94.16c-5.85-.17-11.72-.52-17.62-1s-11.56-1-18.33-2.07a18.34,18.34,0,0,1,5.78-36.23A22.74,22.74,0,0,1,673.35,1718Z" transform="translate(-39.78 -40.37)" style="fill:#0c6cf2"/><path d="M2392.25,1892a217.55,217.55,0,0,1-3.09,25.79c-1.44,8.44-3.36,16.77-5.59,25.07a251.32,251.32,0,0,1-18.71,48.37c-7.78,15.7-18.25,30.27-30.27,43.62l-9.42,9.74c-3.4,3-6.94,5.84-10.43,8.77l-5.29,4.34-5.71,3.76-11.53,7.49a18.33,18.33,0,0,1-20-30.75q.69-.43,1.38-.81l1.77-.94,9.65-5.11,4.88-2.53,4.52-3.11,9.1-6.25,8.43-7.25a165.85,165.85,0,0,0,29.09-34.62,226.85,226.85,0,0,0,20.74-41.71c2.73-7.37,5.22-14.87,7.25-22.49a199.1,199.1,0,0,0,5-22.8l.09-.54a9.14,9.14,0,0,1,18.15,2Z" transform="translate(-39.78 -40.37)" style="fill:#0c6cf2"/><path d="M2250.49,1735.4a6.46,6.46,0,0,0-.84.56c-.29.23-.53.47-.46.37l-.1,0a2.8,2.8,0,0,1,.14-.45l.53-1.24,1.31-2.6c.94-1.76,2-3.48,3.06-5.24a70.6,70.6,0,0,1,7.82-10.08,43.33,43.33,0,0,1,12.26-9.41,25.14,25.14,0,0,1,11.87-2.51,20.8,20.8,0,0,1,7.93,1.94,21.24,21.24,0,0,1,3.51,2,18.88,18.88,0,0,1,3.94,3.91c.49.68.95,1.38,1.37,2.1s.61,1.22.9,1.85a21.24,21.24,0,0,1,1.14,3.28,27.3,27.3,0,0,1,.87,5.11,41.14,41.14,0,0,1-.14,7.79,73.91,73.91,0,0,1-2.47,12.72,91,91,0,0,1-9.38,22.23,9.39,9.39,0,0,1-17.47-4.94v-.52c.13-7.28.94-14.65,1.47-21.48.19-3.41.53-6.75.46-9.6a32.38,32.38,0,0,0-.23-3.46c0-.72-.7-1,1,1.7a9.65,9.65,0,0,0,2,2,7.43,7.43,0,0,0,1.1.62,7.14,7.14,0,0,0,2.5.59c1.44,0,1.49-.33,1-.11-1.2.21-3.64,1.78-6.11,3.48s-5.16,3.87-7.86,6.08l-10.92,8.56a9.15,9.15,0,1,1-10.15-15.22Z" transform="translate(-39.78 -40.37)" style="fill:#0c6cf2"/><path d="M1744.83,1799.71a182.58,182.58,0,0,1,1,35,144.58,144.58,0,0,1-6.5,35.29,94.84,94.84,0,0,1-18.8,33.77,82.54,82.54,0,0,1-15.69,13.51,88.56,88.56,0,0,1-18.75,9.12l-.15,0a18.36,18.36,0,0,1-12.52-34.52,20.46,20.46,0,0,1,2.83-.77,47.17,47.17,0,0,0,21.6-10,64.62,64.62,0,0,0,16-21.28,118.51,118.51,0,0,0,9.33-28.16,163.12,163.12,0,0,0,3.41-30.43v-.54a9.15,9.15,0,0,1,18.22-1Z" transform="translate(-39.78 -40.37)" style="fill:#0c6cf2"/><path d="M1605.9,1785.14a200.22,200.22,0,0,0,.13,32.57,148.59,148.59,0,0,0,5.77,31.27c3,9.82,7.31,18.86,12.92,25.85a50.09,50.09,0,0,0,9.23,8.93,49.09,49.09,0,0,0,10.81,5.65,18.34,18.34,0,0,1-13,34.29,18.71,18.71,0,0,1-2.13-1l-.19-.11a78.23,78.23,0,0,1-31.3-30c-7.16-12.13-11-25-13-37.52a174,174,0,0,1-1.89-37,218.56,218.56,0,0,1,4.72-36.08,9.15,9.15,0,0,1,18.06,2.7Z" transform="translate(-39.78 -40.37)" style="fill:#0c6cf2"/><path d="M2482.94,2015.61a136.17,136.17,0,0,0,27.1,4.4,112.93,112.93,0,0,0,26.67-1.44,71.65,71.65,0,0,0,22.85-8.69c6.73-4,11.76-9.74,16.31-15.64l.67-.87a18.36,18.36,0,1,1,29.1,22.41,18.61,18.61,0,0,1-1.66,1.87c-8.83,8.71-18.86,16.39-30.23,20.93a102.08,102.08,0,0,1-34.24,7.29,138,138,0,0,1-32.76-3.23,155.1,155.1,0,0,1-30.62-10,9.15,9.15,0,0,1,6.2-17.15Z" transform="translate(-39.78 -40.37)" style="fill:#0c6cf2"/><path d="M2504.3,1886.67a164.06,164.06,0,0,1,28.12-6.24,129.29,129.29,0,0,1,29.59-.72,83.05,83.05,0,0,1,31.07,8.92,69.6,69.6,0,0,1,14.44,10.34,71.91,71.91,0,0,1,11.35,14.19l.25.41a18.39,18.39,0,0,1-31.28,19.33,19.21,19.21,0,0,1-1.47-2.94,37,37,0,0,0-4-7.62,36.46,36.46,0,0,0-6.21-6.51,53,53,0,0,0-18.9-9.09,104.28,104.28,0,0,0-23.69-3.47,145.08,145.08,0,0,0-24.76,1.12l-.57.07a9.15,9.15,0,0,1-4-17.79Z" transform="translate(-39.78 -40.37)" style="fill:#0c6cf2"/><g style="opacity:0.5"><path d="M1988.41,1854.53c13.72,67.85,83.13,133.72,176,99.36,71.24-26.37-54.08-47.66-107.19-103.35C2020.31,1811.89,1975.57,1791,1988.41,1854.53Z" transform="translate(-39.78 -40.37)" style="fill:#fff"/></g><g style="opacity:0.5"><path d="M1908.77,1352.18c-3.53,0,14.53,49.5,3.77,113.54-4.74,28.2,47.44-3,42-51.39C1949.67,1371.55,1912.31,1352.18,1908.77,1352.18Z" transform="translate(-39.78 -40.37)" style="fill:#fff"/></g><path d="M598.85,1309.13c-56.41,0-100.84-12.87-132.55-38.46-101.81-82.19-97.29-220.16-85.53-295.09.25-1.61.44-2.81.54-3.57.07-.58.17-1.39.29-2.19,6.1-39.63,33.23-73.61,70.82-88.85,25.69-10.44,54.55-18,85.78-22.33,101.12-14.18,202.43-10,278,11.49a124.75,124.75,0,0,1,89.3,102.56l15.13,107.84c11.6,82.74-37.17,162.13-116,188.77-50.8,17.18-98.46,29-141.67,35A462,462,0,0,1,598.85,1309.13Zm56.54-431.35a820.62,820.62,0,0,0-113.38,8c-29,4.07-55.66,11-79.28,20.58-28.68,11.63-49.37,37.47-54,67.43l-.21,1.52c-.13,1.06-.36,2.53-.66,4.48-10.84,69.08-15.43,196,75.66,269.49,36.74,29.65,95.82,39,175.62,27.83,41.51-5.83,87.5-17.21,136.68-33.85,66.31-22.42,107.35-89.27,97.58-159L878.29,976.51a97.24,97.24,0,0,0-69.64-80C765,884.11,712.05,877.78,655.39,877.78Z" transform="translate(-39.78 -40.37)" style="fill:#3a3a3a"/><path d="M1830.69,945.73c1.26,56.84-10.47,119-50,175.18-72.74,103.43-237.6,119.23-369,113-90.89-4.29-168.14-63-198.81-145.48a224.85,224.85,0,0,1-12-47.24l-17.58-125.34a218.16,218.16,0,0,0-230.62,32.35l17.58,125.34a224,224,0,0,1,1.51,48.71C965,1210,906.89,1287.71,820.7,1316.84,696,1359,533.18,1389.15,434.79,1309.73c-53.42-43.13-81.81-99.68-96.23-154.67-20.2-77.29-12.83-151.47-8.51-180.92v0c1.25-8.54,2.26-13.29,2.26-13.29s-62.21-53.84-1.52-92c102.56-64.5,449.92-118.52,611.84,7.58A218,218,0,0,1,1173.25,844c121-165.79,469.78-209.43,586.14-175.64,68.89,20,23.86,88.9,23.86,88.9s2.28,4.29,5.83,12.15v0C1801.35,796.58,1828.88,865.87,1830.69,945.73Z" transform="translate(-39.78 -40.37)" style="fill:#68d8ff"/><path d="M338.56,1155.06l633.24-32.79C965,1210,906.89,1287.71,820.7,1316.84,696,1359,533.18,1389.15,434.79,1309.73,381.37,1266.6,353,1210.05,338.56,1155.06Z" transform="translate(-39.78 -40.37)" style="fill:#4ca9fc"/><path d="M1830.69,945.73c1.26,56.84-10.47,119-50,175.18-72.74,103.43-237.6,119.23-369,113-90.89-4.29-168.14-63-198.81-145.48Z" transform="translate(-39.78 -40.37)" style="fill:#4ca9fc"/><path d="M1783.25,757.27s2.28,4.29,5.83,12.15v0L1302.27,873.61c-70,15-141.35,21.62-212.9,23a217.73,217.73,0,0,0-51.62,7.24c-69.18,18.35-139.61,31.6-211,36.46L330.05,974.14v0c1.25-8.54,2.26-13.29,2.26-13.29s-62.21-53.84-1.52-92c102.56-64.5,449.92-118.52,611.84,7.58A218,218,0,0,1,1173.25,844c121-165.79,469.78-209.43,586.14-175.64C1828.28,688.39,1783.25,757.27,1783.25,757.27Z" transform="translate(-39.78 -40.37)" style="fill:#69f1ff"/><path d="M907,1082.44c10.69,76.2-34.2,149.32-106.78,173.86-50.06,16.93-96.87,28.5-139.17,34.43-83.7,11.75-146.33,1.4-186.14-30.74-117.31-94.7-81.95-270.93-80-286.24.07-.62.17-1.31.26-2,5.42-35.18,29.42-64.69,62.39-78.06,20.64-8.38,47.95-16.6,82.53-21.45,84.81-11.9,188.76-12.67,272.31,11.1a110.91,110.91,0,0,1,79.47,91.27Z" transform="translate(-39.78 -40.37)" style="fill:#68d8ff"/><path d="M599.21,1372.81c-64.36,0-125.57-14.09-173-52.4-141.21-114-115.85-313.1-108.69-354.89-10-10.44-28.87-34-26.84-60.62,1.43-18.86,12.48-34.92,32.84-47.73,57.42-36.11,174.08-64.15,290.3-69.78,80.91-3.9,229,.49,328.52,71.61a233,233,0,0,1,226.48-31.77c76.09-95.76,217.28-140.75,296.14-159.24,113.29-26.57,233.17-31.72,298.29-12.8,23.12,6.72,38.17,19.12,44.73,36.86,9.28,25.06-2.42,52.88-9.14,65.66,18.39,38.22,97.57,222.65-6.85,371.1-77,109.44-249.62,125-380.92,118.82-113.75-5.36-207.83-91.37-223.71-204.51l-16.5-117.69A204.38,204.38,0,0,0,967.37,954l16.51,117.69c15.88,113.14-50.91,221.72-158.79,258.17C757.33,1352.74,676,1372.81,599.21,1372.81Zm58-558.74c-132.88,0-264.67,32.1-319.08,66.33-12.75,8-19.33,16.69-20.1,26.52-1.39,17.78,16.36,37.46,23.31,43.55a13.79,13.79,0,0,1,4.43,13.16c-.46,2.19-44.13,220.95,97.67,335.42,94.42,76.22,254.9,44.67,372.89,4.79,95.4-32.24,154.45-128.28,140.4-228.37L939.12,950.13a13.72,13.72,0,0,1,4.73-12.38A231.8,231.8,0,0,1,1189,903.36a13.74,13.74,0,0,1,8,10.6l17.58,125.34c14,100.09,97.24,176.18,197.82,180.92,124.44,5.89,287.38-7.94,357.19-107.2,104.86-149.07,2.64-347.37,1.6-349.36a13.73,13.73,0,0,1,.63-13.87h0c5-7.76,16.68-31.57,10.45-48.27-3.45-9.24-12.16-15.77-26.63-20-110-31.94-454.2,10.17-571.23,170.55a13.72,13.72,0,0,1-16.73,4.42,205.28,205.28,0,0,0-216.11,30.32,13.72,13.72,0,0,1-17.3.35C865.49,833.68,761,814.07,657.18,814.07Zm-58.33,495.06c-56.41,0-100.84-12.87-132.55-38.46-101.81-82.19-97.29-220.16-85.53-295.09.25-1.61.44-2.81.54-3.57.07-.58.17-1.39.29-2.19,6.1-39.63,33.23-73.61,70.82-88.85,25.69-10.44,54.55-18,85.78-22.33,101.13-14.18,202.44-10,278,11.49a124.75,124.75,0,0,1,89.3,102.56l15.13,107.84c11.6,82.74-37.17,162.13-116,188.77-50.8,17.18-98.46,29-141.67,35A462,462,0,0,1,598.85,1309.13Zm56.54-431.35a820.62,820.62,0,0,0-113.38,8c-29,4.07-55.66,11-79.28,20.58-28.68,11.63-49.37,37.47-54,67.44l-.21,1.51c-.13,1.06-.36,2.53-.66,4.48-10.84,69.08-15.43,196,75.66,269.49,36.74,29.65,95.82,39,175.62,27.83,41.51-5.83,87.5-17.21,136.68-33.85,66.31-22.42,107.35-89.27,97.58-159L878.29,976.51a97.24,97.24,0,0,0-69.64-80C765,884.11,712.05,877.78,655.39,877.78Zm804.69,307.14q-22.39,0-46-1.11c-83.09-3.93-151.82-66.84-163.42-149.57L1235.48,926.4a124.72,124.72,0,0,1,57.64-123.17c66.7-41.45,163-73.35,264.08-87.54,31.21-4.38,61-5.1,88.64-2.14,40.31,4.31,75.73,29.52,92.43,65.78.45,1,.76,1.71,1,2.35s.74,1.64,1.43,3.12c31.91,68.8,74.22,200.2-1,307.23h0c-31.71,45.08-92.2,74.18-179.81,86.47C1529.37,1182.78,1496,1184.92,1460.08,1184.92ZM1611.49,739.2a364,364,0,0,0-50.48,3.67c-97.47,13.67-189.84,44.17-253.41,83.67a97.25,97.25,0,0,0-44.94,96l15.13,107.84c9.78,69.69,67.63,122.67,137.55,126,51.85,2.46,99.21.76,140.72-5.07,79.79-11.19,134-36.45,161.18-75.08h0c67.34-95.74,28-216.46-1.41-279.89-.83-1.8-1.46-3.15-1.82-4l-.7-1.6c-12.65-27.46-39.63-46.61-70.39-49.91A297,297,0,0,0,1611.49,739.2Z" transform="translate(-39.78 -40.37)" style="fill:#000072"/><path d="M891.88,974.6,907,1082.44c10.69,76.2-34.2,149.32-106.78,173.86-42.63,14.41-82.91,25-120,31.43q-9.74,1.69-19.13,3c-54.43,7.64-100,5.93-136.1-5q-29.12-8.84-50-25.7c-.72-.57-1.42-1.15-2.12-1.77-38.33-31.72-60-72.28-71.71-112.81-23.41-80.83-7.46-161.51-6.17-171.66.07-.62.17-1.31.26-2,5.42-35.18,29.42-64.69,62.39-78.06,20.64-8.38,47.95-16.6,82.53-21.45,22.91-3.21,47.23-5.62,72.18-6.93,50.06-2.67,102.63-1,151.37,7.16a456.41,456.41,0,0,1,48.76,10.87A108.58,108.58,0,0,1,825,887.77,110.79,110.79,0,0,1,891.88,974.6Z" transform="translate(-39.78 -40.37)" style="fill:#000072"/><g style="opacity:0.30000000000000004"><path d="M763.65,872.46,472.8,1258.22c-38.33-31.72-60-72.28-71.71-112.81L612.28,865.3C662.34,862.63,714.91,864.32,763.65,872.46Z" transform="translate(-39.78 -40.37)" style="fill:#fff"/></g><g style="opacity:0.30000000000000004"><path d="M891.88,974.6l3.82,27.28L680.19,1287.73q-9.74,1.69-19.13,3c-54.43,7.64-100,5.93-136.1-5L825,887.77A110.79,110.79,0,0,1,891.88,974.6Z" transform="translate(-39.78 -40.37)" style="fill:#fff"/></g><path d="M598.85,1309.13c-56.41,0-100.84-12.87-132.55-38.46-101.81-82.19-97.29-220.16-85.53-295.09.25-1.61.44-2.81.54-3.57.07-.58.17-1.39.29-2.19,6.1-39.63,33.23-73.61,70.82-88.85,25.69-10.44,54.55-18,85.78-22.33,101.12-14.18,202.43-10,278,11.49a124.75,124.75,0,0,1,89.3,102.56h0l15.13,107.84c11.6,82.74-37.17,162.13-116,188.77-50.8,17.18-98.46,29-141.67,35A462,462,0,0,1,598.85,1309.13Zm56.54-431.35a820.62,820.62,0,0,0-113.38,8c-29,4.07-55.66,11-79.28,20.58-28.68,11.63-49.37,37.47-54,67.43l-.21,1.52c-.13,1.06-.36,2.53-.66,4.48-10.84,69.08-15.43,196,75.66,269.49,36.74,29.65,95.82,39,175.62,27.83,41.51-5.83,87.5-17.21,136.68-33.85,66.31-22.42,107.35-89.27,97.58-159L878.29,976.51a97.24,97.24,0,0,0-69.64-80C765,884.11,712.05,877.78,655.39,877.78Z" transform="translate(-39.78 -40.37)" style="fill:#000072"/><path d="M1249.86,924.38,1265,1032.22c10.69,76.2,74,134.15,150.5,137.77,45,2.11,86.57,1.18,124-2.82q9.82-1,19.22-2.37c54.43-7.64,97.74-21.81,129.46-42.3q25.56-16.51,41-38.47c.54-.76,1-1.51,1.55-2.29,28.13-41,37.76-86,37.91-128.19.26-84.15-37.27-157.33-41.3-166.73-.24-.58-.53-1.22-.81-1.86-14.89-32.34-46.08-54.1-81.46-57.88-22.15-2.38-50.66-2.76-85.25,2.09-22.91,3.21-47,7.58-71.3,13.19-48.86,11.21-98.93,27.31-143.55,48.54a456,456,0,0,0-43.89,23.87,108.45,108.45,0,0,0-10.86,7.72A110.82,110.82,0,0,0,1249.86,924.38Z" transform="translate(-39.78 -40.37)" style="fill:#000072"/><g style="opacity:0.30000000000000004"><path d="M1345,790.9l385.76,290.84c28.13-41,37.76-86,37.91-128.19L1488.59,742.36C1439.73,753.57,1389.66,769.67,1345,790.9Z" transform="translate(-39.78 -40.37)" style="fill:#fff"/></g><g style="opacity:0.30000000000000004"><path d="M1249.86,924.38l3.83,27.28,285.85,215.51q9.82-1,19.22-2.37c54.43-7.64,97.74-21.81,129.46-42.3l-397.93-300A110.82,110.82,0,0,0,1249.86,924.38Z" transform="translate(-39.78 -40.37)" style="fill:#fff"/></g><path d="M1460.86,1184.81q-22.39,0-46-1.11c-83.09-3.94-151.82-66.84-163.42-149.57l-15.14-107.84h0a124.72,124.72,0,0,1,57.64-123.17c66.71-41.45,163-73.35,264.08-87.54,31.23-4.38,61-5.1,88.61-2.14,40.32,4.31,75.76,29.52,92.46,65.78.42.93.75,1.69,1,2.37.23.52.74,1.62,1.43,3.1,31.91,68.8,74.22,200.2-1,307.23-31.71,45.08-92.2,74.18-179.81,86.47C1530.16,1182.67,1496.73,1184.81,1460.86,1184.81ZM1263.45,922.47l15.13,107.84c9.78,69.69,67.63,122.66,137.55,126,51.87,2.46,99.22.76,140.73-5.07,79.78-11.19,134-36.45,161.17-75.08,67.34-95.74,28-216.46-1.41-279.89-.83-1.8-1.45-3.15-1.82-4l-.74-1.69c-12.61-27.37-39.61-46.52-70.38-49.82-25.34-2.71-52.88-2-81.88,2-97.47,13.67-189.83,44.17-253.41,83.67a97.23,97.23,0,0,0-44.94,96Z" transform="translate(-39.78 -40.37)" style="fill:#3a3a3a"/><path d="M1460.08,1184.92q-22.39,0-46-1.11c-83.09-3.93-151.82-66.84-163.42-149.57L1235.48,926.4a124.72,124.72,0,0,1,57.64-123.17c66.7-41.45,163-73.35,264.08-87.54,31.21-4.38,61-5.1,88.64-2.14,40.31,4.31,75.73,29.52,92.43,65.78.45,1,.76,1.71,1,2.35s.74,1.64,1.43,3.12c31.91,68.8,74.22,200.2-1,307.23h0c-31.71,45.08-92.2,74.18-179.81,86.47C1529.37,1182.78,1496,1184.92,1460.08,1184.92ZM1611.49,739.2a364,364,0,0,0-50.48,3.67c-97.47,13.67-189.84,44.17-253.41,83.67a97.25,97.25,0,0,0-44.94,96l15.13,107.84c9.78,69.69,67.63,122.67,137.55,126,51.86,2.46,99.21.76,140.72-5.07,79.79-11.19,134-36.45,161.18-75.08h0c67.34-95.74,28-216.46-1.41-279.89-.83-1.8-1.46-3.15-1.82-4l-.7-1.6c-12.65-27.46-39.63-46.61-70.39-49.91A297,297,0,0,0,1611.49,739.2Z" transform="translate(-39.78 -40.37)" style="fill:#000072"/><path d="M432.37,1647.23l-53.82,4a45.66,45.66,0,0,0-42.12,42.12l-4,53.81-4-53.81a45.66,45.66,0,0,0-42.12-42.12l-53.81-4,53.81-4a45.66,45.66,0,0,0,42.12-42.12l4-53.82,4,53.82a45.67,45.67,0,0,0,42.12,42.12Z" transform="translate(-39.78 -40.37)" style="fill:#0c6cf2"/><path d="M2077.07,482.07l-61.64,4.63a52.3,52.3,0,0,0-48.25,48.24l-4.62,61.65-4.62-61.65a52.3,52.3,0,0,0-48.25-48.24l-61.64-4.63,61.64-4.62a52.3,52.3,0,0,0,48.25-48.24l4.62-61.65,4.62,61.65a52.3,52.3,0,0,0,48.25,48.24Z" transform="translate(-39.78 -40.37)" style="fill:#0c6cf2"/><path d="M256.2,798.9,223,801.39a28.2,28.2,0,0,0-26,26l-2.49,33.23L192,827.39a28.19,28.19,0,0,0-26-26l-33.23-2.49L166,796.41a28.2,28.2,0,0,0,26-26l2.49-33.22L197,770.4a28.21,28.21,0,0,0,26,26Z" transform="translate(-39.78 -40.37)" style="fill:#0c6cf2"/></svg>