<svg id="Layer_1" data-name="Layer 1" xmlns="http://www.w3.org/2000/svg" viewBox="0 0 77.86 77.86"><title>gift</title><path d="M50,13.48A38.93,38.93,0,1,0,88.93,52.41,38.93,38.93,0,0,0,50,13.48ZM48.27,79.85H27.46V59.05H48.27Zm0-31.71v7.44H24V41.71H48.27Zm.92-9a2.56,2.56,0,0,1-2.56-2.55v-.17a2.51,2.51,0,0,1,.51-1.52c-1.17-1.2-7.3-7.1-9.92-3.41-2.91,4.09,6.57,7.86,6.57,7.86-15.83-.16-12.17-10-8.72-13.08s5-.43,5-.43l7.67,8.48a2.5,2.5,0,0,1,1.45-.46h2.16a2.5,2.5,0,0,1,1.45.46l7.66-8.48s1.56-2.69,5,.43,7.11,12.92-8.72,13.08c0,0,9.47-3.77,6.57-7.86-2.63-3.69-8.75,2.21-9.93,3.41a2.51,2.51,0,0,1,.51,1.52v.17a2.55,2.55,0,0,1-2.55,2.55ZM72.54,80H51.73V59.23H72.54ZM76,55.58H51.73V41.71H76Z" transform="translate(-11.07 -13.48)" style="fill:#fff"/></svg>