<svg id="Layer_1" data-name="Layer 1" xmlns="http://www.w3.org/2000/svg" viewBox="0 0 184.16 312.62"><title>logo</title><path d="M167.2,222.06l5.51-20.52c-5.19-19.32-25.08-93.6-29.75-110.26l29.75-51.47L157.65,13.76H131.29L80.72,94.91c12.51,48.2,47.14,181.65,59.67,227.36Z" transform="translate(-80.72 -13.76)" style="fill:#2b3990"/><path d="M187.78,13.76,172.71,39.81l29.76,51.47c-5.16,18.44-24.59,91.05-29.76,110.26,3.61,13.37,28,104.58,32,119.46L264.88,81.45,223,13.76Z" transform="translate(-80.72 -13.76)" style="fill:#5281c2"/><polygon points="76.93 0 92 26.05 107.06 0 76.93 0" style="fill:#2c5aa9"/><path d="M178.22,222.06l-5.51-20.52c-3.59,13.3-28.34,105.87-32.32,120.73l1.1,4.12h61.86L204.7,321Z" transform="translate(-80.72 -13.76)" style="fill:#2c5aa9"/></svg>