<svg id="Layer_1" data-name="Layer 1" xmlns="http://www.w3.org/2000/svg" viewBox="0 0 77.86 77.86"><title>open</title><path d="M63.17,54.87a29.63,29.63,0,0,0,.16,3.35h0A22.37,22.37,0,0,0,62,55.47l-1.67-2.95H58.19v8h1.67V58.14c0-1.32,0-2.45-.07-3.51h0a31.21,31.21,0,0,0,1.4,2.84l1.71,3.1h1.91v-8H63.17Z" transform="translate(-11.07 -11.07)" style="fill:#fff"/><path d="M50,11.07A38.93,38.93,0,1,0,88.93,50,38.93,38.93,0,0,0,50,11.07ZM80.56,43.34V70a5.68,5.68,0,0,1-5.68,5.68H25.12A5.68,5.68,0,0,1,19.44,70V43.34a5.67,5.67,0,0,1,5.68-5.67h5.13l15-10.21s0,0,0-.05a3.07,3.07,0,0,1,6.14-.11L68.79,37.67h6.09A5.67,5.67,0,0,1,80.56,43.34Z" transform="translate(-11.07 -11.07)" style="fill:#fff"/><path d="M27.42,39.68a5.75,5.75,0,0,0-5.88,5.6V68.21a5.75,5.75,0,0,0,5.88,5.6H72.75a5.75,5.75,0,0,0,5.88-5.6V45.28a5.75,5.75,0,0,0-5.88-5.6Zm49.79,5.6V68.21a4.33,4.33,0,0,1-4.46,4.18H27.42A4.33,4.33,0,0,1,23,68.21V45.28a4.33,4.33,0,0,1,4.46-4.18H72.75A4.33,4.33,0,0,1,77.21,45.28Z" transform="translate(-11.07 -11.07)" style="fill:#fff"/><polygon points="42.31 46.09 45.26 46.09 45.26 44.61 42.31 44.61 42.31 42.94 45.44 42.94 45.44 41.45 40.48 41.45 40.48 49.49 45.61 49.49 45.61 48 42.31 48 42.31 46.09" style="fill:#fff"/><path d="M50.55,29.54a3.05,3.05,0,0,1-2.2.94,3.1,3.1,0,0,1-2.09-.82l-11.81,8H64.18Z" transform="translate(-11.07 -11.07)" style="fill:#fff"/><path d="M39.07,52.39a3.89,3.89,0,0,0-3.91,4.21c0,2.29,1.39,4.09,3.78,4.09s3.94-1.6,3.94-4.24A3.74,3.74,0,0,0,39.07,52.39Zm0,6.85c-1.21,0-2-1.1-2-2.68s.71-2.73,1.94-2.73S41,55.07,41,56.51,40.26,59.24,39,59.24Z" transform="translate(-11.07 -11.07)" style="fill:#fff"/><path d="M49.26,53.1a3.9,3.9,0,0,0-2.45-.64,14.35,14.35,0,0,0-2.46.17v7.93h1.8V57.68a4.5,4.5,0,0,0,3.23-.81A2.55,2.55,0,0,0,50.12,55,2.38,2.38,0,0,0,49.26,53.1Zm-2.5,3.22a3.3,3.3,0,0,1-.61,0V53.9a3.44,3.44,0,0,1,.75-.07c.91,0,1.42.44,1.42,1.18S47.72,56.32,46.76,56.32Z" transform="translate(-11.07 -11.07)" style="fill:#fff"/></svg>