<?xml version="1.0" encoding="utf-8"?>
<!-- Generator: Adobe Illustrator 24.0.0, SVG Export Plug-In . SVG Version: 6.00 Build 0)  -->
<svg version="1.1" id="Layer_1" xmlns="http://www.w3.org/2000/svg" xmlns:xlink="http://www.w3.org/1999/xlink" x="0px" y="0px"
	 viewBox="0 0 254 247" style="enable-background:new 0 0 254 247;" xml:space="preserve">
<style type="text/css">
	.st0{clip-path:url(#SVGID_2_);}
	.st1{fill:#D8EBFD;}
	.st2{fill:#0C6CF2;}
	.st3{fill:#FFFFFF;}
	.st4{clip-path:url(#SVGID_4_);}
</style>
<g>
	<defs>
		<rect id="SVGID_1_" width="254" height="246.6"/>
	</defs>
	<clipPath id="SVGID_2_">
		<use xlink:href="#SVGID_1_"  style="overflow:visible;"/>
	</clipPath>
	<g class="st0">
		<path class="st1" d="M235.9,130.1h2.2c0.4-25.3-7.3-50-22-70.5l-1.7,1.5c8.3,11.7,14.4,24.8,18,38.6
			C234.9,109.6,236.1,119.8,235.9,130.1z"/>
		<path class="st1" d="M221.2,184.7c-10.6,18.9-26.3,34.5-45.3,45l0.9,2c19.4-10.7,35.5-26.6,46.3-46
			C222.5,185.4,221.8,185,221.2,184.7z"/>
		<path class="st1" d="M25.8,198.2c-6.9-9.1-12.4-19.2-16.4-29.9c-5-13.4-7.4-27.6-7.2-41.9L0,126.1c-0.3,14.7,2.2,29.2,7.3,43
			c4.1,11,9.8,21.4,17,30.7C24.8,199.3,25.3,198.7,25.8,198.2z"/>
		<path class="st1" d="M129.9,243.9c-19.8,1.9-39.8-1.4-58-9.4c-0.4,0.6-0.8,1.3-1.3,1.9c18.7,8.3,39.3,11.7,59.7,9.7L129.9,243.9z"
			/>
		<path class="st1" d="M46.9,236.4c-3.4,0-6.8-1.1-9.6-3c-2.8-1.9-5.1-4.6-6.4-7.8c-1.3-3.2-1.6-6.7-1-10c0.7-3.4,2.3-6.5,4.8-8.9
			c2.4-2.4,5.5-4.1,8.9-4.7c3.4-0.7,6.9-0.3,10,1c3.2,1.3,5.9,3.6,7.8,6.4c1.9,2.9,2.9,6.2,2.9,9.7c0,4.6-1.9,9.1-5.2,12.3
			C55.9,234.5,51.5,236.4,46.9,236.4z M46.9,203.1c-3.1,0-6.2,1-8.8,2.7c-2.6,1.7-4.6,4.2-5.8,7.1c-1.2,2.9-1.5,6.1-0.9,9.1
			c0.6,3.1,2.1,5.9,4.3,8.1c2.2,2.2,5,3.7,8.1,4.3c3.1,0.6,6.2,0.3,9.1-0.9c2.9-1.2,5.3-3.2,7.1-5.8c1.7-2.6,2.7-5.7,2.7-8.8
			c0-4.2-1.7-8.2-4.7-11.2C55.1,204.8,51.1,203.1,46.9,203.1z"/>
		<path class="st1" d="M139.3,11.5c-8-1.4-16.1-1.9-24.3-1.6c0.2,0.7,0.4,1.5,0.5,2.2c22.3-0.7,44.4,5,63.6,16.4l1.3-1.8
			C167.8,19.1,153.9,14,139.3,11.5z"/>
		<path class="st1" d="M58.2,26.4c-8,4.7-15.5,10.4-22.2,16.9C25.5,53.5,16.9,65.5,10.8,78.9l2.1,0.7C22.7,58.3,38.8,40.5,59,28.5
			C58.7,27.8,58.4,27.1,58.2,26.4z"/>
		<path class="st1" d="M86.4,34.8c-3.4,0-6.8-1.1-9.7-3s-5.1-4.7-6.4-7.8c-1.3-3.2-1.6-6.7-1-10.1c0.7-3.4,2.3-6.5,4.8-8.9
			c2.4-2.4,5.5-4.1,8.9-4.7S90,0,93.2,1.3c3.2,1.3,5.9,3.6,7.8,6.4c1.9,2.9,2.9,6.2,2.9,9.7c0,4.6-1.9,9.1-5.1,12.3
			C95.5,33,91,34.8,86.4,34.8z M86.4,1.6c-3.1,0-6.2,1-8.8,2.7C75,6.1,73,8.5,71.8,11.4c-1.2,2.9-1.5,6.1-0.9,9.1
			c0.6,3.1,2.1,5.9,4.4,8.1s5,3.7,8.1,4.3s6.2,0.3,9.1-0.9c2.9-1.2,5.4-3.2,7.1-5.8c1.7-2.6,2.7-5.7,2.7-8.8c0-4.2-1.7-8.2-4.7-11.2
			C94.6,3.3,90.6,1.6,86.4,1.6z"/>
		<path class="st1" d="M188.8,84.2c-0.4,0.3-0.8,0.6-1.2,0.8c8.3,12.3,12.9,26.8,13.3,41.6l1.5,0.1c-0.3-10-2.5-19.9-6.4-29.1
			C194,92.9,191.6,88.4,188.8,84.2z"/>
		<path class="st1" d="M159.6,57.7c-6.3-3.4-13.1-5.9-20.1-7.6c-9.8-2.3-20-2.8-30-1.3l0.4,1.5c16.8-2.3,34,0.7,49,8.8
			C159,58.6,159.3,58.1,159.6,57.7z"/>
		<path class="st1" d="M177,83.1c-3,0-5.9-1-8.4-2.6c-2.5-1.7-4.4-4.1-5.6-6.9c-1.1-2.8-1.4-5.9-0.8-8.8c0.6-2.9,2.1-5.7,4.2-7.8
			c2.1-2.1,4.9-3.6,7.8-4.1c3-0.6,6-0.3,8.8,0.9c2.8,1.2,5.2,3.1,6.8,5.6s2.6,5.5,2.6,8.5c0,2-0.4,4-1.2,5.9s-1.9,3.5-3.4,5
			c-1.4,1.4-3.1,2.5-5,3.3C181,82.8,179,83.2,177,83.1z M177,54.2c-2.7,0-5.3,0.9-7.5,2.4c-2.2,1.5-4,3.7-5,6.2
			c-1,2.5-1.3,5.2-0.7,7.9c0.5,2.6,1.9,5.1,3.8,7c1.9,1.9,4.4,3.2,7,3.7c2.6,0.5,5.4,0.2,7.9-0.8c2.5-1,4.6-2.8,6.1-5
			c1.5-2.2,2.3-4.9,2.3-7.6c0-1.8-0.4-3.6-1.1-5.3c-0.7-1.7-1.7-3.2-3-4.4c-1.3-1.3-2.8-2.3-4.5-3C180.6,54.5,178.8,54.2,177,54.2z"
			/>
		<path class="st1" d="M134.3,207.3c-17.6,3-35.6,0-51.3-8.4l-0.8,1.3c8.9,4.8,18.6,7.8,28.6,9c8,1,16.2,0.8,24.1-0.6
			C134.7,208.3,134.5,207.8,134.3,207.3z"/>
		<path class="st1" d="M195,158.9c-3.7,9.1-9.1,17.4-15.8,24.5c-2.6,2.7-5.3,5.2-8.2,7.6c0.3,0.4,0.5,0.9,0.7,1.3
			c11-8.6,19.5-20,24.8-33L195,158.9z"/>
		<path class="st1" d="M41.1,133.9c-0.5,0-1-0.1-1.5-0.2c0.4,6.4,1.5,12.7,3.3,18.8c2.9,9.6,7.6,18.6,13.8,26.5l1.1-1.1
			C47.9,165.3,42.1,149.9,41.1,133.9L41.1,133.9z"/>
		<path class="st1" d="M78.2,59.9c-8.6,5.2-16.1,12-22.1,20c-3.3,4.4-6.2,9.2-8.6,14.2c0.5,0.1,1,0.2,1.5,0.4
			c6.5-13.8,16.9-25.3,29.9-33.3L78.2,59.9z"/>
		<path class="st1" d="M42.9,129.1c-3,0-6-0.9-8.5-2.6c-2.5-1.7-4.4-4.1-5.6-6.9c-1.1-2.8-1.4-5.9-0.8-8.8c0.6-3,2.1-5.7,4.2-7.8
			s4.9-3.6,7.8-4.2c3-0.6,6-0.3,8.8,0.9c2.8,1.2,5.2,3.1,6.8,5.6c1.7,2.5,2.6,5.5,2.6,8.5c0,4.1-1.6,7.9-4.5,10.8
			C50.9,127.5,47,129.1,42.9,129.1z M42.9,100.2c-2.7,0-5.3,0.8-7.6,2.3c-2.2,1.5-4,3.7-5,6.2c-1,2.5-1.3,5.2-0.7,7.9
			c0.5,2.6,1.8,5.1,3.8,7c1.9,1.9,4.4,3.2,7,3.7c2.7,0.5,5.4,0.2,7.9-0.8c2.5-1,4.6-2.8,6.1-5c1.5-2.2,2.3-4.9,2.3-7.6
			c0-3.6-1.5-7.1-4.1-9.7C50.1,101.6,46.6,100.2,42.9,100.2z"/>
		<path class="st1" d="M236.5,176.9c-3.4,0-6.8-1.1-9.7-3c-2.9-1.9-5.1-4.6-6.4-7.8c-1.3-3.2-1.6-6.7-1-10.1
			c0.7-3.4,2.3-6.5,4.8-8.9c2.4-2.4,5.5-4.1,8.9-4.7c3.4-0.7,6.9-0.3,10.1,1c3.2,1.3,5.9,3.6,7.8,6.4c1.9,2.9,2.9,6.2,2.9,9.7
			c0,4.6-1.9,9.1-5.1,12.3C245.6,175.1,241.1,176.9,236.5,176.9z M236.5,143.7c-3.1,0-6.2,1-8.8,2.7c-2.6,1.7-4.6,4.2-5.8,7.1
			c-1.2,2.9-1.5,6.1-0.9,9.1c0.6,3.1,2.1,5.9,4.4,8.1c2.2,2.2,5,3.7,8.1,4.3c3.1,0.6,6.2,0.3,9.1-0.9c2.9-1.2,5.4-3.2,7.1-5.8
			c1.7-2.6,2.7-5.7,2.7-8.8c0-4.2-1.7-8.2-4.7-11.2C244.7,145.3,240.7,143.7,236.5,143.7z"/>
		<path class="st1" d="M153.6,216.1c-3,0-6-0.9-8.5-2.6c-2.5-1.7-4.5-4.1-5.6-6.9c-1.1-2.8-1.4-5.9-0.8-8.8c0.6-3,2.1-5.7,4.2-7.8
			c2.1-2.1,4.9-3.6,7.8-4.2c3-0.6,6-0.3,8.8,0.9c2.8,1.2,5.2,3.1,6.8,5.6c1.7,2.5,2.6,5.5,2.6,8.5c0,4.1-1.6,7.9-4.5,10.8
			C161.6,214.5,157.7,216.1,153.6,216.1z M153.6,187.2c-2.7,0-5.3,0.8-7.6,2.3s-4,3.7-5,6.2c-1,2.5-1.3,5.3-0.8,7.9
			c0.5,2.6,1.8,5.1,3.8,7c1.9,1.9,4.4,3.2,7,3.7c2.7,0.5,5.4,0.2,7.9-0.8c2.5-1,4.6-2.8,6.1-5c1.5-2.3,2.3-4.9,2.3-7.6
			c0-3.6-1.5-7.1-4-9.7C160.8,188.6,157.3,187.2,153.6,187.2z"/>
		<circle class="st2" cx="122.5" cy="128.3" r="32"/>
		<path class="st3" d="M135,118.5h-22.3c-0.5,0-0.9-0.4-0.9-1c0-0.5,0.4-1,0.9-1h22.5c0.5,0,0.9-0.4,0.9-1c0-1.6-1.3-2.9-2.8-2.9
			h-21.6c-2.1,0-3.8,1.8-3.8,3.9v19.6c0,2.2,1.7,3.9,3.8,3.9H135c1.6,0,3-1.3,3-2.9v-15.7C137.9,119.8,136.6,118.5,135,118.5z
			 M132.3,131.2c-1,0-1.9-0.9-1.9-2c0-1.1,0.8-2,1.9-2c1,0,1.9,0.9,1.9,2C134.2,130.3,133.3,131.2,132.3,131.2z"/>
		<g>
			<defs>
				<rect id="SVGID_3_" x="78.9" y="143" width="32" height="32"/>
			</defs>
			<clipPath id="SVGID_4_">
				<use xlink:href="#SVGID_3_"  style="overflow:visible;"/>
			</clipPath>
			<g class="st4">
				<path d="M94.9,175c8.8,0,16-7.2,16-16c0-8.8-7.2-16-16-16c-8.8,0-16,7.2-16,16C78.9,167.8,86.1,175,94.9,175z"/>
				<path class="st3" d="M88.7,166l2.3-4l2.3-4l2.3-4l0.4-0.6l0.2,0.6l0.7,2.6l-0.8,1.4l-2.3,4l-2.3,4h2.8l2.3-4l1.2-2.1l0.6,2.1
					l1.1,4h2.5l-1.1-4l-1.1-4l-0.3-1l1.7-3h-2.5l-0.1-0.3l-0.9-3.3l-0.1-0.4h-2.4l-0.1,0.1l-2.3,3.9l-2.3,4l-2.3,4l-2.3,4H88.7z"/>
			</g>
		</g>
	</g>
</g>
</svg>
