<svg id="Layer_1" data-name="Layer 1" xmlns="http://www.w3.org/2000/svg" viewBox="0 0 4673.68 1594.76"><title>shop</title><path d="M-2055.65-1505.32C-2190-1505.32-2299-1396.38-2299-1262s108.94,243.32,243.32,243.32,243.33-108.94,243.33-243.32S-1921.26-1505.32-2055.65-1505.32Zm-10.83,414.84h-130v-130h130Zm0-198.18v46.48h-151.7v-86.69h151.7Zm5.76-56.14a16,16,0,0,1-16-16v-1a15.89,15.89,0,0,1,3.17-9.52c-7.34-7.45-45.62-44.33-62-21.26-18.17,25.57,41,49.11,41,49.11-98.91-1-76-62.24-54.5-81.75s31.29-2.69,31.29-2.69l47.89,53a15.88,15.88,0,0,1,9.08-2.84h13.5a15.85,15.85,0,0,1,9.07,2.85l47.9-53s9.75-16.82,31.28,2.69,44.42,80.75-54.5,81.75c0,0,59.22-23.54,41-49.11-16.39-23.07-54.66,13.8-62,21.26a15.87,15.87,0,0,1,3.17,9.52v1a16,16,0,0,1-16,16Zm145.94,255.47h-130v-130h130Zm21.67-152.85h-151.7v-86.69h151.7Z" transform="translate(2298.97 1505.32)" style="fill:#fff"/><path d="M2131.38-1018.67c134.38,0,243.32-108.94,243.32-243.32s-108.94-243.33-243.32-243.33S1888.05-1396.38,1888.05-1262,1997-1018.67,2131.38-1018.67ZM2121-1418a10.35,10.35,0,0,1,10.35-10.35,10.34,10.34,0,0,1,10.34,10.35v161.34a10.34,10.34,0,0,1-10.34,10.35,10.35,10.35,0,0,1-10.35-10.35Zm-175.86,158.39a25.94,25.94,0,0,1,25.94-25.93h144v12.3a22.68,22.68,0,0,0-6.45,15.84,22.71,22.71,0,0,0,22.71,22.71,22.71,22.71,0,0,0,22.71-22.71,22.68,22.68,0,0,0-6.45-15.84v-12.3h144a25.93,25.93,0,0,1,25.93,25.93,25.93,25.93,0,0,1-25.93,25.93h-2.31l-53.67,138.06H2032.54l-59.12-138.06h-2.31A25.94,25.94,0,0,1,1945.17-1259.62Z" transform="translate(2298.97 1505.32)" style="fill:#fff"/><path d="M-902-1134a3.07,3.07,0,0,0-2.72,1.72,2.27,2.27,0,0,0-.2,1c0,2.21,1.11,4,3.13,4,1.64,0,2.69-1.41,2.69-3.41S-900.12-1134-902-1134Z" transform="translate(2298.97 1505.32)" style="fill:#fff"/><path d="M-943.52-1132.73a3,3,0,0,0-2.46,2.93,2.62,2.62,0,0,0,2.79,2.69,2.52,2.52,0,0,0,2.77-2.49C-940.42-1131.29-941.67-1132.22-943.52-1132.73Z" transform="translate(2298.97 1505.32)" style="fill:#fff"/><path d="M-929.57-1139.78c-1.59,0-2.74,1.41-2.74,3.44,0,1.71,1,3,2.74,3a3,3,0,0,0,2.7-1.39,1.89,1.89,0,0,0,.18-.89C-926.67-1137.83-927.52-1139.78-929.57-1139.78Z" transform="translate(2298.97 1505.32)" style="fill:#fff"/><path d="M-860.82-1139.78c-1.59,0-2.75,1.41-2.75,3.44,0,1.71,1,3,2.75,3a3,3,0,0,0,2.69-1.39,1.89,1.89,0,0,0,.18-.89C-857.92-1137.83-858.77-1139.78-860.82-1139.78Z" transform="translate(2298.97 1505.32)" style="fill:#fff"/><path d="M-737.09-1139.78c-1.59,0-2.74,1.41-2.74,3.44,0,1.71,1,3,2.74,3a3,3,0,0,0,2.7-1.39,2,2,0,0,0,.17-.89C-734.19-1137.83-735-1139.78-737.09-1139.78Z" transform="translate(2298.97 1505.32)" style="fill:#fff"/><path d="M-859.35-1505.32c-134.39,0-243.33,108.94-243.33,243.33s108.94,243.32,243.33,243.32S-616-1127.61-616-1262-725-1505.32-859.35-1505.32Zm52.19,104.41h10.49v248.79h-10.49Zm-98.4,0h11.78v248.79h-11.78Zm-42.38,0h23.54v248.79h-23.54Zm-24.89,0h10.74v248.79h-10.74Zm-30.24,277.83h-19.12v-277.83h19.12Zm11.71-277.83h10.77v248.79h-10.77Zm6.83,276c-3.85,0-5.91-3.48-5.93-8.56s2.21-8.67,6.1-8.67,5.9,3.58,5.9,8.51C-978.46-1128.24-980.56-1124.88-984.53-1124.88Zm14,0c-4,0-6.29-3.08-6.29-7.18a10.19,10.19,0,0,1,2.91-7.49,9.55,9.55,0,0,1,5.92-2.46,9.37,9.37,0,0,1,1.59-.06l0,2.47a14,14,0,0,0-1.62.07c-3.49.42-5.18,2.57-5.59,4.88h.07a4.8,4.8,0,0,1,3.75-1.62c2.87,0,5.11,2,5.11,5.44A5.8,5.8,0,0,1-970.48-1124.88Zm12.14,0a9.58,9.58,0,0,1-4.42-1l.64-2.39a8.38,8.38,0,0,0,3.67.88c1.85,0,3.62-1.06,3.62-3.06s-1.41-3.16-4.74-3.16a14.82,14.82,0,0,0-2.29.16l1.1-8.42h8.62v2.62h-6.41l-.49,3.34a8.66,8.66,0,0,1,1.21-.08,7.38,7.38,0,0,1,4.05,1.08,4.76,4.76,0,0,1,2.18,4.23C-951.6-1127.47-954.24-1124.88-958.34-1124.88Zm15.05,0c-3.9,0-5.92-2.23-5.92-4.56a4.61,4.61,0,0,1,3.12-4.34v-.08a4.06,4.06,0,0,1-2.53-3.69c0-2.72,2.41-4.56,5.56-4.56,3.6,0,5.24,2.15,5.24,4.2a4.18,4.18,0,0,1-2.57,3.77v.08a4.48,4.48,0,0,1,3.18,4.2C-937.21-1126.88-939.72-1124.88-943.29-1124.88Zm16.93-2.39a9.1,9.1,0,0,1-5.7,2.29,11.43,11.43,0,0,1-1.89,0v-2.49a7.58,7.58,0,0,0,1.74,0,6.34,6.34,0,0,0,3.39-1.28,6.21,6.21,0,0,0,2.13-3.69l0,0a4.63,4.63,0,0,1-3.65,1.49,4.93,4.93,0,0,1-5.05-5.19,5.9,5.9,0,0,1,6-5.94c3.87,0,5.95,3,5.95,7.1A10.29,10.29,0,0,1-926.36-1127.27Zm16.19,2.11h-11.32v-1.92l2-1.83c3.93-3.64,5.78-5.64,5.8-7.85,0-1.49-.79-2.79-3-2.79a6.11,6.11,0,0,0-3.57,1.38l-.92-2.23a8.29,8.29,0,0,1,5.13-1.71c3.7,0,5.49,2.33,5.49,5,0,2.92-2.1,5.28-5,8l-1.47,1.25v0h6.86Zm8.43.28c-4,0-6.28-3.08-6.28-7.18a10.19,10.19,0,0,1,2.9-7.49,9.6,9.6,0,0,1,5.92-2.46,9.37,9.37,0,0,1,1.59-.06l0,2.47a14,14,0,0,0-1.62.07c-3.48.42-5.18,2.57-5.59,4.88h.08a4.8,4.8,0,0,1,3.74-1.62c2.88,0,5.11,2,5.11,5.44A5.8,5.8,0,0,1-901.74-1124.88Zm19.06-.28H-894v-1.92l2-1.83c3.93-3.64,5.78-5.64,5.8-7.85,0-1.49-.79-2.79-3-2.79a6.11,6.11,0,0,0-3.57,1.38l-.92-2.23a8.27,8.27,0,0,1,5.13-1.71c3.69,0,5.49,2.33,5.49,5,0,2.92-2.1,5.28-5,8l-1.47,1.25v0h6.85Zm10.44,0h-3V-1139h-.05l-3,1.54-.55-2.38,4.06-2h2.64Zm14.62-2.11a9.09,9.09,0,0,1-5.69,2.29,11.57,11.57,0,0,1-1.9,0v-2.49a7.56,7.56,0,0,0,1.74,0,6.28,6.28,0,0,0,3.39-1.28,6.16,6.16,0,0,0,2.13-3.69l0,0a4.62,4.62,0,0,1-3.64,1.49,4.94,4.94,0,0,1-5.06-5.19,5.91,5.91,0,0,1,6-5.94c3.88,0,5.95,3,5.95,7.1A10.29,10.29,0,0,1-857.62-1127.27Zm9.26,2.39a9.53,9.53,0,0,1-4.41-1l.64-2.39a8.38,8.38,0,0,0,3.67.88c1.84,0,3.62-1.06,3.62-3.06s-1.41-3.16-4.75-3.16a14.68,14.68,0,0,0-2.28.16l1.1-8.42h8.62v2.62h-6.41l-.49,3.34a8.61,8.61,0,0,1,1.2-.08,7.39,7.39,0,0,1,4.06,1.08,4.76,4.76,0,0,1,2.18,4.23C-841.61-1127.47-844.25-1124.88-848.36-1124.88Zm15.37,0c-4.06,0-6.29-3.08-6.29-7.18a10.19,10.19,0,0,1,2.9-7.49,9.6,9.6,0,0,1,5.93-2.46,9.35,9.35,0,0,1,1.59-.06l0,2.47a13.85,13.85,0,0,0-1.61.07c-3.49.42-5.19,2.57-5.6,4.88h.08a4.8,4.8,0,0,1,3.74-1.62c2.88,0,5.11,2,5.11,5.44A5.79,5.79,0,0,1-833-1124.88Zm6.26-27.24h-48.8v-248.79h48.8Zm12.79,27h-11.31v-1.92l2-1.83c3.93-3.64,5.78-5.64,5.8-7.85,0-1.49-.79-2.79-3-2.79a6.11,6.11,0,0,0-3.57,1.38l-.92-2.23a8.29,8.29,0,0,1,5.13-1.71c3.7,0,5.49,2.33,5.49,5,0,2.92-2.1,5.28-5,8l-1.46,1.25v0h6.84Zm7,.28a9.14,9.14,0,0,1-4.67-1.15l.72-2.39a8.19,8.19,0,0,0,3.8,1c2.41,0,3.39-1.36,3.36-2.67,0-2-1.85-2.82-3.77-2.82h-1.46v-2.31h1.41c1.46,0,3.3-.67,3.3-2.34,0-1.13-.84-2.07-2.67-2.07a6.7,6.7,0,0,0-3.4,1l-.72-2.28a9,9,0,0,1,4.8-1.28c3.43,0,5.2,1.89,5.2,4.07a4.06,4.06,0,0,1-3.08,3.9v.05a4.21,4.21,0,0,1,3.67,4.16C-800.42-1127.11-802.78-1124.88-806.91-1124.88Zm20.47-.28h-11.31v-1.92l2-1.83c3.93-3.64,5.77-5.64,5.8-7.85,0-1.49-.79-2.79-3-2.79a6.08,6.08,0,0,0-3.57,1.38l-.93-2.23a8.3,8.3,0,0,1,5.14-1.71c3.69,0,5.49,2.33,5.49,5,0,2.92-2.11,5.28-5,8l-1.46,1.25v0h6.85Zm6.82.28a9.56,9.56,0,0,1-4.41-1l.64-2.39a8.38,8.38,0,0,0,3.67.88c1.85,0,3.62-1.06,3.62-3.06s-1.41-3.16-4.75-3.16a14.68,14.68,0,0,0-2.28.16l1.1-8.42h8.62v2.62h-6.41l-.49,3.34a8.55,8.55,0,0,1,1.21-.08,7.38,7.38,0,0,1,4.05,1.08,4.76,4.76,0,0,1,2.18,4.23C-772.87-1127.47-775.51-1124.88-779.62-1124.88Zm8.47-27.24h-10.5v-248.79h10.5Zm6.9,27.24c-4.06,0-6.29-3.08-6.29-7.18a10.23,10.23,0,0,1,2.9-7.49,9.6,9.6,0,0,1,5.93-2.46,9.37,9.37,0,0,1,1.59-.06l0,2.47a13.92,13.92,0,0,0-1.62.07c-3.49.42-5.19,2.57-5.6,4.88h.08a4.8,4.8,0,0,1,3.75-1.62c2.87,0,5.1,2,5.1,5.44A5.79,5.79,0,0,1-764.25-1124.88Zm15.75-.28h-3V-1139h-.05l-3.06,1.54-.54-2.38,4.06-2h2.64Zm.11-275.75h16v248.79h-16Zm14.51,273.64a9.14,9.14,0,0,1-5.7,2.29,11.57,11.57,0,0,1-1.9,0v-2.49a7.65,7.65,0,0,0,1.75,0,6.34,6.34,0,0,0,3.39-1.28,6.15,6.15,0,0,0,2.12-3.69l0,0a4.61,4.61,0,0,1-3.64,1.49,4.93,4.93,0,0,1-5.05-5.19,5.9,5.9,0,0,1,6-5.94c3.88,0,6,3,6,7.1A10.29,10.29,0,0,1-733.88-1127.27Zm37.36,4.19h-21.85v-277.83h21.85Z" transform="translate(2298.97 1505.32)" style="fill:#fff"/><path d="M-764.48-1134a3.06,3.06,0,0,0-2.72,1.72,2.13,2.13,0,0,0-.21,1c0,2.21,1.1,4,3.13,4,1.65,0,2.7-1.41,2.7-3.41S-762.63-1134-764.48-1134Z" transform="translate(2298.97 1505.32)" style="fill:#fff"/><path d="M-833.23-1134a3.06,3.06,0,0,0-2.71,1.72,2.13,2.13,0,0,0-.21,1c0,2.21,1.1,4,3.13,4,1.64,0,2.69-1.41,2.69-3.41S-831.38-1134-833.23-1134Z" transform="translate(2298.97 1505.32)" style="fill:#fff"/><path d="M-942.9-1135.06a2.71,2.71,0,0,0,2.07-2.52,2.23,2.23,0,0,0-2.38-2.36,2.22,2.22,0,0,0-2.42,2.26C-945.63-1136.32-944.5-1135.5-942.9-1135.06Z" transform="translate(2298.97 1505.32)" style="fill:#fff"/><path d="M-984.43-1139.71c-1.69,0-2.88,2.08-2.85,6.27s1.1,6.15,2.85,6.15,2.82-2.26,2.82-6.26S-982.53-1139.71-984.43-1139.71Z" transform="translate(2298.97 1505.32)" style="fill:#fff"/><path d="M-970.71-1134a3.07,3.07,0,0,0-2.72,1.72,2.13,2.13,0,0,0-.21,1c.06,2.21,1.11,4,3.14,4,1.64,0,2.69-1.41,2.69-3.41S-968.86-1134-970.71-1134Z" transform="translate(2298.97 1505.32)" style="fill:#fff"/><path d="M-217.14-1127.48a11,11,0,0,0,11-11v-66.11a11,11,0,0,0-11-11,11,11,0,0,0-11,11v66.11A11,11,0,0,0-217.14-1127.48Z" transform="translate(2298.97 1505.32)" style="fill:#fff"/><path d="M-261.21-1127.48a11,11,0,0,0,11-11v-66.11a11,11,0,0,0-11-11,11,11,0,0,0-11,11v66.11A11,11,0,0,0-261.21-1127.48Z" transform="translate(2298.97 1505.32)" style="fill:#fff"/><path d="M-305.28-1127.48a11,11,0,0,0,11-11v-66.11a11,11,0,0,0-11-11,11,11,0,0,0-11,11v66.11A11,11,0,0,0-305.28-1127.48Z" transform="translate(2298.97 1505.32)" style="fill:#fff"/><path d="M-261.21-1018.67c134.39,0,243.33-108.94,243.33-243.32s-108.94-243.33-243.33-243.33S-504.54-1396.38-504.54-1262-395.6-1018.67-261.21-1018.67Zm47.58-398.71a10.35,10.35,0,0,1,13.95,4.42l64.3,123.82a10.35,10.35,0,0,1-4.42,14,10.29,10.29,0,0,1-4.75,1.17,10.37,10.37,0,0,1-9.2-5.59L-218-1403.43A10.35,10.35,0,0,1-213.63-1417.38ZM-383.1-1289.14-318.8-1413a10.35,10.35,0,0,1,13.95-4.42,10.35,10.35,0,0,1,4.41,14l-64.29,123.82a10.35,10.35,0,0,1-9.19,5.59,10.3,10.3,0,0,1-4.76-1.17A10.35,10.35,0,0,1-383.1-1289.14Zm-54.4,7.4a22,22,0,0,1,22-22h30l-5.48,10.56a19.24,19.24,0,0,0,8.2,25.9,19.38,19.38,0,0,0,8.85,2.16,19.14,19.14,0,0,0,17.05-10.36l14.67-28.26h165.91l14.68,28.26a19.14,19.14,0,0,0,17.06,10.36,19.33,19.33,0,0,0,8.84-2.16,19.24,19.24,0,0,0,8.2-25.9l-5.48-10.56h26a22,22,0,0,1,22,22v22a22,22,0,0,1-22,22l-22,132.22H-393.43l-22-132.22a22,22,0,0,1-22-22Z" transform="translate(2298.97 1505.32)" style="fill:#fff"/><path d="M-349.35-1127.48a11,11,0,0,0,11-11v-66.11a11,11,0,0,0-11-11,11,11,0,0,0-11,11v66.11A11,11,0,0,0-349.35-1127.48Z" transform="translate(2298.97 1505.32)" style="fill:#fff"/><path d="M-173.06-1127.48a11,11,0,0,0,11-11v-66.11a11,11,0,0,0-11-11,11,11,0,0,0-11,11v66.11A11,11,0,0,0-173.06-1127.48Z" transform="translate(2298.97 1505.32)" style="fill:#fff"/><path d="M336.94-1505.32c-134.39,0-243.33,108.94-243.33,243.33s108.94,243.32,243.33,243.32S580.26-1127.61,580.26-1262,471.32-1505.32,336.94-1505.32Zm-4.13,63.21c92.66,0,117.12,84.5,117.12,84.5l-14.08,1.48s-23-63.74-100.44-63.74S230.52-1345,230.52-1345h-9.64S240.16-1442.11,332.81-1442.11Zm52.74,360.23H197.26c0-22.56,8-43.59,21.65-61.3,21.1-27.26,55.89-46.6,96.34-51.48h0c2.14-.27,4.29-.51,6.47-.69v.69h24.36v-.91c49.29,3.13,91.34,27.59,112.61,62.23a97.84,97.84,0,0,1,14.85,51.46Zm91.06-206.79c-.74,23.72-30.39,19.27-30.39,19.27.62-1.44.38-8.28-.28-17.4,0,.62-.06,1.23-.1,1.86-.87,11.78-2,21.44-3.07,29.51a61,61,0,0,0,7.16-7s6.64-4.7,11.35,4.71c1.78,3.55-7.09,10.26-20.86,17.34-3.79,21.94-6.11,28.44,2.18,44.84,0,0-39.84,1.8-54.26-16.56a58,58,0,0,1-9.24,2A90.41,90.41,0,0,1,334-1198.08a90.56,90.56,0,0,1-51.53-16c-13,20.49-55.67,18.55-55.67,18.55,12.25-24.2,1.37-26.79-3.23-89.37h0a90.64,90.64,0,0,1-.6-25.74c4.74-34.53,18.81-57.13,35-71.92l.23-.21c29.45-26.74,65.8-27.79,65.8-27.79,38.36-5.5,67.54,7.62,87.26,27.91l0-.12s21.6,19.44,30.87,55c-1.36-12.7-2.51-22.43-2.51-22.43h18.53c17.34,6.45,18.53,20.76,18.53,20.76Z" transform="translate(2298.97 1505.32)" style="fill:#fff"/><path d="M337.14-1207.66c-18.83.43-23.11-6-23.11-6s-9-10.28,1.71-17.55,19.67-4.44,19.67-4.44,18.43,1,22.28,9.57a229.71,229.71,0,0,0,42.72-8.34c11.78-21,12.65-47.38,10.4-62-60.24-22.84-86.85-65.15-86.85-65.15-23.81,65.15-79.76,53-63.1,108,4.08,15.3,11,25.34,17.93,31.94a87.67,87.67,0,0,0,17.42,11,30.8,30.8,0,0,0,3.59,1.07c-.82-.13-1.6-.35-2.41-.51a86.53,86.53,0,0,0,36.56,8.14A86.58,86.58,0,0,0,386.89-1220c-10.55,2.8-20.68,4.69-29.2,5.07C357.69-1214.94,356-1208.09,337.14-1207.66Z" transform="translate(2298.97 1505.32)" style="fill:#fff"/><path d="M28.09,49.32a17,17,0,0,0,.81,3.27,69.84,69.84,0,0,0,7.79.07,16.34,16.34,0,0,0-.21-3.27A75.67,75.67,0,0,0,28.09,49.32Z" transform="translate(2298.97 1505.32)" style="fill:#fff"/><path d="M29.94,56.65a14.65,14.65,0,0,0,.74,3c2.17.07,4.34,0,6.51,0a11.1,11.1,0,0,0-.25-2.92C34.6,56.61,32.28,56.65,29.94,56.65Z" transform="translate(2298.97 1505.32)" style="fill:#fff"/><path d="M36.2,45.41A31.76,31.76,0,0,0,36,41.74c-3.27-.21-6.55-.07-9.86-.1a18.41,18.41,0,0,0,1,3.73C30.15,45.44,33.17,45.41,36.2,45.41Z" transform="translate(2298.97 1505.32)" style="fill:#fff"/><path d="M49.61,45.34c.1-1.21.21-2.46.21-3.67-3.27-.07-6.54,0-9.82,0a14.56,14.56,0,0,0,.25,3.73C43.38,45.41,46.48,45.44,49.61,45.34Z" transform="translate(2298.97 1505.32)" style="fill:#fff"/><path d="M53.39,11.57A38.93,38.93,0,1,0,92.32,50.5,38.93,38.93,0,0,0,53.39,11.57ZM23.21,37.83c14.09-.14,28.14,0,42.23-.07a2,2,0,0,1,2,2.7c-1.93,7.22-3.74,14.45-5.7,21.67a2.07,2.07,0,0,1-2.34,1.46H29.54A2.12,2.12,0,0,1,27.23,62c-1.85-7.08-3.59-14.23-5.41-21.31C21.4,39.54,21.9,37.94,23.21,37.83ZM35.49,79.52a4.62,4.62,0,0,1-2.28-8.93,4.61,4.61,0,0,1,5.94,3.35A4.68,4.68,0,0,1,35.49,79.52Zm22.12.07a4.68,4.68,0,0,1-4.55-5.3,4.62,4.62,0,0,1,9.18.43A4.68,4.68,0,0,1,57.61,79.59ZM83.86,39c-3.23.35-6.54-.08-9.78.21-2.63,9.35-5.16,18.71-7.72,28.1A2.19,2.19,0,0,1,64,69.1c-12.52,0-25,0-37.53,0-2.42.08-2.53-3.84-.07-3.87,12.17-.11,24.33.07,36.5-.07,2.77-9.43,5.15-19,7.86-28.46a1.79,1.79,0,0,1,1.81-1.36c3.67,0,7.33-.07,11,0C85.43,35.48,85.68,38.47,83.86,39Z" transform="translate(2298.97 1505.32)" style="fill:#fff"/><path d="M60,52.63c.78-.82.75-2.24,1-3.34-2.59,0-5.19-.11-7.75,0a13.69,13.69,0,0,0-.15,3.38C55.44,52.7,57.75,52.77,60,52.63Z" transform="translate(2298.97 1505.32)" style="fill:#fff"/><path d="M58.43,59.57a20.65,20.65,0,0,0,.78-2.89c-2.13,0-4.27-.07-6.43,0a16.18,16.18,0,0,0-.08,3C54.62,59.64,56.55,59.71,58.43,59.57Z" transform="translate(2298.97 1505.32)" style="fill:#fff"/><path d="M40.5,49.32a19.68,19.68,0,0,0,.18,3.27,42,42,0,0,0,8.47-.1,22.16,22.16,0,0,0,.17-3.06A66.56,66.56,0,0,0,40.5,49.32Z" transform="translate(2298.97 1505.32)" style="fill:#fff"/><path d="M62.09,45.37a18.66,18.66,0,0,0,1-3.7c-3.09-.07-6.18-.07-9.24,0-.08,1.21-.47,2.56-.08,3.7C56.51,45.41,59.32,45.44,62.09,45.37Z" transform="translate(2298.97 1505.32)" style="fill:#fff"/><path d="M41,56.65a10.08,10.08,0,0,0,.25,3c2.45,0,4.91,0,7.36,0,.07-1,.46-2.1,0-3C46.12,56.61,43.53,56.65,41,56.65Z" transform="translate(2298.97 1505.32)" style="fill:#fff"/></svg>