<?xml version="1.0" encoding="utf-8"?>
<!-- Generator: Adobe Illustrator 24.0.0, SVG Export Plug-In . SVG Version: 6.00 Build 0)  -->
<svg version="1.1" id="Layer_1" xmlns="http://www.w3.org/2000/svg" xmlns:xlink="http://www.w3.org/1999/xlink" x="0px" y="0px"
	 viewBox="0 0 662.4 720" style="enable-background:new 0 0 662.4 720;" xml:space="preserve">
<style type="text/css">
	.st0{fill:#FFFFFF;}
</style>
<title>shop</title>
<path class="st0" d="M381,506c6.1,0,11-4.9,11-11l0,0v-66.1c0-6.1-4.9-11-11-11s-11,4.9-11,11V495C370,501.1,375,506,381,506
	L381,506z"/>
<path class="st0" d="M337,506c6.1,0,11-4.9,11-11l0,0v-66.1c0-6.1-4.9-11-11-11s-11,4.9-11,11V495C326,501.1,330.9,506,337,506
	L337,506z"/>
<path class="st0" d="M292.9,506c6.1,0,11-4.9,11-11l0,0v-66.1c0-6.1-4.9-11-11-11s-11,4.9-11,11V495
	C281.9,501.1,286.8,506,292.9,506L292.9,506z"/>
<path class="st0" d="M337,614.8c134.4,0,243.3-108.9,243.3-243.3S471.4,128.2,337,128.2S93.6,237.1,93.6,371.5
	S202.6,614.8,337,614.8z M384.5,216.1c5.1-2.6,11.3-0.7,14,4.4l64.3,123.8c2.7,5.1,0.7,11.3-4.4,14c0,0,0,0-0.1,0
	c-1.5,0.8-3.1,1.2-4.8,1.2c-3.9,0-7.4-2.2-9.2-5.6l-64.3-123.9C377.5,225,379.5,218.8,384.5,216.1L384.5,216.1z M215.1,344.4
	l64.3-123.9c2.6-5.1,8.9-7.1,14-4.4c5.1,2.6,7.1,8.9,4.4,13.9c0,0,0,0,0,0.1l-64.3,123.8c-1.8,3.4-5.3,5.6-9.2,5.6
	c-1.7,0-3.3-0.4-4.8-1.2C214.4,355.7,212.4,349.5,215.1,344.4C215.1,344.4,215.1,344.4,215.1,344.4z M160.7,351.8
	c0-12.2,9.8-22,22-22l0,0h30l-5.5,10.6c-4.9,9.4-1.2,21,8.2,25.9c2.7,1.4,5.8,2.2,8.9,2.2c7.2,0,13.8-4,17-10.4l14.7-28.3h165.9
	l14.7,28.3c3.3,6.4,9.9,10.4,17.1,10.4c3.1,0,6.1-0.7,8.8-2.2c9.4-4.9,13.1-16.5,8.2-25.9l-5.5-10.6h26c12.2,0,22,9.8,22,22l0,0v22
	c0,12.2-9.8,22-22,22l0,0l-22,132.2H204.7l-22-132.2c-12.2,0-22-9.8-22-22l0,0L160.7,351.8z"/>
<path class="st0" d="M248.8,506c6.1,0,11-4.9,11-11l0,0v-66.1c0-6.1-4.9-11-11-11s-11,4.9-11,11V495
	C237.8,501.1,242.7,506,248.8,506L248.8,506z"/>
<path class="st0" d="M425.1,506c6.1,0,11-4.9,11-11l0,0v-66.1c0-6.1-4.9-11-11-11s-11,4.9-11,11V495C414.1,501.1,419,506,425.1,506
	L425.1,506z"/>
</svg>
