<svg id="Layer_1" data-name="Layer 1" xmlns="http://www.w3.org/2000/svg" viewBox="0 0 3031.32 3242.14"><title>shop_cart</title><g style="opacity:0.2"><ellipse cx="1773.1" cy="3114.24" rx="905.52" ry="127.9" style="fill:#000072"/></g><path d="M1735.69,1937.22s-77.31,68.93-207.37,117.22c-70.2,26.08-155.85,46.13-252.91,46C887.82,2100.13,765,1878.39,765,1878.39L880.13,1486.5c35.78,68.19,80.1,118.93,129.27,156,137.22,103.54,312.43,100.84,446.32,75.64,117.75-22.11,203.55-61.62,203.55-61.62l50.54,185.7Z" transform="translate(-76.06 -77.02)" style="fill:#8e8fb3"/><path d="M1709.81,1842.21c-111.53-25.64-201.73-69.71-254.09-124.08,117.75-22.11,203.55-61.62,203.55-61.62Z" transform="translate(-76.06 -77.02)" style="fill:#6c709e"/><path d="M2188,1835.89c-74.91,19.76-160.7,30.93-251.89,30.93-159.47,0-302.52-34.26-399.69-88.48,29.61-66.73,63.78-139,103-217.47l520.24-43C2137.15,1580.57,2158.67,1701,2188,1835.89Z" transform="translate(-76.06 -77.02)" style="fill:#7c7c7c"/><path d="M2303.88,1794.61c-51.47,24.17-113,43.29-181.09,55.79l-54.22-147.66s62.55,18.88,142.41,51.18C2240.3,1765.74,2272.06,1779.37,2303.88,1794.61Z" transform="translate(-76.06 -77.02)" style="fill:#7c7c7c"/><path d="M2170.83,1840.2c-70.74,17.06-150.41,26.62-234.73,26.62-137.36,0-262.47-25.39-356.6-67.06-49.85-126.43-33.28-168.59-33.28-168.59s732.56-61.38,751.83,32.69C2309.08,1717.6,2235,1765.05,2170.83,1840.2Z" transform="translate(-76.06 -77.02)" style="fill:#e8e8e8"/><path d="M1528.32,2054.44c-70.2,26.08-155.85,46.13-252.91,46C887.82,2100.13,765,1878.39,765,1878.39L880.13,1486.5c35.78,68.19,80.1,118.93,129.27,156,14.12,139.67,22.36,327.92,183,369,150.6,38.54,283-87.75,283-87.75Z" transform="translate(-76.06 -77.02)" style="fill:#6c709e"/><path d="M1057.62,2129.64" transform="translate(-76.06 -77.02)" style="fill:#9e9e9e"/><path d="M1276.12,2120.1h-.72c-205.31-.2-337.25-62.5-411.78-114.73-81.92-57.41-114.42-115-115.76-117.46l-4-7.17L875,1434.47l22.51,42.93c88.75,169.17,241.79,248,454.75,234.27,161.36-10.4,297.49-72.36,298.84-73a19.61,19.61,0,1,1,16.41,35.62c-5.81,2.68-144.17,65.65-312.72,76.5-209.12,13.49-370.25-60.66-468.7-214.93l-99.72,339.59c10.57,15.8,42,57.72,101.82,99.19,69.75,48.36,193.56,106,387.3,106.23h.67c265.92,0,444.73-156.72,446.51-158.3a19.61,19.61,0,1,1,26.1,29.27C1741,1958.73,1556.81,2120.1,1276.12,2120.1Z" transform="translate(-76.06 -77.02)" style="fill:#0c6cf2"/><path d="M1210.72,1674.54" transform="translate(-76.06 -77.02)" style="fill:none;stroke:#371a45;stroke-linecap:round;stroke-miterlimit:10;stroke-width:39.2192px"/><path d="M1057.62,2129.64" transform="translate(-76.06 -77.02)" style="fill:none;stroke:#371a45;stroke-linecap:round;stroke-miterlimit:10;stroke-width:39.2192px"/><path d="M943,2055.61l-76.1,7.55a29.22,29.22,0,0,1-32-26.2l-9.9-99.74-19.61-197.77-40.52-408.19-24.48-246.62a29.19,29.19,0,0,1,26.2-32l76.1-7.55a29.22,29.22,0,0,1,32,26.2l24.48,246.57,40.05,403.55,17.17,173.34,12.81,128.85A29.2,29.2,0,0,1,943,2055.61Z" transform="translate(-76.06 -77.02)" style="fill:#d3d3d3"/><path d="M956.38,1894.78c-28.44,8.58-63.36,9-88.51,9.64-22.36.52-35.36,16.47-42.85,32.8l-19.61-197.77c45.24-6.27,96.64-13.13,133.8-18Z" transform="translate(-76.06 -77.02)" style="fill:#afafaf"/><path d="M899.16,1317.89l-134.27,13.37-24.48-246.62a29.19,29.19,0,0,1,26.2-32l76.1-7.55a29.22,29.22,0,0,1,32,26.2Z" transform="translate(-76.06 -77.02)" style="fill:#afafaf"/><path d="M863.91,2082.92a48.88,48.88,0,0,1-48.52-44L720.87,1086.6a48.92,48.92,0,0,1,43.79-53.44l76.1-7.55a48.87,48.87,0,0,1,53.44,43.79l94.51,952.28a48.9,48.9,0,0,1-43.79,53.44l-76.09,7.55A48,48,0,0,1,863.91,2082.92ZM845.59,1064.59c-.31,0-.63,0-1,.05l-76.1,7.55a9.64,9.64,0,0,0-8.64,10.54L854.41,2035a9.61,9.61,0,0,0,3.48,6.5,9.43,9.43,0,0,0,7.06,2.13l76.1-7.55a9.65,9.65,0,0,0,8.64-10.54l-94.51-952.28A9.65,9.65,0,0,0,845.59,1064.59Z" transform="translate(-76.06 -77.02)" style="fill:#0c6cf2"/><path d="M1049.41,1641c-15,39.61-42.46,67-85.84,52.6C872.09,1663.23,909,1467.28,909,1467.28s34.07-20.89,72.41-18.73c23.14,1.33,47.85,11,67.6,38.73C1066.76,1512.18,1069.56,1587.68,1049.41,1641Z" transform="translate(-76.06 -77.02)" style="fill:#fff"/><path d="M1049.41,1641c-15,39.61-42.46,67-85.84,52.6C872.09,1663.23,909,1467.28,909,1467.28s34.07-20.89,72.41-18.73c13.68,21.47,32.85,64,39.22,139.38C1023.57,1622.44,1036.07,1637.1,1049.41,1641Z" transform="translate(-76.06 -77.02)" style="fill:#d3d4e2"/><path d="M986,1717.13a90.71,90.71,0,0,1-28.65-4.9c-104.72-34.82-71.73-226.79-67.62-248.57l1.61-8.54,7.41-4.54c35.68-21.87,116.33-44.73,166.23,25.32,27.82,39,24.41,152.66-15.69,206.93C1032.6,1705.45,1010.73,1717.13,986,1717.13Zm-59.31-237.06c-8.75,55.34-15.09,175.62,43,195,20.3,6.74,35.12,2,48-15.5,32.25-43.64,30.86-139,15.3-160.87C999.38,1451.37,946.32,1470.64,926.72,1480.07Z" transform="translate(-76.06 -77.02)" style="fill:#0c6cf2"/><path d="M985.28,1692.59c-1,40.64-5.14,72-11.57,83.25-36.08,63-110.05,56.42-141.63,55.93-15.29,30-7.59,119.38-7.59,119.38S716,1871.73,710,1719.51a336.23,336.23,0,0,1,.58-37.65c16.87-238.85,88-267.28,155.61-267.92,41.67-.39,91.13,26.91,103,84.22C982.15,1561.06,986.75,1635.82,985.28,1692.59Z" transform="translate(-76.06 -77.02)" style="fill:#fff"/><path d="M985.28,1692.59c-1,40.64-5.14,72-11.57,83.25-36.08,63-110.05,56.42-141.63,55.93-15.29,30-7.59,119.38-7.59,119.38S716,1871.73,710,1719.51C795,1760.59,939.45,1770.64,985.28,1692.59Z" transform="translate(-76.06 -77.02)" style="fill:#d3d4e2"/><path d="M847.74,1992.42,812.93,1967c-5.52-4-135-101-121.93-286.47,17.71-250.83,98.38-285.41,175-286.15H867c50.22,0,107.74,34.12,121.31,99.85,21.39,103.54,22.63,256,2.38,291.4-37,64.51-106.05,66.89-144.72,66.15-5.07,23.76-4.47,68.48-2,97.71Zm19.34-558.87h-.74c-41.47.4-118.67,1.14-136.21,249.69-7.6,107.65,38.82,181.39,72.7,220.16,0-28.61,2.3-61.94,11.77-80.52l5.55-10.89,12.22.19c2.2,0,4.6.09,7.17.16,43.22,1.13,91.46-1.43,117.14-46.26,10.18-17.78,17-149-6.75-264C940.18,1454.91,900.31,1433.55,867.08,1433.55Z" transform="translate(-76.06 -77.02)" style="fill:#0c6cf2"/><path d="M784.46,1828.61s24-2,47.61,3.18" transform="translate(-76.06 -77.02)" style="fill:#0c6cf2"/><path d="M783.63,1818.84c17.86-4.5,35-6.91,53.72-6.15,26.56,1.81,25.13,40.42-1.51,40.25-10.1-1.25-18-7.49-28.38-9.66a186.14,186.14,0,0,0-23-5c-10.54-1.7-11.06-16.89-.84-19.41Z" transform="translate(-76.06 -77.02)" style="fill:#0c6cf2"/><path d="M2175,2777.37c267.27,153.09,521.07,13.32,559.57-198.33,7.55-41.57,6.73-85.93-3.85-131.35a377.26,377.26,0,0,0-29.16-80.78c-11.74-24-23.77-48-35.46-72-40.85-84-77.42-167.72-83.86-245.91-3.08-37.09.62-73,13.95-107a119.47,119.47,0,0,1,32.48-45.76,128.93,128.93,0,0,1,57.73-29.16,110.9,110.9,0,0,1,28.1-2.4c60.19,2.55,114.8,57,92.77,192.79-30.89,190.77,176.53,250.43,252.74,86.84,3.36-7.26,6.4-14.91,9.24-22.9.91-2.79,1.87-5.63,2.79-8.47,47.58-152.32-10.06-416.08-245.38-471.37-10.78-2.6-22-4.66-33.59-6.3a417.09,417.09,0,0,0-46.81-4,373.24,373.24,0,0,0-81.8,6.64c-191.15,37.44-311.49,225.61-251.2,461.66,32.38,126.68,163.4,365.57,107.92,480.94-17.56,36.57-71.45,65-135.29,62-1.64-.05-3.33-.14-5-.24h-.05c-46-3.32-96.9-23-142.65-67.69Z" transform="translate(-76.06 -77.02)" style="fill:#8e8fb3"/><path d="M2175.05,2777.37c267.26,153.1,521.1,13.3,559.55-198.33-32.29,106.85-207,175.91-348.66,63.45-1.64,0-3.32-.13-5-.26h0c-46-3.32-96.9-23.05-142.65-67.68Z" transform="translate(-76.06 -77.02)" style="fill:#6c709e"/><path d="M2512.37,1984.71c11.74,142.14,109.63,262.56,153.74,310.17-40.83-84-77.39-167.73-83.86-245.9-3.07-37.12.65-73,14-107a118.61,118.61,0,0,1,32.46-45.75c24-21.15,55.64-32.93,85.85-31.59,60.17,2.54,114.77,57,92.76,192.8-30.91,190.78,176.53,250.43,252.71,86.84,3.37-7.25,6.43-14.93,9.24-22.91-38.33,28.78-134.14,78.21-187.24,19.16-74.71-83.09,27.07-221.79-71.09-324C2736.14,1738.71,2497.13,1800.41,2512.37,1984.71Z" transform="translate(-76.06 -77.02)" style="fill:#6c709e"/><path d="M2662.51,1797.38c1.88,2,26.13-4.33,25.45-1.68-2.84,11.6-8.08,35-1.54,71.35a1,1,0,0,1,.39,0,54.66,54.66,0,0,1,5.44-1c1.58-.28,3.17-.48,4.76-.67,1.25-.14,2.55-.29,3.85-.38,1.15-.1,2.36-.2,3.56-.25a100.08,100.08,0,0,1,10.1,0c60.19,2.55,114.8,57,92.77,192.79-30.89,190.77,176.53,250.43,252.74,86.84,3.36-7.26,6.4-14.91,9.24-22.9-38.35,28.77-134.15,78.19-187.26,19.15-74.72-83.09,27.08-221.8-71.07-324-31.22-32.47-91-40.65-149-25.79C2661.21,1793.78,2661.26,1796.08,2662.51,1797.38Z" transform="translate(-76.06 -77.02)" style="fill:#686868"/><path d="M2686.42,1867.05a110.9,110.9,0,0,1,28.1-2.4c60.19,2.55,114.8,57,92.77,192.79-30.89,190.77,176.53,250.43,252.74,86.84,3.36-7.26,6.4-14.91,9.24-22.9.91-2.79,1.87-5.63,2.79-8.47,47.58-152.32-10.06-416.08-245.38-471.37-10.78-2.6-22-4.66-33.59-6.3a417.09,417.09,0,0,0-46.81-4c-15.52,9.71-54.34,47.52-65.1,87.15-1.33,4.9,23.46-4.65,21.51.56-6.53,17.52-48.25,69.91-40.18,78.4,1.85,2,26.11-4.33,25.47-1.7C2685.15,1807.31,2679.87,1830.71,2686.42,1867.05Z" transform="translate(-76.06 -77.02)" style="fill:#fff"/><path d="M2662.51,1797.38c1.88,2,26.13-4.33,25.45-1.68-2.84,11.6-8.08,35-1.54,71.35a1,1,0,0,1,.39,0c1.83-.38,3.61-.72,5.44-1,1.58-.28,3.17-.48,4.76-.67,1.25-.14,2.55-.29,3.85-.38s2.4-.2,3.56-.25a100.08,100.08,0,0,1,10.1,0c60.19,2.55,114.8,57,92.77,192.79-30.89,190.77,176.53,250.43,252.74,86.84,3.36-7.26,6.4-14.91,9.24-22.9-38.35,28.77-134.15,78.19-187.26,19.15-74.72-83.09,27.08-221.8-71.07-324-31.22-32.47-91-40.65-149-25.79C2661.21,1793.78,2661.26,1796.08,2662.51,1797.38Z" transform="translate(-76.06 -77.02)" style="fill:#d3d4e2"/><path d="M2402.41,2861.68c-78.5,0-159.74-23-237.11-67.31a19.61,19.61,0,0,1,19.5-34c157.18,90.07,330.8,80.64,442.34-24,98.86-92.77,120.66-231,56.88-360.73q-6.64-13.5-13.36-27.05c-69.88-141.25-142.15-287.3-92.7-413.7,25-63.89,99.89-103.18,163.52-85.78,26.83,7.33,112.27,44.26,85.17,211.54-15,92.88,30.31,141.41,73.72,154.75,45.69,14.05,107.26-5.06,141.86-79.36,35.26-75.72,39.19-210.87-21.54-322.67-33.87-62.36-101.34-140.5-230.35-158.65C2675.12,1638.46,2569,1674,2499,1752.09c-76.28,85.2-100.61,210.09-66.75,342.65,9,35.17,26.32,80.58,44.67,128.66,49.31,129.21,105.21,275.66,62,365.6-16.59,34.5-57.77,61.39-107.46,70.17-72.39,12.8-147.81-12.92-206.93-70.54a19.61,19.61,0,1,1,27.37-28.09c50,48.71,112.93,70.59,172.73,60,36.91-6.52,67.9-25.58,79-48.55,35.93-74.73-19.07-218.83-63.26-334.62-18.77-49.16-36.49-95.59-46-132.93-37.15-145.44-9.62-283.41,75.53-378.52,78.81-88,197.65-128.14,326-110.09C2941,1636.26,3017,1724.32,3055.15,1794.6c60,110.49,69.33,257.68,22.64,358-44.57,95.7-127,119.34-188.95,100.29-63.09-19.39-118.75-88.29-100.9-198.51,14.76-91.09-6.48-153.69-56.8-167.44-44.43-12.13-98.93,16.95-116.65,62.24-43.14,110.26,25.22,248.41,91.32,382q6.74,13.59,13.41,27.15c70.58,143.58,45,303.2-65.24,406.62-58.15,54.57-132.59,87.45-215.28,95.1C2426.69,2861.13,2414.57,2861.68,2402.41,2861.68Z" transform="translate(-76.06 -77.02)" style="fill:#0c6cf2"/><path d="M2675,2201.36c-11,48.78-47.31,98.15-120,145.9q-15.3,10-32.75,19.95s53.54,148.89-122.46,180.9c-31.72,5.74-62,3.38-89.12-5.44-109.52-36-166-179.53-45.94-329.79,2.7-3.53,5.59-7,8.53-10.44,5.49-6.42,11.37-12.94,17.55-19.46,4.66-4.85,9.51-9.76,14.61-14.66,3.68-3.63,7.55-7.21,11.47-10.78.4-.4.79-.74,1.18-1.08,0,0-8.14-12-34.17-28.93-1.08-.68-2.11-1.32-3.19-2.06h-.05c-3.13-2-6.57-4-10.24-6.12a424.92,424.92,0,0,0-59.22-27.8l-22.36-61.08-40.74-111.09-.09-.3-79.42-216.34s62.55,18.88,142.41,51.18c33.68,13.58,70.6,29.56,107.07,47.6,0,0,17.35,8.34,44.46,23.34,68.34,37.85,198.6,118.49,268.7,215.85,5.59,7.7,10.74,15.49,15.5,23.44C2672.88,2107.78,2685.73,2154.2,2675,2201.36Z" transform="translate(-76.06 -77.02)" style="fill:#8e8fb3"/><path d="M2303.88,1794.61c-51.47,24.17-113,43.29-181.09,55.79l-54.22-147.66s62.55,18.88,142.41,51.18C2240.3,1765.74,2272.06,1779.37,2303.88,1794.61Z" transform="translate(-76.06 -77.02)" style="fill:#6c709e"/><path d="M2316.87,2157.54c.4-.4.79-.74,1.18-1.08,0,0-8.14-12-34.17-28.93-1.08-.68-2.11-1.32-3.19-2.06h-.05c-3.13-2-6.57-4-10.24-6.12a424.92,424.92,0,0,0-59.22-27.8l-22.36-61.08c10.64-23.49,22.31-38,34.32-37.61,40.49,1.43,98,117.81,184.52,119.53,0,0-47.35,18.43-102.26,55.93C2309.08,2164.69,2313,2161.11,2316.87,2157.54Z" transform="translate(-76.06 -77.02)" style="fill:#6c709e"/><path d="M2522.23,2367.21s53.55,148.88-122.46,180.91c-31.69,5.74-62,3.39-89.11-5.47-109.55-36-166-179.49-46-329.79,36.22,45.6,141.44,156.84,290.28,134.38Q2539.7,2357.27,2522.23,2367.21Z" transform="translate(-76.06 -77.02)" style="fill:#fff"/><path d="M2399.78,2548.11c173.9-31.63,123.66-177.43,122.49-180.89l-.05,0s-30.2,144.34-187.41,104.74c-100.53-25.36-92-151.73-72.83-239.5a71.42,71.42,0,0,1-4.2-10.71h-.05C2119,2405.82,2242.31,2576.75,2399.78,2548.11Z" transform="translate(-76.06 -77.02)" style="fill:#d3d4e2"/><path d="M2366.06,2570.78c-72,0-136.93-38.28-168.41-102.16-36.38-73.79-30.06-193.31,92.22-312.61-11.79-9.61-33.48-24.26-70.27-39.88a19.61,19.61,0,0,1,15.34-36.1c75.09,31.9,97.1,62,99.37,65.37l9.57,14.1-12.63,11.44c-120.6,109.27-129.92,216.46-98.43,280.34,29.47,59.79,93.59,90.24,163.43,77.53,49.57-9,83.41-28.57,100.58-58.12,25.26-43.49,7.11-96.39,6.92-96.92l-5.45-15.47,14.24-8.16c99.58-56.53,148.88-119.54,146.56-187.25-6.08-176.8-346.07-342-349.51-343.7-120.18-59.15-245.41-97.29-246.66-97.67a19.61,19.61,0,1,1,11.35-37.54c1.28.39,129.47,39.41,252.46,99.94,14.71,7.06,364.62,177.16,371.55,377.58,2.77,80.18-48.75,152.48-153.21,215.06,5.27,23.94,10.51,70.7-14.12,113.44-23.14,40.16-66.11,66.2-127.69,77.4A208.57,208.57,0,0,1,2366.06,2570.78Z" transform="translate(-76.06 -77.02)" style="fill:#0c6cf2"/><path d="M2529.5,2385.41c-33.46,9.63-67.77,15.71-102.85,14.24,29.19-18.37,57.85-35.31,88.28-50.65,25.6-11.36,41,26.94,14.57,36.41Z" transform="translate(-76.06 -77.02)" style="fill:#0c6cf2"/><path d="M2307.77,2139.76c32.56-11.65,65.45-23.47,99.89-27.37-29.32,16-54.65,38.65-79.33,60.77-24.83,20.22-49.8-20.34-20.56-33.4Z" transform="translate(-76.06 -77.02)" style="fill:#0c6cf2"/><path d="M1830.6,2565.12c-21.57,49.91-32.5,109.32-39.12,171.63-10.68,100.45-10,208.55-24.41,297.19-17.6,108.59-57.56,187.86-168,187.86-52.11,0-244.58,11.66-281.79-48-12.59-20.24-18.82-46.72-9.21-71.92,9.07-23.72,32.16-46.27,77.16-61.28-11-69.95-17.21-141.09-20.34-209.67-8.39-184.43,5.78-350.57,11.27-427.1Z" transform="translate(-76.06 -77.02)" style="fill:#8e8fb3"/><path d="M1791.48,2736.75c-10.68,100.45-10,208.55-24.41,297.19-17.6,108.59-57.56,187.86-168,187.86-52.11,0-244.58,11.66-281.79-48-12.59-20.24-18.82-46.72-9.21-71.92,12.3,19.27,50.2,44.86,162,55.11,205.9,18.87,252.52-91.87,249.14-182.71-3.72-101.53-107.56-146.49-112.07-217.57C1606,2739.45,1712.7,2736.56,1791.48,2736.75Z" transform="translate(-76.06 -77.02)" style="fill:#6c709e"/><path d="M1776.53,2950.89c-18.68,145.85-31.91,270.91-177.47,270.91-52.11,0-244.53,11.71-281.79-48-12.59-20.2-18.77-46.72-9.16-71.87,12.3,19.27,50.25,44.81,162,55.06,199.92,18.33,249.68-85.6,249.29-174.77C1741.53,2974.08,1760.89,2963.69,1776.53,2950.89Z" transform="translate(-76.06 -77.02)" style="fill:#e8e8e8"/><path d="M1776.55,2950.88c-18.68,145.87-32,270.94-177.5,270.94-52.09,0-244.54,11.67-281.76-48-24.47-39.3-24.8-102.26,68-133.17-3.34-21.08-5.88-42-7.76-62.63C1516.61,3019.67,1696.32,3016.47,1776.55,2950.88Z" transform="translate(-76.06 -77.02)" style="fill:#fff"/><path d="M1776.53,2950.89c-18.68,145.85-31.91,270.91-177.47,270.91-52.11,0-244.53,11.71-281.79-48-12.59-20.2-18.77-46.72-9.16-71.87,12.3,19.27,50.25,44.81,162,55.06,199.92,18.33,249.68-85.6,249.29-174.77C1741.53,2974.08,1760.89,2963.69,1776.53,2950.89Z" transform="translate(-76.06 -77.02)" style="fill:#d3d4e2"/><path d="M1533.78,3121.44c-15.43,22.42-17.21,56.81.71,78,5.71,6.54,12,9.86,19.82,10.3,17.17,1.7,17.18,26.55.15,28.37-49.59,3.64-73.92-59-57.23-98.94,4.7-11.54,13-22.21,24.25-27.94a41.62,41.62,0,0,1,5.49-2.27,6.35,6.35,0,0,1,8.14,3.79c1.18,2.49-.71,6.32-1.33,8.72Z" transform="translate(-76.06 -77.02)" style="fill:#6b184e"/><path d="M1407.23,3103.05c-14,15.1-18.64,34.85-15.29,55.58,2.57,17.62,11.4,38.86,28,44.85,17.23,5.12,11.63,30.44-6,27.82-47.48-9.72-62.72-72.41-46.14-112.34,5.69-12.13,15.48-22.29,28-27.15a43.47,43.47,0,0,1,5.72-1.77,7,7,0,0,1,8.54,5c.94,3.14-.84,5.83-2.76,8Z" transform="translate(-76.06 -77.02)" style="fill:#6b184e"/><path d="M1532.59,3242.22c-106.39,0-201.89-9.84-231.93-58-17.34-27.82-21.53-59.78-11.47-87.68,7.54-20.95,26.63-49,74.3-68.71-35.32-241-16.45-495.75-8.29-605.89l1.43-19.5a19.61,19.61,0,0,1,39.12,2.82l-1.44,19.58c-8.24,111.21-27.53,371.63,10.33,612.76l2.58,16.39-15.75,5.25c-35.06,11.69-57.67,29.18-65.38,50.59-8.46,23.47,2.67,45.33,7.85,53.64,27,43.31,188.46,40.14,241.53,39.07,9.46-.19,17.48-.34,23.6-.34,134.41,0,151.39-127.44,163.38-337.33,6.19-108.37,12.6-220.44,50.19-307.51a19.61,19.61,0,0,1,36,15.55c-34.84,80.69-41.05,189.23-47,294.2-10.52,184-21.4,374.31-202.54,374.31-5.92,0-13.68.15-22.83.33C1561.59,3242,1547,3242.22,1532.59,3242.22Z" transform="translate(-76.06 -77.02)" style="fill:#0c6cf2"/><path d="M1533.78,3121.44c-15.43,22.42-17.21,56.81.71,78,5.71,6.54,12,9.86,19.82,10.3,17.17,1.7,17.18,26.55.15,28.37-49.59,3.64-73.92-59-57.23-98.94,4.7-11.54,13-22.21,24.25-27.94a41.62,41.62,0,0,1,5.49-2.27,6.35,6.35,0,0,1,8.14,3.79c1.18,2.49-.71,6.32-1.33,8.72Z" transform="translate(-76.06 -77.02)" style="fill:#0c6cf2"/><path d="M1407.23,3103.05c-14,15.1-18.64,34.85-15.29,55.58,2.57,17.62,11.4,38.86,28,44.85,17.23,5.12,11.63,30.44-6,27.82-47.48-9.72-62.72-72.41-46.14-112.34,5.69-12.13,15.48-22.29,28-27.15a43.47,43.47,0,0,1,5.72-1.77,7,7,0,0,1,8.54,5c.94,3.14-.84,5.83-2.76,8Z" transform="translate(-76.06 -77.02)" style="fill:#0c6cf2"/><path d="M2254.29,2479.54c4.23,120.25,36.67,442.39,52.25,569.57,84.95,27.45,94.49,91.6,66.08,138.12-36.64,60-243.4,51.42-295.37,48-200.2-13.3-232.31-466.62-236.81-487.25" transform="translate(-76.06 -77.02)" style="fill:#8e8fb3"/><path d="M2372.61,3187.24c-36.62,60-243.4,51.42-295.37,47.94-200.21-13.28-232.32-466.61-236.78-487.25l171-110.94c21.52,25.79,45.45,65.15,38,106.92-9.22,57.36-68.44,88.64-83.59,155.41-30,132.07,23,187.86,47.55,210.6,67.8,62.76,203.31,49.47,291.06,42.56,49.81-3.92,69.66-24.56,77.56-41.67C2391.58,3136.15,2386.88,3163.9,2372.61,3187.24Z" transform="translate(-76.06 -77.02)" style="fill:#7c7c7c"/><path d="M2372.61,3187.24c-36.62,60-243.4,51.42-295.37,47.94-200.21-13.28-232.32-466.61-236.78-487.25l171-110.94c21.52,25.79,45.45,65.15,38,106.92-9.22,57.36-68.44,88.64-83.59,155.41-30,132.07,23,187.86,47.55,210.6,67.8,62.76,203.31,49.47,291.06,42.56,49.81-3.92,69.66-24.56,77.56-41.67C2391.58,3136.15,2386.88,3163.9,2372.61,3187.24Z" transform="translate(-76.06 -77.02)" style="fill:#6c709e"/><path d="M2372.66,3187.24c-36.67,60-243.45,51.42-295.42,47.94-107.26-7.11-166.24-140.55-198.64-266.1,17.06,8.58,42.8,18.82,79.32,27,6.23,64.91,38,97.71,55.44,113.83,67.8,62.76,203.31,49.47,291.06,42.56,49.86-3.92,69.71-24.56,77.61-41.72C2391.58,3136.1,2386.88,3163.9,2372.66,3187.24Z" transform="translate(-76.06 -77.02)" style="fill:#e8e8e8"/><path d="M2387,3138.49c0,2.44-.09,4.89-.32,7.29-.1,1.41-.24,2.78-.48,4.19-.09.89-.23,1.74-.37,2.59-.1.61-.19,1.17-.33,1.78-.47,2.55-1,5-1.74,7.53-.38,1.32-.75,2.59-1.18,3.81-.09.33-.19.66-.28,1-1,3-2.21,6-3.53,9l-.42,1c-.8,1.64-1.6,3.29-2.45,4.89-1,1.93-2.12,3.81-3.25,5.7-36.65,60-243.41,51.43-295.41,47.94-107.24-7.1-166.24-140.55-198.62-266.09,24,12,65.27,27.43,129.73,35.9,18.17,84.61,63.15,154.91,147.9,168.36,101.4,16.14,190.24-8.37,229.25-50.16.23,1.27.47,2.59.66,3.86s.37,2.54.47,3.86.23,2.54.28,3.86S2387,3137.22,2387,3138.49Z" transform="translate(-76.06 -77.02)" style="fill:#686868"/><path d="M2372.64,3187.24c-36.65,60-243.41,51.43-295.41,47.94-107.24-7.1-166.24-140.55-198.62-266.09,49.55,24.89,172.79,64,421.33,26.77,2.31,18.35,4.52,36.28,6.59,53.27C2391.51,3076.56,2401,3140.7,2372.64,3187.24Z" transform="translate(-76.06 -77.02)" style="fill:#fff"/><path d="M2372.66,3187.24c-36.67,60-243.45,51.42-295.42,47.94-107.26-7.11-166.24-140.55-198.64-266.1,17.06,8.58,42.8,18.82,79.32,27,6.23,64.91,38,97.71,55.44,113.83,67.8,62.76,203.31,49.47,291.06,42.56,49.86-3.92,69.71-24.56,77.61-41.72C2391.58,3136.1,2386.88,3163.9,2372.66,3187.24Z" transform="translate(-76.06 -77.02)" style="fill:#d3d4e2"/><path d="M2273.89,2478.85c9.1,189.55,31.24,379.24,51.49,568l-13-15.76c50.25,14.81,97.33,55.71,93.7,112.51-1.16,20.86-7.72,39.63-19.08,56.94-12.1,17.38-32.18,27.6-50.18,34.33-33.31,12.05-68.6,16.57-103.1,19.6-45.27,3.68-90.38,3.79-135.64,2-81.81,1.75-136.25-46.49-175-113.77-60.36-107-90-254.94-92.18-376.8.07-3.52-.14-12.16,0-15.78-.62-5.9,3.59-11.54,9.78-11.44a9.75,9.75,0,0,1,9.38,7.26l1.28,4.86c2.42,9.51,4.42,19.13,6.45,28.69C1885,2902.59,1918.43,3146.68,2042,3206c18.74,8.57,36.58,9.43,57.93,10.39,21.82,1,43.72,1.55,65.53,1.45,50-1.13,157-2.2,189.89-39.5,32.19-51.47-1.54-95.23-54.61-111.17l-11.44-3.86c-6.94-51.38-12.54-102.89-18.05-154.3-12.95-138.61-29.73-290.27-36.53-428.79-.39-25.75,37.45-27.84,39.2-1.38Z" transform="translate(-76.06 -77.02)" style="fill:#0c6cf2"/><path d="M2153.66,3117.41c43.07,17.07,44,79.67,15.79,111.17a56.13,56.13,0,0,1-19.13,14.05c-12.67,5.85-37.86,8.35-37-11.6a14.32,14.32,0,0,1,13.94-12.92c16.74-1.39,26.68-18.29,30.29-34.25,4.16-18.42-.42-38.34-10.74-54l-1.43-4.67c-1.66-4.85,3.55-9.71,8.25-7.83Z" transform="translate(-76.06 -77.02)" style="fill:#0c6cf2"/><path d="M2279.18,3103.43c47.41,13.34,48.54,77.62,26.3,113.44-8.35,13.52-22.22,25.24-38.76,27.82a14.25,14.25,0,0,1-6-27.82c16.63-6,25.44-27.22,28-44.85,3.34-20.72-1.29-40.49-15.29-55.58l-1.53-2c-4.2-5,1.15-12.91,7.3-11.05Z" transform="translate(-76.06 -77.02)" style="fill:#0c6cf2"/><path d="M1657.32,1717" transform="translate(-76.06 -77.02)" style="fill:#fff"/><path d="M1706.24,2190.38" transform="translate(-76.06 -77.02)" style="fill:#c4bfc2;stroke:#6b184e;stroke-linecap:round;stroke-miterlimit:10;stroke-width:39.2192px"/><path d="M2319.45,2550.09l3,1.18A21.44,21.44,0,0,1,2319.45,2550.09Z" transform="translate(-76.06 -77.02)" style="fill:#fff"/><path d="M2159.63,1517.82c-31.14,86.89,22.21,284.42,63.48,477.76,31.42,147.13,130.31,470.79-48.48,663.43-192.15,207-679.7,182.08-789.19-104-38.22-99.86-54.59-264,89.92-631.31,40.81-103.7,94.45-223.6,164-362.81" transform="translate(-76.06 -77.02)" style="fill:#8e8fb3"/><path d="M2188,1835.89c-74.91,19.76-160.7,30.93-251.89,30.93-159.47,0-302.52-34.26-399.69-88.48,29.61-66.73,63.78-139,103-217.47l520.24-43C2137.15,1580.57,2158.67,1701,2188,1835.89Z" transform="translate(-76.06 -77.02)" style="fill:#6c709e"/><path d="M1546.21,1631.17s-18.13,46.16,40.66,186.71c70.45,168.42-326.14,612.35-13.84,819.11,140.68,93.14,407.19,106.9,530.61-24.34,94.22-100.18,105.39-264.42,50.76-456.19-22.9-80.36-66.91-187.47-28.84-253.22,66.3-114.52,186.33-172,172.51-239.36C2278.77,1569.77,1546.21,1631.17,1546.21,1631.17Z" transform="translate(-76.06 -77.02)" style="fill:#fff"/><path d="M2170.83,1840.2c-70.74,17.06-150.41,26.62-234.73,26.62-137.36,0-262.47-25.39-356.6-67.06-49.85-126.43-33.28-168.59-33.28-168.59s732.56-61.38,751.83,32.69C2309.08,1717.6,2235,1765.05,2170.83,1840.2Z" transform="translate(-76.06 -77.02)" style="fill:#d3d4e2"/><path d="M1376.28,2555.78c-61.39-97.31-36.45-262.74-9.8-369.19,20.32-79.22,46-158.72,81.15-232.6,6-12.31,12-24.6,18.61-36.62a9.89,9.89,0,0,1,18.3,7c-9.45,39.84-21.7,78.29-33.41,117.29-18,56.68-34.48,116.44-47.61,174.49-17.18,84-30.94,169.47-19.89,254.61,2.76,25.84,6.86,51.35,11,78.1,1.72,10.38-12.64,16-18.32,7Z" transform="translate(-76.06 -77.02)" style="fill:#0c6cf2"/><path d="M2053.42,2752.82c-129.82,75.55-315.84,81.69-449.72,13.09-10-5.36-4.34-20.87,6.8-18.39,72.17,16.58,144.73,25.63,218.44,23.39,35.54-.89,74.08-4.24,109-10.2A822.16,822.16,0,0,0,2045.34,2735c10.94-3.48,18,11.9,8.08,17.86Z" transform="translate(-76.06 -77.02)" style="fill:#0c6cf2"/><path d="M2232.7,1990.81c56.91,154.75,111.19,427.15,14.79,572.73a10,10,0,0,1-17.88-8.06c5.3-23.3,10.7-45.79,14.85-68.6,23.85-115.11,10.83-234.29-9.41-349.28-8.19-46.94-17.87-95-21.53-142.7-.8-11.18,15.33-14.8,19.18-4.09Z" transform="translate(-76.06 -77.02)" style="fill:#0c6cf2"/><path d="M2761.67,1390.23c-62,301.16-368.48,361.16-598.72,383.61a1418.78,1418.78,0,0,1-283.72-1.2h0a1419.22,1419.22,0,0,1-278.36-57.08c-123.6-38.73-268.11-93.9-371.16-188.93-35.73-32.94-66.48-70.67-89.67-114.16a387.15,387.15,0,0,1-37-102.17,436.81,436.81,0,0,1-9.06-80.33q-.37-16.17.36-33c1.43-33,6.12-68,14.43-105.23,7.21-32.25,43.77-141.34,89.17-247.27,15.44-36.07,31.92-71.78,48.61-103.93-26.14-219.87-17.83-492.52,64.55-578.23,53.57-55.73,175.31,18.37,352.15,204.72,144.92-46.68,335.27-30.58,364.4-27.45,29.16,2.91,218.77,26.15,351,101.52,211.28-146.16,345.61-193.75,386.63-128.22,63.07,100.76,15.34,369.33-55.3,579.18,38.37,137.4,62.3,327.69,62.91,372C2773.49,1310.22,2769.55,1352.16,2761.67,1390.23Z" transform="translate(-76.06 -77.02)" style="fill:#8e8fb3"/><g style="opacity:0.5"><path d="M2786.78,569.07c6.48-86.13-.3-159.38-27.12-202.23-41-65.52-175.36-17.93-386.63,128.23-132.24-75.37-321.85-98.62-351-101.52-29.14-3.13-219.48-19.23-364.4,27.45C1480.78,234.65,1359,160.55,1305.47,216.28c-35,36.44-56.68,106.74-68,192.37,8.63-109.66,31.39-202.49,73.57-246.37,53.57-55.73,175.31,18.37,352.15,204.72,144.92-46.68,335.27-30.58,364.4-27.45,29.16,2.91,218.77,26.15,351,101.52,211.28-146.16,345.61-193.75,386.63-128.22C2797.54,364.43,2800.8,460,2786.78,569.07Z" transform="translate(-76.06 -77.02)" style="fill:#fff"/></g><path d="M2761.67,1390.23c-62,301.16-368.48,361.16-598.72,383.61a1418.78,1418.78,0,0,1-283.72-1.2h0a1419.22,1419.22,0,0,1-278.36-57.08c-123.6-38.73-268.11-93.9-371.16-188.93-35.73-32.94-66.48-70.67-89.67-114.16a387.15,387.15,0,0,1-37-102.17,436.81,436.81,0,0,1-9.06-80.33c298.59,315.4,548.21,213.64,676.24,9.58,49.44-78.77,130.68-78.42,165.58-74.81s114.5,19.92,146.71,107.15C2167.16,1501.06,2395.89,1652.9,2761.67,1390.23Z" transform="translate(-76.06 -77.02)" style="fill:#fff"/><path d="M2710.36,1524c-112.68,186.52-355.9,231.09-546.88,249.76a1419.16,1419.16,0,0,1-284.28-1.15h0a1418.59,1418.59,0,0,1-278.3-57.06c-123.61-38.74-268.13-93.9-371.19-188.94-35.73-32.94-66.48-70.67-89.67-114.16a386.35,386.35,0,0,1-23.39-53.28,522.06,522.06,0,0,0,50.55,53.47c112.63,103.88,532.46,193.68,727.11,213.83S2572.5,1635.55,2710.36,1524Z" transform="translate(-76.06 -77.02)" style="fill:#d3d4e2"/><path d="M1492.64,731.56c-8.25-16.35,71.13-146.72,189.82-93.5,42.75,19.16,42.45,62.75,7.18,68.41-33.6,5.39-47.58-3.21-100.1,9.37C1559.83,723,1500.9,747.91,1492.64,731.56Z" transform="translate(-76.06 -77.02)" style="fill:#0c6cf2"/><path d="M2470.89,832.85c11.43-14.31-39.56-158.18-166.64-130.41-45.77,10-54.4,52.72-21.05,65.49,31.79,12.16,47.24,6.6,96.06,29.68C2406.89,810.67,2459.46,847.16,2470.89,832.85Z" transform="translate(-76.06 -77.02)" style="fill:#0c6cf2"/><path d="M1446.44,508.41c-66.25,57.46-113.08,142.61-117.31,131.65a33,33,0,0,1-1.17-3.74c-8.29-30.34-15-147.88-4.08-250.84,1.8-16.6,3.78-31.22,6-44.06,6-34.66,13.26-56.51,20.85-70.19,9.38-16.71,26.92-20.28,41.33-12.83,38.32,19.88,144,106.44,175.93,158.17C1573.68,425.77,1512.74,451,1446.44,508.41Z" transform="translate(-76.06 -77.02)" style="fill:#f27e80"/><path d="M1446.44,508.41c-66.25,57.46-113.08,142.61-117.31,131.65a33,33,0,0,1-1.17-3.74c19-52.65,63.35-123.47,97-174.51,46-69.69-.56-133.83-44.47-156.16-15.06-7.68-36.4,16.16-50.67,35.77,6-34.66,13.26-56.51,20.85-70.19,9.38-16.71,26.92-20.28,41.33-12.83,38.32,19.88,144,106.44,175.93,158.17C1573.68,425.77,1512.74,451,1446.44,508.41Z" transform="translate(-76.06 -77.02)" style="fill:#ff5c64"/><path d="M1331.2,663.37a31.33,31.33,0,0,1-4.11-.3,23.67,23.67,0,0,1-18.74-15c-10.76-27.89-18-157.66-6.59-264.94,6.15-58,15.81-98.13,29.51-122.74,14.76-26.3,44.6-35.44,71-21.75C1443,259.74,1551.85,348.06,1587,404.86c3.72,6,10,21.83-11.82,38.89-6.31,4.93-15.14,10.58-26.3,17.74-23,14.76-54.58,35-87.78,63.76-36.45,31.6-67.24,72.68-87.62,99.87C1352.88,652.53,1344.75,663.36,1331.2,663.37ZM1349.9,632h0ZM1377.33,277c-2.84,0-5.24,1.73-7.17,5.18-7.25,13-17.34,41.95-24.12,105.71h0c-8.1,76.28-6.12,155.19-2.14,202.41,21.36-28.35,51.55-67.08,88-98.66,35.63-30.9,70.11-53,92.92-67.61,4.93-3.16,10.16-6.51,14.6-9.47-38.06-49-126.42-120.18-157.59-136.32A9.71,9.71,0,0,0,1377.33,277ZM1323.9,385.5h0Z" transform="translate(-76.06 -77.02)" style="fill:#0c6cf2"/><path d="M2563.9,624.11c53.08,69.82,81.46,162.75,87.85,152.89a31.73,31.73,0,0,0,1.92-3.42c14.32-28,45-141.67,55.38-244.68,1.64-16.62,2.7-31.33,3.17-44.35,1.28-35.15-1.4-58-6-73-5.77-18.27-22.19-25.36-37.83-21-41.57,11.61-162.73,74.68-204.61,118.77C2456.29,517.16,2510.78,554.3,2563.9,624.11Z" transform="translate(-76.06 -77.02)" style="fill:#f27e80"/><path d="M2563.9,624.11c53.08,69.82,81.46,162.75,87.85,152.89a31.73,31.73,0,0,0,1.92-3.42c-7.76-55.41-36.72-133.83-59.24-190.69-30.8-77.65,28-130.88,75.52-143.74,16.31-4.42,32.32,23.28,42.27,45.4,1.28-35.15-1.4-58-6-73-5.77-18.27-22.19-25.36-37.83-21-41.57,11.61-162.73,74.68-204.61,118.77C2456.29,517.16,2510.78,554.3,2563.9,624.11Z" transform="translate(-76.06 -77.02)" style="fill:#ff5c64"/><path d="M2650.62,800c-.53,0-1.06,0-1.59,0-16.32-1.13-21.68-12.6-37.58-46.64-14.37-30.78-36.1-77.3-65.3-115.7-26.59-35-53.32-61.22-72.85-80.39-9.46-9.29-16.94-16.63-22.1-22.75-17.87-21.17-8.48-35.37-3.61-40.49,46-48.4,170.62-112.55,214.81-124.85,28.63-8,56,7.07,65,35.79,8.39,26.93,9.62,68.2,3.77,126.24h0c-10.82,107.33-44.5,232.87-60.74,258A23.69,23.69,0,0,1,2650.62,800ZM2492.16,513.18c3.74,3.8,8.18,8.15,12.35,12.25,19.33,19,48.56,47.67,77.1,85.21,29.18,38.37,50.79,82.47,65.89,114.6,13.57-45.41,31.67-122.24,39.37-198.56,6.43-63.81,2.48-94.21-2-108.47-1.74-5.55-5.28-7.65-10.57-6.18C2640.53,421.44,2539.46,473,2492.16,513.18ZM2709,528.91h0Z" transform="translate(-76.06 -77.02)" style="fill:#0c6cf2"/><path d="M2072.85,1769.78c55.61-12.62,111.23-17,167.26-25,55.49-8.11,110.52-18.68,163.67-34.53,207.69-60.56,337.06-186.28,346.71-409.69.08-11.58.69-29.35.35-40.9-9.25-121.55-29.94-244.23-59.77-362.41l-1.58-6,1.89-5.51c45.72-137.75,120.34-418.1,63.06-551.72-38.83-102.77-308.5,84.93-364.65,123.15l-10.07,6.94-10.8-6c-105-57.25-225.34-84.46-343.34-99.08-118.49-9.87-241.84-7.89-356.36,26.63l-11.8,3.7c-32-33.82-64.8-67.21-98.82-98.71-45-40.61-164.58-150.22-224-121.9-45.53,30.82-65.12,135.22-72,189-15.65,126-10.82,254.33,3.47,380.43l.67,5.9-2.73,5.45c-48.13,97.09-87.54,200.16-121.26,303.18-32.35,99.19-39.18,211.36-1.49,309.49,58.36,152.5,211,239.94,356.33,296.92,50.42,20.19,101.94,38.86,152.46,60.68,10.5,4.38,5.92,20.53-5.33,18.85a697.32,697.32,0,0,1-81.7-17.4c-291.93-84.94-541.82-259.84-482.43-598.8,4.4-27.84,11.91-56.47,20.79-83,17.13-53,36.92-104.76,57.89-156.3,21.07-51.36,43.6-102.21,69.93-151.68L1227,742.82c-17.47-154.75-33.49-453.22,59.16-581.46,51.06-72.23,142.45-22,197.72,17,71.59,50.93,133.2,112.24,193.52,175.12l-20.24-5.17a679.06,679.06,0,0,1,92.33-21.5,1115,1115,0,0,1,552.84,57.25,677.93,677.93,0,0,1,86,40l-20.87.92c35.59-24.55,71.74-48.4,109-70.8,56.6-33.35,115.3-66.09,180-83.08,98.69-24.2,137.34,18,152.72,113.12,20.35,163.73-30.51,358.49-80.65,514.08l.3-11.52c7.94,27.78,15,55.69,21.35,83.69,20.34,96.9,38.59,194.3,44.49,293.53-.24,9.77-.28,28.71-.52,38.48-1.27,16.82-2.28,38.32-5,55-.85,4.82-1.92,16.83-3.25,21.93-28.21,166.48-133.39,280.42-287.72,342.73-107.65,43.59-223.45,61.81-338.28,71-28.77,1.41-57.68.88-86.45-3.7-10.86-1.89-11.1-17.22-.63-19.6Z" transform="translate(-76.06 -77.02)" style="fill:#0c6cf2"/><path d="M2071.52,1331.44s-9.12,88.44-87.74,75.58c-55.7-9.08-62.55-56.41-63-60.21-1.26,3.62-17.66,48.55-74,46-79.62-3.53-70.42-92-70.42-92l158.81-99.38,1.34.14Z" transform="translate(-76.06 -77.02)" style="fill:#d3d4e2"/><path d="M2070.67,1332s-32.77,64.61-91.21,42.73c-66.52-24.91-49.69-105.59-49.69-105.59l-2.53-.27s-.39,82.42-70.64,92.89c-61.72,9.2-80.28-60.82-80.28-60.82s-1.2-152.8,162.56-135.84S2070.67,1332,2070.67,1332Z" transform="translate(-76.06 -77.02)" style="fill:#fff"/><path d="M2061.39,1346.17c-13.56,17.62-41.66,43.6-81.9,28.5-66.57-24.9-49.75-105.6-49.75-105.6l-2.49-.26s-.39,82.46-70.67,92.92c-42.46,6.32-64.53-24.91-74.14-45a111.19,111.19,0,0,0,38.16.57c116-17.31,114.17-129.42,114.17-129.42l4.19.44s-25.3,109.24,84.55,150.42A110.35,110.35,0,0,0,2061.39,1346.17Z" transform="translate(-76.06 -77.02)" style="fill:#d3d4e2"/><path d="M1787.08,1298c14.31,29.6,38.34,55.18,73.53,45.37,34.18-6.86,50.6-44,55.66-75.6a11.14,11.14,0,0,1,12.83-9.14c12.53,2.34,9.35,17.95,9.19,26.91-1.42,16.72-5.37,32.82-13.87,47.91-13.6,26.3-43.28,44.6-73.3,45.75-37.4,3.71-70.58-25.1-81.32-59.09-3-9.3-9.75-26.16,4.82-29.27a11.36,11.36,0,0,1,12.46,7.16Z" transform="translate(-76.06 -77.02)" style="fill:#000072"/><path d="M2080.59,1337c-18.36,46.91-69,74.65-116.2,49.47-39-17.6-55.22-63.55-48.92-103.3a107.75,107.75,0,0,1,3.4-16.34c3.69-12.56,22.38-9.41,21.84,3.56-1.8,34.95,7.92,75.23,44.07,88,30.69,12.94,58.66-8.71,76.86-32.58,8-9.82,23.67-.42,19,11.18Z" transform="translate(-76.06 -77.02)" style="fill:#000072"/><path d="M2015.39,1234.91c-2,19.29-29,33.67-53.32,42.81a83.21,83.21,0,0,1-75.4-8c-21.87-14-45.24-33.72-43.2-53C1849.61,1158.57,2021.53,1176.72,2015.39,1234.91Z" transform="translate(-76.06 -77.02)" style="fill:#000072"/><g style="opacity:0.5"><path d="M1964.72,1218c-.59,5.56-11.09,9.42-20.6,11.79a44.21,44.21,0,0,1-29.89-3.15c-8.81-4.31-18.27-10.28-17.68-15.84C1898.32,1194,1966.49,1201.24,1964.72,1218Z" transform="translate(-76.06 -77.02)" style="fill:#fff"/></g><ellipse cx="1583.71" cy="1114.7" rx="153.21" ry="133.16" transform="translate(235.78 2498.17) rotate(-84.09)" style="fill:#000072"/><ellipse cx="1631.29" cy="1087.51" rx="64.84" ry="48.36" transform="translate(305.5 2521.1) rotate(-84.09)" style="fill:#fff"/><g style="opacity:0.35000000000000003"><ellipse cx="1528.32" cy="1151.19" rx="39.45" ry="52.89" transform="translate(-182.28 79.54) rotate(-5.67)" style="fill:#fff"/></g><ellipse cx="2299.17" cy="1171.13" rx="133.16" ry="153.21" transform="translate(-162.95 112.06) rotate(-4.62)" style="fill:#000072"/><ellipse cx="2252.21" cy="1142.87" rx="48.36" ry="64.84" transform="translate(-160.83 108.19) rotate(-4.62)" style="fill:#fff"/><g style="opacity:0.35000000000000003"><ellipse cx="2353.72" cy="1208.85" rx="52.89" ry="39.45" transform="translate(792.62 3321.8) rotate(-83.04)" style="fill:#fff"/></g><path d="M1197.82,1199.9c-76.42-51.31-165.62-83-256.42-96.72-24.33-3.21-51.15-5.54-75.57-6.66-7.27-.67-18.05-.3-25.36-.35-8.69.07-17.4-.05-26.13-.13-12.22-.33-13.06-18.21-.75-19.55,14.76-1.37,30.94-2.5,45.79-3.6a697.19,697.19,0,0,1,85.49,3c25.3,3.37,53.37,7.75,77.92,14.27,59.62,15.46,118,40.12,167.18,77.52a223.73,223.73,0,0,1,20.72,17.38,9.81,9.81,0,0,1-12.87,14.79Z" transform="translate(-76.06 -77.02)" style="fill:#0c6cf2"/><path d="M1206.81,1333c-71.67-14.51-147.34-20.87-219.59-6.9a332.79,332.79,0,0,0-121.34,49.07c-10.31,6.53-21-7.79-11.6-15.79,86-71.1,207.82-83.37,313.66-58.85a316.78,316.78,0,0,1,45,13.85,9.82,9.82,0,0,1-6.13,18.62Z" transform="translate(-76.06 -77.02)" style="fill:#0c6cf2"/><path d="M2653.93,1334.54c108.11-62.49,254.38-67.25,373.17-36,12.1,3.51,25.79,7.38,37.77,11.09a9.81,9.81,0,0,1-5.4,18.86c-12-2.34-25.37-5.15-37.36-7.73l-6.2-1.32c-18.87-2.35-37.53-6.33-56.47-7.53l-25.14-2.33c-14.66-.42-36-1.72-50.41-1a623.49,623.49,0,0,0-209.11,38.59c-4,1.54-8.16,3.17-11.8,4.76-11,4.62-19.27-10.82-9.05-17.34Z" transform="translate(-76.06 -77.02)" style="fill:#0c6cf2"/><path d="M2625.24,1460.64c122.17-17.69,262.27,18.75,341.83,117.52,7.51,9.56-5.77,21.66-14.55,13.12A323.25,323.25,0,0,0,2883,1537.8c-51-29.59-108.75-44.65-167-52.1a700.32,700.32,0,0,0-89-5.58c-11.82-.12-13.43-17.28-1.7-19.48Z" transform="translate(-76.06 -77.02)" style="fill:#0c6cf2"/><path d="M1451,1161.62,199.16,1285.87a49,49,0,0,1-53.63-43.94L95.91,742a49,49,0,0,1,43.94-53.62L1391.72,564.1a49,49,0,0,1,53.62,43.95L1495,1108A49,49,0,0,1,1451,1161.62Z" transform="translate(-76.06 -77.02)" style="fill:#fff"/><path d="M194.26,1305.72A68.72,68.72,0,0,1,126,1243.86L76.4,743.91a68.64,68.64,0,0,1,61.51-75.08L1389.78,544.59a68.62,68.62,0,0,1,75.07,61.52l49.62,499.95a68.62,68.62,0,0,1-61.51,75.08L201.1,1305.38Q197.65,1305.72,194.26,1305.72ZM1396.62,583.47a29.19,29.19,0,0,0-3,.15L141.79,707.86A29.42,29.42,0,0,0,115.42,740L165,1240a29.4,29.4,0,0,0,32.18,26.36l1251.86-124.24a29.42,29.42,0,0,0,26.37-32.17l-49.62-500a29.44,29.44,0,0,0-29.21-26.51Z" transform="translate(-76.06 -77.02)" style="fill:#0c6cf2"/><path d="M1930.77,177,1877,181a45.66,45.66,0,0,0-42.12,42.12l-4,53.81-4-53.81A45.66,45.66,0,0,0,1784.64,181l-53.81-4,53.81-4a45.66,45.66,0,0,0,42.12-42.12l4-53.82,4,53.82A45.66,45.66,0,0,0,1877,173Z" transform="translate(-76.06 -77.02)" style="fill:#0c6cf2"/><path d="M3069.25,1000.19l-61.64,4.62a52.31,52.31,0,0,0-48.25,48.25l-4.62,61.64-4.62-61.64a52.32,52.32,0,0,0-48.25-48.25l-61.64-4.62,61.64-4.62a52.31,52.31,0,0,0,48.25-48.25l4.62-61.64,4.62,61.64a52.29,52.29,0,0,0,48.25,48.25Z" transform="translate(-76.06 -77.02)" style="fill:#0c6cf2"/><path d="M1071,433.61l-33.23,2.49a28.2,28.2,0,0,0-26,26l-2.49,33.22-2.49-33.22a28.2,28.2,0,0,0-26-26l-33.22-2.49,33.22-2.49a28.18,28.18,0,0,0,26-26l2.49-33.23,2.49,33.23a28.18,28.18,0,0,0,26,26Z" transform="translate(-76.06 -77.02)" style="fill:#0c6cf2"/><path d="M398.35,873.2h1v7.2h3.45v.88h-4.5Z" transform="translate(-76.06 -77.02)"/><path d="M409.06,878.33a2.83,2.83,0,0,1-2.89,3.08,2.76,2.76,0,0,1-2.78-3,2.84,2.84,0,0,1,2.88-3.09A2.74,2.74,0,0,1,409.06,878.33Zm-4.6.06c0,1.27.73,2.23,1.76,2.23s1.77-1,1.77-2.25c0-1-.5-2.23-1.74-2.23S404.46,877.29,404.46,878.39Z" transform="translate(-76.06 -77.02)"/><path d="M410.4,877.29c0-.69,0-1.28,0-1.81h.93l0,1.13h.05a1.75,1.75,0,0,1,1.61-1.27,1.36,1.36,0,0,1,.3,0v1a1.94,1.94,0,0,0-.36,0,1.47,1.47,0,0,0-1.42,1.35,3.68,3.68,0,0,0-.05.5v3.09h-1Z" transform="translate(-76.06 -77.02)"/><path d="M414.79,878.57a1.86,1.86,0,0,0,2,2,3.8,3.8,0,0,0,1.61-.3l.18.76a4.67,4.67,0,0,1-1.93.36,2.7,2.7,0,0,1-2.86-2.93c0-1.75,1-3.13,2.73-3.13a2.46,2.46,0,0,1,2.39,2.74,4.88,4.88,0,0,1,0,.49Zm3.1-.76a1.5,1.5,0,0,0-1.47-1.71,1.75,1.75,0,0,0-1.62,1.71Z" transform="translate(-76.06 -77.02)"/><path d="M420.22,877.05c0-.6,0-1.1-.05-1.57h.92l.05.93h0a2,2,0,0,1,1.83-1.07,1.71,1.71,0,0,1,1.64,1.17h0a2.21,2.21,0,0,1,.64-.76,2,2,0,0,1,1.29-.41c.76,0,1.9.51,1.9,2.52v3.42h-1V878c0-1.11-.41-1.78-1.26-1.78a1.34,1.34,0,0,0-1.24,1,1.61,1.61,0,0,0-.09.52v3.59h-1V877.8c0-.92-.41-1.59-1.21-1.59a1.44,1.44,0,0,0-1.31,1,1.49,1.49,0,0,0-.08.52v3.5h-1Z" transform="translate(-76.06 -77.02)"/><path d="M433.94,873.84a.65.65,0,1,1-1.3,0,.64.64,0,0,1,.66-.66A.62.62,0,0,1,433.94,873.84Zm-1.17,7.44v-5.8h1.05v5.8Z" transform="translate(-76.06 -77.02)"/><path d="M435.58,877.37c0-.74,0-1.34-.05-1.89h.94l0,1h0a2.27,2.27,0,0,1,2.06-1.13c1.4,0,2.46,1.19,2.46,2.95,0,2.09-1.27,3.12-2.64,3.12a2,2,0,0,1-1.79-.91h0v3.15h-1Zm1,1.55a2,2,0,0,0,.05.43,1.62,1.62,0,0,0,1.58,1.23c1.12,0,1.76-.91,1.76-2.24,0-1.16-.61-2.16-1.72-2.16a1.69,1.69,0,0,0-1.6,1.31,1.55,1.55,0,0,0-.07.43Z" transform="translate(-76.06 -77.02)"/><path d="M442.26,880.2a2.79,2.79,0,0,0,1.39.42c.77,0,1.13-.38,1.13-.86s-.3-.78-1.08-1.07c-1.05-.37-1.54-1-1.54-1.64a1.8,1.8,0,0,1,2-1.71,2.9,2.9,0,0,1,1.42.36l-.26.77a2.32,2.32,0,0,0-1.19-.33c-.62,0-1,.35-1,.79s.35.69,1.1,1c1,.38,1.53.89,1.53,1.75,0,1-.79,1.74-2.17,1.74A3.27,3.27,0,0,1,442,881Z" transform="translate(-76.06 -77.02)"/><path d="M452,879.7c0,.6,0,1.12.05,1.58h-.94l-.06-.95h0a2.19,2.19,0,0,1-1.92,1.08c-.91,0-2-.5-2-2.54v-3.39h1.05v3.21c0,1.1.34,1.85,1.3,1.85a1.53,1.53,0,0,0,1.39-1,1.57,1.57,0,0,0,.1-.54v-3.56H452Z" transform="translate(-76.06 -77.02)"/><path d="M453.77,877.05c0-.6,0-1.1,0-1.57h.92l.05.93h0a2,2,0,0,1,1.82-1.07,1.71,1.71,0,0,1,1.64,1.17h0a2.33,2.33,0,0,1,.64-.76,2,2,0,0,1,1.29-.41c.76,0,1.9.51,1.9,2.52v3.42h-1V878c0-1.11-.41-1.78-1.26-1.78a1.35,1.35,0,0,0-1.24,1,1.61,1.61,0,0,0-.09.52v3.59h-1V877.8c0-.92-.41-1.59-1.21-1.59a1.44,1.44,0,0,0-1.31,1,1.49,1.49,0,0,0-.08.52v3.5h-1Z" transform="translate(-76.06 -77.02)"/><path d="M420,831.07a131.2,131.2,0,1,0,132.8,131.2A131.19,131.19,0,0,0,420,831.07Zm55.16,210.6-12-45.44-6.4-23.52-13.6,23.52-26.4,45.44H385.44l26.08-45.44L437.76,951l9.08-15.52-8-29.92-1.92-7.2-4.32,7.2L406.4,951l-26.24,45.28-26.24,45.44H322.56l26.24-45.44,26-45.28,26.24-45.44,25.76-44.32.64-1h27.36l1.28,4.8L466,902.15l1,3.36h28.48L476,939.27l3.2,11.68,12,45.28,12,45.44Z" transform="translate(-76.06 -77.02)" style="fill:#010101"/><path d="M819.47,934.78l-32.6,6.89a28.21,28.21,0,0,0-22.31,29.24l2,33.26-6.89-32.6a28.2,28.2,0,0,0-29.24-22.3l-33.26,2,32.6-6.89A28.2,28.2,0,0,0,752,915.09l-1.95-33.26,6.89,32.6a28.2,28.2,0,0,0,29.24,22.3Z" transform="translate(-76.06 -77.02)" style="fill:#010101"/><path d="M1221.89,894.4a7.26,7.26,0,0,0,6.44,3.91,7.16,7.16,0,0,0,3.33-.82l0,0a7.25,7.25,0,0,0,3-9.78l-45-86.67a7.23,7.23,0,1,0-12.82,6.67Z" transform="translate(-76.06 -77.02)" style="fill:#0c6cf2"/><path d="M1038.72,923.67l15.4,92.55h185.1l15.4-92.55a15.41,15.41,0,0,0,15.4-15.4v-15.4a15.4,15.4,0,0,0-15.4-15.4h-18.2l3.83,7.39a13.45,13.45,0,0,1-23.87,12.39l-10.27-19.78H1090l-10.27,19.78a13.45,13.45,0,1,1-23.87-12.39l3.84-7.39h-21a15.39,15.39,0,0,0-15.4,15.4l.05,15.4A15.4,15.4,0,0,0,1038.72,923.67Z" transform="translate(-76.06 -77.02)" style="fill:#0c6cf2"/><path d="M1064.44,897.46a7.16,7.16,0,0,0,3.33.82,7.26,7.26,0,0,0,6.44-3.91l45-86.68,0,0a7.25,7.25,0,0,0-12.87-6.67l-45,86.7h0A7.25,7.25,0,0,0,1064.44,897.46Z" transform="translate(-76.06 -77.02)" style="fill:#0c6cf2"/><path d="M1146.67,1077A170.33,170.33,0,1,0,976.34,906.69,170.33,170.33,0,0,0,1146.67,1077ZM1180,797.92a7.24,7.24,0,0,1,9.76,3.1l45,86.67a7.25,7.25,0,0,1-3,9.78l0,0a7.16,7.16,0,0,1-3.33.82,7.26,7.26,0,0,1-6.44-3.91l-45-86.71A7.24,7.24,0,0,1,1180,797.92Zm-118.64,89.77h0l45-86.7a7.25,7.25,0,0,1,12.87,6.67l0,0-45,86.68a7.26,7.26,0,0,1-6.44,3.91,7.16,7.16,0,0,1-3.33-.82A7.25,7.25,0,0,1,1061.34,887.69Zm-38.07,5.18a15.39,15.39,0,0,1,15.4-15.4h21l-3.84,7.39a13.45,13.45,0,0,0,23.87,12.39L1090,877.47h116.14l10.27,19.78a13.45,13.45,0,0,0,23.87-12.39l-3.83-7.39h18.2a15.4,15.4,0,0,1,15.4,15.4v15.4a15.41,15.41,0,0,1-15.4,15.4l-15.4,92.55h-185.1l-15.4-92.55a15.4,15.4,0,0,1-15.4-15.4Z" transform="translate(-76.06 -77.02)" style="fill:#e8eaf9"/></svg>