<svg id="Layer_1" data-name="Layer 1" xmlns="http://www.w3.org/2000/svg" viewBox="0 0 3028.09 3014.23"><title>tech_cat</title><path d="M1578.14,2579.08c-22.35,83.82-59.3,181.22-130.05,171.45-27.55-3.76-138.29-166.83-160.81-236.36-26.83-82.92-35.06-154.39-30-214.91,20-238.62,247.75-306.52,363.56-230.43l180.76-209.53c36.64,63.06,68.85,154.66,82.42,251.64C1913.15,2317.94,1857.29,2549.27,1578.14,2579.08Z" transform="translate(-59.63 -63.97)" style="fill:#8e8fb3"/><path d="M1578.14,2579.08c-22.35,83.82-59.3,181.22-130.05,171.45-27.55-3.76-138.29-166.83-160.81-236.36-26.83-82.92-35.06-154.39-30-214.91,41.48-7.51,95.22,1.49,160.81,49.76,193.16,142.22,296.43,88.84,356.82,48.81,70.75-46.91,98.34-185.7,109.11-286.89C1913.15,2317.94,1857.29,2549.27,1578.14,2579.08Z" transform="translate(-59.63 -63.97)" style="fill:#6c709e"/><path d="M1615.76,2076.63c-91.6-38-199-17.91-267.34,54.56-46.69,48.19-69.24,116.95-72.75,183.69-3,68.88,10.84,139.22,33.2,204,30.46,69.24,73.57,134.84,121.89,193.15,6.78,7.49,13.2,14.94,21.37,20.27.11.08.51.34-.21,0a2.48,2.48,0,0,0-.76-.18c-.18,0-.79,0-.23,0a50.92,50.92,0,0,0,12.46.09c56.24-8.9,82.94-109.78,96.74-157.92a18.74,18.74,0,0,1,16-13.73c36-4.35,71.56-11.93,104.87-24.83,224.39-85.21,217.27-376,149.34-567.26-12.21-34.71-27-68.55-45-100-11.6-21.31,19.25-39.79,32.37-18.51,73.17,132.62,107.65,299.13,84.29,449.37-28.73,176.36-146,279.89-322,298.31,0,0,16.07-13.79,16-13.72-19.14,67.15-50.56,179.94-134.61,185.87-6,.05-12.19.06-18.13-1.21-8.64-1.87-15.32-7.25-21.77-12.62-35.93-34.09-62.92-75.8-89.86-116.73-23.14-37.21-46.17-75-61.33-116.67-22-67.21-36-138.45-33.38-209.47,4.21-138.11,87.72-262.5,229-288.37,27.7-5,56.47-5.84,84.34-.2,27.67,5.74,54.75,17.48,75.54,36.55,7.87,7.25-.76,19.88-10.24,15.58Z" transform="translate(-59.63 -63.97)" style="fill:#0c6cf2"/><path d="M1517.2,2649.33c1.3,10.8,9.06,63.06-26,93.23-61.28,52.75-225.64,24.85-302.18-126.23-54.11-106.83-52-233.85,48.71-274.23,68.65-27.52,155.74,52.37,192.91,149.15,0,0,17,30,46.17,72.22C1511.27,2613.37,1517.2,2649.33,1517.2,2649.33Z" transform="translate(-59.63 -63.97)" style="fill:#fff"/><path d="M1491.2,2742.56c-51.34,44.2-175,31.76-258.75-62.24,79.8,56.95,173.93,61.29,210.84,19.13,57.14-65.32-56.32-284.57-59.16-290.09a316,316,0,0,1,46.5,81.88s17,30,46.18,72.24c34.47,49.89,40.4,85.85,40.4,85.85C1518.47,2660.15,1526.25,2712.39,1491.2,2742.56Z" transform="translate(-59.63 -63.97)" style="fill:#d3d4e2"/><path d="M1526.46,2648.22c31.86,129.57-97.57,160.67-196.35,123-89.59-32-154.51-111.47-182.51-200.59-26.06-78-22.46-182.83,53.78-232.16,21.79-14.22,48.44-24.28,74.56-21,60.49,7.14,110.2,56.49,139.26,106.25,11.2,20.15,19.92,41.68,24.14,64.22a9.48,9.48,0,0,1-17.4,6.69c-33.32-53.7-106.38-163.72-179.78-132.57-54.07,22.86-72.31,80.87-66.68,136.31,9.93,100,72.32,199.47,168.41,236,56.81,23.13,151.91,23.84,161.59-53.21a193,193,0,0,0,2.47-30.68,9.4,9.4,0,0,1,18.51-2.21Z" transform="translate(-59.63 -63.97)" style="fill:#0c6cf2"/><path d="M1376.87,2584.52c21.63,33.36,25.7,76.79,1.85,98.86-33,30.55-83.32-.88-103.93-32.67s-28.78-90.52,12.59-108.21C1317.25,2529.73,1355.24,2551.16,1376.87,2584.52Z" transform="translate(-59.63 -63.97)" style="fill:#f27e80"/><path d="M1362.45,2475c10.79,16.63,12.84,37.52.92,49.29s-37.32,6.08-51.82-16.28-9.34-47.89,6.27-54S1351.66,2458.33,1362.45,2475Z" transform="translate(-59.63 -63.97)" style="fill:#f27e80"/><path d="M1285.62,2471.83c9.23,18.56,8.88,40.49-4.89,51.3s-39.49,1.88-51.89-23.06-4-50.85,12.92-55.3S1276.4,2453.27,1285.62,2471.83Z" transform="translate(-59.63 -63.97)" style="fill:#f27e80"/><path d="M1249.76,2540.6c6.24,12.53,6,27.35-3.3,34.65s-26.67,1.27-35-15.58-2.71-34.34,8.73-37.35S1243.53,2528.07,1249.76,2540.6Z" transform="translate(-59.63 -63.97)" style="fill:#f27e80"/><g style="opacity:0.5"><path d="M1360.39,2219.29c-3.72-28.22,28.15-88.72,76.9-114,75.37-39.12,139.7-21.16,147.15-7.56,8.52,15.54-39.78,21.13-124.29,69.64C1406.12,2198.35,1364.92,2253.58,1360.39,2219.29Z" transform="translate(-59.63 -63.97)" style="fill:#fff"/></g><path d="M1098.22,2110.63s-38.78,83.63-120.4,75c-43.68-4.66-99.66-32.4-107.21-113.23a233.77,233.77,0,0,1,1.07-50c19.76-164.27,184.82-254.28,382.22-185l.7-3c3.64-17.11,20.65-104,7.69-198.06l264.25,199.78S1622.71,2268.23,1098.22,2110.63Z" transform="translate(-59.63 -63.97)" style="fill:#8e8fb3"/><path d="M1098.22,2110.63s-38.78,83.63-120.4,75c-43.68-4.66-99.66-32.4-107.21-113.23,20.32,14,61.62,33,120.35,13.34,86.37-28.76,98.73-83.91,98.73-83.91S1284.48,2125,1347.55,2029c64.65-98.4-42.93-168.55-93-194.56,3.64-17.11,20.65-104,7.69-198.06l264.25,199.78S1622.71,2268.23,1098.22,2110.63Z" transform="translate(-59.63 -63.97)" style="fill:#6c709e"/><path d="M990,2204.87a134,134,0,0,1-14.09-.75c-22.15-2.36-63.75-11.88-93.5-49.23-26.18-32.88-36-78.22-29.2-134.75,9.41-78.05,50-143,114.2-183,73.43-45.68,171.66-54.11,272.26-23.93,5.57-32.81,14.18-101.78,4.2-174.29a18.65,18.65,0,0,1,37-5.09c14.75,107.18-7.76,203.88-8.72,207.94a18.65,18.65,0,0,1-24.32,13.29c-96.91-34-191.92-29-260.67,13.74-54.44,33.88-88.85,89.21-96.88,155.81-5.57,46.26,1.62,82.27,21.35,107.06,21.3,26.73,51.92,33.64,68.27,35.38,67,7.11,100.14-61.37,101.52-64.29a18.66,18.66,0,0,1,22.25-9.95c167.3,50.26,285.52,44.71,351.34-16.49,86.8-80.7,53.76-234.58,53.42-236.12a18.65,18.65,0,1,1,36.4-8.11c1.59,7.16,37.85,176.45-64.43,271.54-74.19,69-199.68,78.74-373.11,29.1C1091.79,2157.3,1053.73,2204.87,990,2204.87Z" transform="translate(-59.63 -63.97)" style="fill:#0c6cf2"/><path d="M3066.73,1666c-.36,2.74-.77,5.53-1.17,8.22-1.26,7.82-2.74,15.37-4.63,22.61-42.38,163.12-243,143.35-246.8-37.12-2.7-128.44-62.06-169.29-117.79-161.47a106.57,106.57,0,0,0-25.39,7,120.92,120.92,0,0,0-48.13,36.53,111.65,111.65,0,0,0-22.11,47.5c-6.47,33.53-3.82,67.1,5.26,100.67,19.1,70.73,66.87,141.51,118.55,211.75,14.79,20.13,29.88,40.13,44.71,60.17a350.48,350.48,0,0,1,40.45,69.3c17.39,40,25.61,80.53,25.7,120a287.23,287.23,0,0,1-17.79,100c-55.9,152-238.18,255.66-462.78,176.56l23.82-197c44.35,29.79,89.11,40.62,128.75,39.09,4.63-.13,9.21-.49,13.7-1h.05c1.57-.18,3.14-.36,4.63-.63,59.18-8,103.89-43.19,113.83-79.77,31.5-115.31-129.16-312.68-180.3-423.59-95.22-206.63-16.44-399.82,152.84-466.46a348.3,348.3,0,0,1,74-19.91,379.06,379.06,0,0,1,43.68-4.27c10.92-.45,21.57-.45,31.91.09C2987.23,1285.41,3084.7,1518,3066.73,1666Z" transform="translate(-59.63 -63.97)" style="fill:#8e8fb3"/><path d="M2817.59,2251.14c-55.9,152-238.18,255.66-462.78,176.56l23.82-197c44.35,29.79,89.11,40.62,128.75,39.09C2562.69,2348.72,2735.08,2384.77,2817.59,2251.14Z" transform="translate(-59.63 -63.97)" style="fill:#6c709e"/><path d="M2530.92,1642.63c34.78,128.58,145,222.68,193.59,259-51.68-70.22-99.4-141-118.54-211.73-9.08-33.58-11.73-67.16-5.22-100.65a110.74,110.74,0,0,1,22.1-47.51c18.47-23.48,45.55-39.64,73.53-43.51,55.7-7.82,115,33,117.75,161.46,3.81,180.47,204.43,200.25,246.81,37.12,1.87-7.23,3.38-14.8,4.61-22.61-30.35,32.91-110,94.49-168.76,49.2-82.66-63.71-12.57-208.31-120-285.61C2695,1378.87,2485.82,1475.89,2530.92,1642.63Z" transform="translate(-59.63 -63.97)" style="fill:#6c709e"/><path d="M2637.23,1445.2c2.06,1.49,23.27-8.39,23.1-5.84-.65,11.13-1.52,33.54,10.63,65.8a1,1,0,0,1,.34-.11c1.61-.7,3.19-1.31,4.83-1.84,1.41-.54,2.83-1,4.26-1.43,1.12-.34,2.29-.69,3.47-1s2.13-.57,3.23-.82a94,94,0,0,1,9.27-1.75c55.73-7.82,115.08,33,117.76,161.45,3.82,180.46,204.43,200.26,246.83,37.12,1.87-7.24,3.36-14.78,4.62-22.6-30.37,32.9-110,94.46-168.79,49.2-82.66-63.72-12.55-208.33-120-285.64-34.17-24.57-90.45-22-141.2,1.45C2635.43,1442.1,2635.86,1444.22,2637.23,1445.2Z" transform="translate(-59.63 -63.97)" style="fill:#686868"/><path d="M2671,1505.16a103.62,103.62,0,0,1,25.4-7c55.73-7.82,115.08,33,117.76,161.45,3.82,180.46,204.43,200.26,246.83,37.12,1.87-7.24,3.36-14.78,4.62-22.6.37-2.72.78-5.49,1.14-8.25,18-148-79.47-380.53-305-391.6-10.34-.57-21-.58-31.91-.12a388.19,388.19,0,0,0-43.67,4.28c-12.62,11.53-41.9,52.82-45.09,91-.39,4.73,20.76-8.22,19.86-3.11-3.05,17.2-32.53,72.37-23.69,78.81,2,1.48,23.26-8.39,23.11-5.86C2659.7,1450.49,2658.8,1472.89,2671,1505.16Z" transform="translate(-59.63 -63.97)" style="fill:#fff"/><path d="M2637.23,1445.2c2.06,1.49,23.27-8.39,23.1-5.84-.65,11.13-1.52,33.54,10.63,65.8a1,1,0,0,1,.34-.11c1.62-.66,3.19-1.27,4.83-1.84,1.41-.54,2.83-1,4.26-1.43,1.12-.34,2.29-.69,3.47-1s2.18-.58,3.23-.82a94,94,0,0,1,9.27-1.75c55.73-7.82,115.08,33,117.76,161.45,3.82,180.46,204.43,200.26,246.83,37.12,1.87-7.24,3.36-14.78,4.62-22.6-30.37,32.9-110,94.46-168.79,49.2-82.66-63.72-12.55-208.33-120-285.64-34.17-24.57-90.45-22-141.2,1.45C2635.43,1442.1,2635.86,1444.22,2637.23,1445.2Z" transform="translate(-59.63 -63.97)" style="fill:#d3d4e2"/><path d="M2505.6,2473.1c-50.78,0-103.82-9.09-157-27.8a18.65,18.65,0,0,1,12.39-35.18c159.45,56.19,317.22,18.25,401.92-96.61,75.07-101.79,71.76-232.29-8.63-340.59q-8.39-11.28-16.84-22.59c-88.08-118-179.16-240-155-364.66,12.2-63.06,74.46-112,136.08-106.66,26,2.21,110.91,21.75,114.26,180.28,1.84,87.64,51.54,124.48,93.54,129.39,44.15,5.21,97.37-22.68,116.56-96.6,19.59-75.43.41-200.12-74.18-292.49-41.6-51.5-116.54-111.83-238.11-106.74-108.45,4.56-199.9,55-250.9,138.51-55.64,91.05-56.9,209.77-3.47,325.72,14.18,30.77,37.77,69.56,62.74,110.62,67.14,110.43,143.24,235.59,118.66,325.65-9.45,34.59-42.81,66.33-87.07,82.82-64.44,24-138.17,13.11-202.31-29.92a18.64,18.64,0,1,1,20.77-31c54.06,36.25,115.47,45.7,168.51,25.94,32.71-12.19,57.88-34.84,64.12-57.7,20.36-74.58-54.44-197.6-114.55-296.45-25.54-42-49.66-81.68-64.73-114.39-58.73-127.44-56.72-258.94,5.51-360.77,57.59-94.26,160.07-151.24,281.15-156.32,136.81-5.82,221.71,62.39,268.69,120.57,73.84,91.44,107.26,225.2,81.27,325.28-24.84,95.63-96.85,131.31-157,124.27-61.37-7.18-124.29-61.19-126.49-165.65-1.81-86-31.77-139.78-80.13-143.9-42.7-3.64-87.71,32.15-96.31,76.59-21,108.43,65.08,223.74,148.32,335.27q8.48,11.34,16.89,22.67c89.17,120.11,92.58,271.21,8.7,384.94C2727,2425.08,2622.31,2473.1,2505.6,2473.1Z" transform="translate(-59.63 -63.97)" style="fill:#0c6cf2"/><path d="M2302.18,2461.68c-119.14,93.13-282.38,140.63-430.93,126.69-137.28-12.87-262-78.22-327.69-208.5-109.82-217.87-115.93-441.52-213-627.08-20.55-39.35-45.17-77-75.74-112.43l581.35-128.56,22-4.9c77.89,31.93,147.34,70,208.83,112.62,187.66,130,301.26,301.59,355.09,467C2471.9,2239.28,2396.06,2388.31,2302.18,2461.68Z" transform="translate(-59.63 -63.97)" style="fill:#8e8fb3"/><path d="M1661,2092.07s375.6-267.61,386.57-252.56c-9.39,252.56,144.77,320.66,130.43,326.7s-430.14,202.06-419.17,176.62S1661,2092.07,1661,2092.07Z" transform="translate(-59.63 -63.97)" style="fill:#6c709e"/><path d="M2067.07,1619.52c-99.15,105.86-275.11,176.24-475.69,176.24-94.16,0-182.91-15.52-260.8-43-20.55-39.35-45.17-77-75.74-112.43l581.35-128.56,22-4.9C1936.13,1538.83,2005.58,1576.92,2067.07,1619.52Z" transform="translate(-59.63 -63.97)" style="fill:#6c709e"/><path d="M1766.83,1777.07a819.57,819.57,0,0,1-175.45,18.69c-94.16,0-182.91-15.52-260.8-43-1-1.91-2-3.87-3.07-5.78q-1.76-3.36-3.64-6.72c-1.91-3.49-3.82-6.94-5.83-10.39-1.25-2.19-2.51-4.38-3.82-6.53s-2.47-4.14-3.73-6.2c-1.86-3.12-3.82-6.24-5.78-9.37-1.82-2.89-3.68-5.73-5.54-8.57-2.15-3.31-4.34-6.57-6.62-9.84-2.66-3.91-5.36-7.78-8.21-11.65-1.54-2.14-3.12-4.29-4.71-6.43-5.59-7.51-11.37-14.92-17.43-22.24-2.42-2.93-4.89-5.82-7.36-8.71l581.35-128.56C1794.33,1584.09,1755.32,1680.58,1766.83,1777.07Z" transform="translate(-59.63 -63.97)" style="fill:#e8e8e8"/><path d="M2018.68,2471c-37.06,61.67-88.89,98.17-147.43,117.42-137.28-12.87-262-78.22-327.69-208.5-28.76-57-50.39-114.53-68.43-171.58-65.4-207-83.25-408.84-220.29-567.93l581.35-128.56c-51.18,88.42-98.16,213.07-53.51,329.64,35.66,93,94.72,164.78,149.77,230.18C2035.65,2194.21,2124.63,2294.57,2018.68,2471Z" transform="translate(-59.63 -63.97)" style="fill:#fff"/><path d="M2018.68,2471c-37.06,61.67-88.89,98.17-147.43,117.42-137.28-12.87-262-78.22-327.69-208.5-28.76-57-50.39-114.53-68.43-171.58,127.49,33.47,338.32,52.11,457.32-136.67C2035.65,2194.21,2124.63,2294.57,2018.68,2471Z" transform="translate(-59.63 -63.97)" style="fill:#e8e8e8"/><path d="M1766.83,1777.07a819.57,819.57,0,0,1-175.45,18.69c-94.16,0-182.91-15.52-260.8-43-1-2-2-3.87-3.07-5.78q-1.76-3.36-3.64-6.72c-1.91-3.49-3.87-6.94-5.83-10.39-1.25-2.19-2.51-4.38-3.82-6.53s-2.42-4.14-3.73-6.2c-1.86-3.12-3.82-6.24-5.78-9.37-1.82-2.89-3.68-5.73-5.54-8.57-2.15-3.31-4.34-6.57-6.62-9.84-2.66-3.91-5.36-7.78-8.21-11.65-1.54-2.14-3.12-4.29-4.71-6.43-5.59-7.51-11.37-14.92-17.43-22.24-2.42-2.93-4.89-5.82-7.36-8.71l581.35-128.56C1794.33,1584.09,1755.32,1680.58,1766.83,1777.07Z" transform="translate(-59.63 -63.97)" style="fill:#d3d4e2"/><path d="M1922.92,2609.38a545.86,545.86,0,0,1-119.07-12.75c-126.75-28.37-222.51-100.43-276.93-208.38-57-113.11-86.24-226.6-114.49-336.36-37.77-146.71-73.45-285.28-171.73-399.37a18.64,18.64,0,0,1,28.25-24.33c104,120.69,140.7,263.35,179.59,414.4,27.76,107.84,56.47,219.36,111.68,328.87,62.19,123.37,171.24,170.75,251.78,188.77,157.64,35.3,345.55-9.17,478.71-113.26,88-68.77,161.11-209.08,113.75-354.64-47.86-147.07-183.38-416.44-553.29-568.19a18.64,18.64,0,1,1,14.15-34.5c150.62,61.79,278.54,149.5,380.2,260.68,88.22,96.49,155.44,210.76,194.4,330.47,52.91,162.62-28.35,319.05-126.24,395.57C2204.4,2561.77,2060.28,2609.38,1922.92,2609.38Z" transform="translate(-59.63 -63.97)" style="fill:#0c6cf2"/><g style="opacity:0.30000000000000004"><path d="M918,1301c.41.66.77,1.38,1.17,2l-1.37-2.24S918,1300.88,918,1301Z" transform="translate(-59.63 -63.97)" style="fill:#6b184e"/><path d="M2464.46,1300.78l-1.37,2.24c.4-.66.76-1.38,1.17-2C2464.31,1300.88,2464.41,1300.83,2464.46,1300.78Z" transform="translate(-59.63 -63.97)" style="fill:#6b184e"/></g><path d="M808.25,1104.63C743,1038.44,660,989.39,571.61,961.11c-16.53-6-33.87-9.57-50.75-14.59-13.34-2.74-27.71-5.67-41-8.66-11.31-2.69-8.61-19.47,3.09-18.34,11.55,1.28,24.61,3,36.23,4.56,27.55,4,56.43,11.57,83.14,19.71,22.34,7.83,47,17.13,68.09,27.69,58.82,29.36,113.35,68,152.67,121.88,6.72,9.75-7.15,20.45-14.85,11.27Z" transform="translate(-59.63 -63.97)" style="fill:#0c6cf2"/><path d="M791.29,1227.26c-98.63-42.55-214-68.11-317.12-26.28-10.89,4.31-18.27-11.16-7.91-16.88,78.17-41.71,173.7-38.4,255.85-10.36,27.5,9.48,53.67,21.29,78.5,37.37a9.34,9.34,0,0,1-9.32,16.15Z" transform="translate(-59.63 -63.97)" style="fill:#0c6cf2"/><path d="M988,799.79l246.8-193.35L1520,383.07C1368,219.31,1065.26,37.5,969.77,92.56c-18.09,10.46-32.57,34.93-43.16,69.86C886.86,293.44,902,570.92,988,799.79Z" transform="translate(-59.63 -63.97)" style="fill:#8e8fb3"/><path d="M988,799.79l246.8-193.35c-60.19-159.79-211.57-525.38-308.16-444C886.86,293.44,902,570.92,988,799.79Z" transform="translate(-59.63 -63.97)" style="fill:#6c709e"/><g style="opacity:0.5"><path d="M922.34,177.92c9-19.73,19.86-33.82,32.43-41.08,92-53.08,375.77,113.36,532.43,271.91L1520,383.07C1368,219.31,1065.26,37.5,969.77,92.56,949.13,104.46,933.16,134.76,922.34,177.92Z" transform="translate(-59.63 -63.97)" style="fill:#fff"/></g><path d="M988,818.44a18.65,18.65,0,0,1-17.46-12.09c-51.13-136-81.52-300-83.39-450-.88-70.93,4.49-240.18,73.29-279.87,111.67-64.44,424.72,133.9,573.19,294a18.64,18.64,0,1,1-27.33,25.36c-163.61-176.34-449.38-331.89-527.22-287-28.53,16.45-56.48,99.24-54.64,247.1,1.82,145.87,31.34,305.29,81,437.38A18.66,18.66,0,0,1,988,818.44Z" transform="translate(-59.63 -63.97)" style="fill:#0c6cf2"/><path d="M1011.09,568c51.84-67.16,95-112.79,132.6-146.79,33-29.73,61.6-50.46,88-68.71-5.93-31.83-200.4-211.62-233-157-9.74,16.33-16.85,41.34-21.29,71.17C963.55,359.09,974.87,497.79,1011.09,568Z" transform="translate(-59.63 -63.97)" style="fill:#f27e80"/><path d="M977.45,266.67c13.38-16,33.68-35,51.66-30.08,30.63,8.32,93.17,112.44,114.58,184.62,33-29.73,61.6-50.46,88-68.71-5.93-31.83-200.4-211.62-233-157C989,211.83,981.89,236.84,977.45,266.67Z" transform="translate(-59.63 -63.97)" style="fill:#ff5c64"/><path d="M1008,602.55l-13.44-26c-49.9-96.62-56.53-315.65-11.82-390.6h0c5.39-9.06,18.88-23.45,48.09-18.23C1099.37,180,1243.06,311.55,1250,349.11l2.21,11.88-9.94,6.86c-57.57,39.75-121.7,88.82-216.43,211.53ZM1014.74,205c-32,53.59-34.18,226.88,1.15,326.72,80.5-100.28,139.24-148.06,191.66-185.13-27.77-37.58-138.14-137.71-186.07-142.6-2.16-.22-5.9-.38-6.74,1Z" transform="translate(-59.63 -63.97)" style="fill:#0c6cf2"/><path d="M1713.59,409.27l335,356.56,144.8,154.08c132.17-220.76,192.45-509.07,163.31-638-6-26.53-15.77-46.27-29.48-57.36C2237.91,152.32,1896.61,275.69,1713.59,409.27Z" transform="translate(-59.63 -63.97)" style="fill:#8e8fb3"/><path d="M2048.63,765.83l144.8,154.08c132.17-220.76,192.45-509.07,163.31-638-28.63-39.52-76.62-69.3-129.63,50C2172.13,455.45,2093.43,652.32,2048.63,765.83Z" transform="translate(-59.63 -63.97)" style="fill:#6c709e"/><g style="opacity:0.5"><path d="M1713.59,409.27l21.12,22.46c188.39-124.2,521.47-223.28,586-184.14,52.43,31.83,34.16,221.09,1.08,371.34,52.89-185,57.48-352.4,5.5-394.38C2237.91,152.32,1896.61,275.69,1713.59,409.27Z" transform="translate(-59.63 -63.97)" style="fill:#fff"/></g><path d="M2193.39,938.55a18.64,18.64,0,0,1-16-28.23c72.57-121.2,128.87-273.13,154.46-416.83,25.95-145.7,10.5-232.79-16.33-254.46-35.22-28.47-130.29-21.56-254.28,18.45C1941.8,296,1812.78,360,1724.57,424.32a18.65,18.65,0,1,1-22-30.13c91.19-66.54,224.25-132.52,347.23-172.2,81.12-26.18,226.58-62.54,289.16-12,94.87,76.64,25.84,459.91-129.57,719.46A18.64,18.64,0,0,1,2193.39,938.55Z" transform="translate(-59.63 -63.97)" style="fill:#0c6cf2"/><g style="opacity:0.7000000000000001"><path d="M1875.06,323.4c7.55,3.82,3.08,15.36-5,13-55.88-16.17-110.14-26.8-159.81-31.1a1382.21,1382.21,0,0,0-217.49-1,478.46,478.46,0,0,1,9.78-62.07,1019.87,1019.87,0,0,1,183.66,14.93C1744.43,267.46,1810.36,290.7,1875.06,323.4Z" transform="translate(-59.63 -63.97)" style="fill:#fff"/></g><path d="M1513.52,1721.89h0a1204.89,1204.89,0,0,0,144.7-4.51c402.89-37.42,582.07-192.86,641.75-311.8,1.75-3.55,3.44-7.09,5.12-10.68.95-2.05,1.83-4.16,2.73-6.2,2.34-5.3,4.65-10.62,6.64-16.07l3.36-9.15a3.87,3.87,0,0,0,.21-.69,12.33,12.33,0,0,1,.56-1.51c.82-2.49,1.64-4.92,2.41-7.39,1-3,1.94-5.94,2.8-8.92.86-2.75,1.62-5.49,2.38-8.23.93-3.36,1.87-6.72,2.69-10.11,1.46-5.94,2.83-12,4.11-18.08.4-2,.8-3.92,1.13-6,.48-2.08.85-4.2,1.21-6.36.48-2.51.9-5.12,1.33-7.67,15-93.43,4-196.23-17.63-293.86-21.53-97-53.52-189-80.83-261.49,0,0-41-93.6-143.93-216.88-87.81-105.13-171.51-164.15-194.23-179.2-3.92-2.62-6-3.9-6-3.9-70.67-37.84-143.88-64.75-207.89-76-103.28-18.17-288-31.9-482.36,34.44-152.15,51.87-250.46,152.19-315.45,261C793.92,710.51,769.88,886.16,753.58,957c-4.41,18.89-42.43,67.45-66.07,138.63v.05c-1.84,5.44-3.5,11-5.12,16.7-.76,2.74-1.52,5.48-2.21,8.25s-1.5,5.79-2.16,8.71a.26.26,0,0,0,0,.23c-.55,2.48-1.16,5-1.68,7.54-.27,1.39-.58,2.85-.88,4.31-.94,5-1.87,10-2.61,15.11-.51,3.11-.91,6.24-1.29,9.43-.33,2.53-.63,5.16-.88,7.78-.11,1.14-.26,2.35-.36,3.55-.24,2.67-.43,5.32-.62,8-.25,3.32-.39,6.66-.47,10-.29,6.63-.32,13.47-.17,20.37.1,3.45.24,6.83.41,10.37v0c.17,3,.34,6.11.63,9.24.1.89.15,1.79.26,2.72.27,3,.61,6.16,1,9.28.6,4.93,1.26,9.9,2.1,14.94,25.26,153.2,211.91,315,527,410C1302,1702.81,1407.44,1718.94,1513.52,1721.89Z" transform="translate(-59.63 -63.97)" style="fill:#8e8fb3"/><path d="M785.77,1451.87c89.4,85.88,229,164,412.17,219.58,102.38,31,208.65,47.47,315.59,50.44h0a1204.79,1204.79,0,0,0,144.69-4.51c402.89-37.42,582.07-192.86,641.75-311.8,1.75-3.55,3.44-7.09,5.12-10.68.95-2.05,1.83-4.16,2.73-6.2,2.34-5.3,4.65-10.62,6.64-16.07l3.36-9.15a3.87,3.87,0,0,0,.21-.69c1-3,2.06-5.91,3-8.9s1.94-5.94,2.8-8.92c.86-2.75,1.62-5.49,2.38-8.23.93-3.36,1.87-6.72,2.69-10.11,1.46-5.94,2.83-12,4.11-18.08.4-2,.8-3.92,1.13-6,.48-2.08.85-4.2,1.21-6.36.48-2.51.9-5.12,1.33-7.67-21.66,12.78-46,26.28-72.85,39.6-115.06,57.49-273.9,112.5-445.68,96-260.37-24.93-358.66-192.11-403.76-242.19-27.44-30.45-150.21-55-191.91-4.29-88.61,107.69-463.8,177.44-534.93-82-1.84,5.44-3.5,11-5.12,16.7-.76,2.74-1.52,5.48-2.21,8.25s-1.5,5.79-2.16,8.71a.26.26,0,0,0,0,.23c-.55,2.48-1.16,5-1.68,7.54-.27,1.39-.58,2.85-.88,4.31-.94,5-1.81,10-2.61,15.11-.51,3.11-.91,6.24-1.29,9.43-.33,2.53-.63,5.16-.88,7.78-.11,1.14-.26,2.35-.36,3.55-.24,2.67-.43,5.32-.62,8-.25,3.32-.39,6.66-.47,10-.29,6.63-.32,13.47-.17,20.37.1,3.45.24,6.83.41,10.37v0c.17,3,.34,6.11.63,9.24.1.89.15,1.79.26,2.72.27,3,.61,6.16,1,9.28.6,4.93,1.26,9.9,2.1,14.94C683.85,1325.75,722.08,1390.75,785.77,1451.87Z" transform="translate(-59.63 -63.97)" style="fill:#fff"/><path d="M2328.78,1326.82c-.76,3.36-1.68,6.64-2.6,9.92-.76,2.72-1.52,5.45-2.39,8.22-.84,3-1.74,6-2.8,8.93-.9,3-2,5.86-3,8.91a3.29,3.29,0,0,1-.17.67c-1.14,3.09-2.27,6.12-3.39,9.16-2,5.46-4.28,10.79-6.64,16.1-.92,2-1.8,4.12-2.72,6.2-1.69,3.55-3.38,7.11-5.13,10.66-59.67,118.91-238.87,274.34-641.77,311.76a1198.16,1198.16,0,0,1-144.65,4.55c-107-3-213.24-19.41-315.58-50.45-183.26-55.54-322.8-133.71-412.22-219.58-63.66-61.14-101.89-126.09-112.36-189.69-.86-5-1.49-10-2.08-14.89-.35-3.11-.69-6.28-1-9.27-.08-1-.18-1.84-.26-2.76-.29-3.11-.47-6.2-.6-9.24l-.05-.06c-.1-2-.15-4-.26-6,19.48,30.6,142.88,274.66,521.85,342.55C1966.37,1701.46,2237.09,1440.41,2328.78,1326.82Z" transform="translate(-59.63 -63.97)" style="fill:#d3d4e2"/><path d="M1889.59,341.44c-72-33.6-146.57-60.27-224.94-70.44-198-25.72-430.43-5.2-597.35,112.42-141,100.7-219.24,264.39-260.48,428.87-10.52,40.33-19.65,86.32-28.13,127.53-2.79,14.3-5.89,29.65-13.05,42-15.13,27.57-30.58,52.89-43,81.22-20.07,44.34-32,91.8-33,140.3-2.48,95.4,43.85,170.67,111.18,235.2,142.12,132.34,332.79,201.89,518.88,247.44,35.39,7,71.92,14.63,107.2,21.13a9.35,9.35,0,0,1-2,18.53c-74.2-3.28-147.76-13.41-219.21-33.35-219-61-564.17-222.75-557.22-489.49,1.18-87.7,34.27-162,77.76-235.81l2.47-4.55,2-4.13c4.26-9.25,4.78-17.18,7.06-27l8.7-43C781.22,714.1,844.91,536.16,974.79,409.6c151.64-150.21,377.79-193,584.19-184.54,59.39,3.4,119.57,10.52,176.79,27.18,57.62,17,111.89,42.32,162.63,72.77,9.7,6.6,2.22,21.07-8.81,16.43Z" transform="translate(-59.63 -63.97)" style="fill:#0c6cf2"/><path d="M2247,729.91c93,193.68,176.5,510.59,59.21,707.68-82.89,133.07-232.55,206.82-378.28,249.84-87.42,24.2-177.78,42.06-268.79,39.22-10.59-.44-12.76-15.63-2-18.48,58.38-14.51,116.88-22.75,174.44-36.09A1047.77,1047.77,0,0,0,1979.36,1629c113.43-43.39,225.44-108.14,290.83-213.11,87.42-150.67,50.85-347.36,7.65-507.71-15.53-57.09-33.08-113.77-48.34-171.72a9.37,9.37,0,0,1,17.45-6.57Z" transform="translate(-59.63 -63.97)" style="fill:#0c6cf2"/><path d="M965.11,673.61c-7.5-14,73.15-156.24,178.68-115.84,38.66,14.8,29.33,49.22,5.6,58.48-22.59,8.81-56.25,5.42-85.09,14.92C1008.08,649.67,972.62,687.64,965.11,673.61Z" transform="translate(-59.63 -63.97)" style="fill:#0c6cf2"/><path d="M1867.88,766.53c10.68-13.94-51.81-183.22-174-158-44.74,9.23-40.71,48.38-16.52,62.7,23,13.62,60.3,15.94,90,31.42C1825.35,732.79,1857.2,780.47,1867.88,766.53Z" transform="translate(-59.63 -63.97)" style="fill:#0c6cf2"/><path d="M2015.28,432.63c51.86,49.11,112.39,111.33,192.06,253.93A203,203,0,0,0,2222.48,664c34-57.57,58.78-149,66.2-226.39,4.66-48.19,2.66-90.95-8-116.83C2256,260.79,2026.55,402.29,2015.28,432.63Z" transform="translate(-59.63 -63.97)" style="fill:#f27e80"/><path d="M2015.28,432.63c51.86,49.11,112.39,111.33,192.06,253.93A203,203,0,0,0,2222.48,664c-3-56.14-43-119.68-56.79-167.93C2137,396,2215.88,340.63,2243.15,352.71c16.17,7.17,37.1,61.26,45.53,84.93,4.66-48.19,2.66-90.95-8-116.83C2256,260.79,2026.55,402.29,2015.28,432.63Z" transform="translate(-59.63 -63.97)" style="fill:#ff5c64"/><path d="M2207.33,705.21c-.47,0-.94,0-1.42-.05a18.66,18.66,0,0,1-14.86-9.5c-77.62-139-135.71-199.44-188.57-249.47a18.66,18.66,0,0,1-4.66-20c9.91-26.71,87.94-72.85,103.48-81.82,36.16-20.89,103.61-56,149.15-56.83,31.59-.52,43.37,16.19,47.48,26.22h0c33.88,82.47-8.68,297.95-75.89,384.29A18.63,18.63,0,0,1,2207.33,705.21ZM2040.5,430.94c48.13,46.56,101.08,105,168.09,220.18,52.95-91.66,79.1-264.18,54.85-323.22-.9-2.19-5.74-2.83-8.54-3C2203.21,321.45,2075.4,398.9,2040.5,430.94Z" transform="translate(-59.63 -63.97)" style="fill:#0c6cf2"/><ellipse cx="1667.47" cy="1138.25" rx="147.11" ry="127.88" transform="translate(323.98 2632.41) rotate(-84.83)" style="fill:#000072"/><ellipse cx="1631.22" cy="1169.69" rx="62.26" ry="43" transform="translate(259.67 2624.91) rotate(-84.83)" style="fill:#fff"/><g style="opacity:0.35000000000000003"><ellipse cx="1727.26" cy="1109.84" rx="29.38" ry="53.98" transform="translate(-281.45 400.69) rotate(-14.41)" style="fill:#fff"/></g><ellipse cx="1042.13" cy="1066.87" rx="147.04" ry="116.63" transform="translate(-121.37 2005.76) rotate(-87.93)" style="fill:#000072"/><ellipse cx="1072.21" cy="1101.16" rx="62.22" ry="39.22" transform="matrix(0.02, -1, 1, 0.02, -108.66, 2088.4)" style="fill:#fff"/><g style="opacity:0.35000000000000003"><ellipse cx="990.4" cy="1033.67" rx="53.72" ry="26.92" transform="translate(-352.78 1603.64) rotate(-72.51)" style="fill:#fff"/></g><path d="M2090.19,1275.53c102.38-64.89,246.56-74.29,362.14-45.45,8,1.92,16,4,24,6.06a9.32,9.32,0,0,1-3.72,18.23c-13.67-2.08-28.39-4.6-42-6.93-25-2.83-52-5.35-77.23-6.12-22.94-.11-48.48.43-71.18,2.66-62.57,6.38-124.88,21.32-182.17,47.44-10.39,5.68-19.71-9.08-9.76-15.89Z" transform="translate(-59.63 -63.97)" style="fill:#0c6cf2"/><path d="M2068.07,1395.38c114.76-21.32,247.52,7.34,326.54,97.5,7.58,8.92-4.9,20.93-13.49,12.87-40.54-37.94-91-63.16-144.53-76.64-53.83-13.54-110.82-17.42-166.21-15.28-11.32.39-13.48-16-2.31-18.45Z" transform="translate(-59.63 -63.97)" style="fill:#0c6cf2"/><path d="M1406.32,1291.37s-1.28,51.3-13.71,101.06c-12.71,50.71-37,99.78-83.53,91.26-34.12-6.2-53.94-41-65.42-80.29-17.15-58.63-15.82-127.48-15.82-127.48Z" transform="translate(-59.63 -63.97)" style="fill:#000072"/><path d="M1392.61,1392.43c-12.71,50.71-37,99.78-83.53,91.26-34.12-6.2-53.94-41-65.42-80.29a82.22,82.22,0,0,1,73,5.43,82.13,82.13,0,0,1,76-16.4Z" transform="translate(-59.63 -63.97)" style="fill:#f27e80"/><path d="M1319.23,1501a72,72,0,0,1-13.11-1.21c-95.83-17.54-95-203.06-94.6-224.15a16.31,16.31,0,0,1,16.31-16h.31a16.31,16.31,0,0,1,16,16.62c-.92,49.62,9.46,180.74,67.86,191.43,11.15,2,20.38-.3,29.07-7.37,37.42-30.4,48-132.55,49-169.34a16.31,16.31,0,0,1,16.3-15.91h.41a16.31,16.31,0,0,1,15.91,16.71c-.38,15.06-5.24,148.52-61,193.84A66.24,66.24,0,0,1,1319.23,1501Z" transform="translate(-59.63 -63.97)" style="fill:#000072"/><path d="M1182.71,1245.07s-2.26,56.75,26.06,71.75c43.17,22.85,82-3.16,102.07-26.79,0,0,33.08,64.91,97.05,42.92,37.41-12.86,54.91-59.29,54.91-59.29l-158.12-64.73Z" transform="translate(-59.63 -63.97)" style="fill:#fff"/><path d="M1208.79,1316.79c39.22,27.37,81.94-3.11,102.06-26.74,0,0,39.19,72.2,100.28,48.53,21.5-8.36,28.09-28,29.52-44.73-84.59,32-127.88-94.24-127.88-94.24-22.34,26.28-75.61,84.88-119.55,77.59C1191.94,1291.11,1194.49,1306.85,1208.79,1316.79Z" transform="translate(-59.63 -63.97)" style="fill:#d3d4e2"/><path d="M1315.86,1216.77c-1.41,22.91,1.45,47.43,11,68.38,8.81,23.07-26.1,34-32,10-4.36-20.62-3.81-41.64-.19-62.14a179.41,179.41,0,0,1,4.7-19.81,8.45,8.45,0,0,1,16.46,3.58Z" transform="translate(-59.63 -63.97)" style="fill:#000072"/><path d="M1409.09,1213.4c-4.72,17.3-71.2,43.75-106.49,39.44-37.88-4.62-75.13-39.89-78-57.38-3.37-20.48,31-40.74,105.27-29.69C1390.61,1174.8,1414.28,1194.43,1409.09,1213.4Z" transform="translate(-59.63 -63.97)" style="fill:#000072"/><g style="opacity:0.7000000000000001"><path d="M1326.46,1181.67c.87,5.3-13.19,10.78-24.08,10.1-6.18-.39-28.35-2-29.31-7.84s5.59-10.7,26.25-11.22C1318.11,1172.24,1325.58,1176.37,1326.46,1181.67Z" transform="translate(-59.63 -63.97)" style="fill:#fff"/></g><path d="M1192.75,1245.47c3.54,19.33,6.79,42.65,21,55,38.3,21.7,76.11-6.85,98-38.74l14,20.71c38.3,59.89,97.72,47.61,127.64-12.31a10.06,10.06,0,0,1,18.81,7.09c-6.09,17.85-14.61,33.2-27.31,47.18-46.28,49.68-120.16,32-149-26.75l27.67,3.25c-11.46,14.53-26,26.78-44,34.73-35.9,17.31-92.73,4.79-103.76-37.35-5.47-18.12-5.92-35.25-3.18-53.6a10.13,10.13,0,0,1,20.09.8Z" transform="translate(-59.63 -63.97)" style="fill:#000072"/><path d="M1390.68,2292.16H472.07a57.25,57.25,0,0,1-57.25-57.25v-42.08h863.87Z" transform="translate(-59.63 -63.97)" style="fill:#39d5ff"/><path d="M1390.67,2292.14H472.07a57.24,57.24,0,0,1-57.24-57.24v-42.09h.51a57.25,57.25,0,0,0,56.73,49.69h862.66Z" transform="translate(-59.63 -63.97)" style="fill:#3bb4ff"/><path d="M1390.68,2310.81H472.07a76,76,0,0,1-75.9-75.9v-42.08a18.65,18.65,0,0,1,18.65-18.65h863.87a18.67,18.67,0,0,1,12.37,4.7l112,99.33a18.65,18.65,0,0,1-12.37,32.6Zm-957.21-99.33v23.43a38.64,38.64,0,0,0,38.6,38.6h869.49l-69.94-62Z" transform="translate(-59.63 -63.97)" style="fill:#3b3c3d"/><path d="M1278.7,2192.81l-157.46-6.24-665.81-26.48h-.38a106.12,106.12,0,0,1-94.34-57.47l-282-547.8a104.18,104.18,0,0,1,103.48-97.61L906.69,1454a162.32,162.32,0,0,1,149.58,97.6L1216.1,1919l81.39,187.1A76,76,0,0,1,1278.7,2192.81Z" transform="translate(-59.63 -63.97)" style="fill:#39d5ff"/><path d="M1278.7,2192.81l-157.46-6.24c18.09-85.91,52.16-239.92,52.16-239.92s37.39,27.59,42.7-27.64l81.39,187.1A76,76,0,0,1,1278.7,2192.81Z" transform="translate(-59.63 -63.97)" style="fill:#3bb4ff"/><path d="M1278.69,2211.48l-.74,0-822.88-32.74h-.13a124.17,124.17,0,0,1-110.82-67.53l-282-547.82a18.62,18.62,0,0,1-2-9.69c4-64.28,57.61-114.84,122-115.13l724.47-3.21h.81a180.81,180.81,0,0,1,166,108.81l241.21,554.54a94.49,94.49,0,0,1-23.4,108A18.63,18.63,0,0,1,1278.69,2211.48Zm-823.27-70.06.74,0,815.06,32.44a57.26,57.26,0,0,0,9.16-60.32L1039.17,1559a143.57,143.57,0,0,0-131.78-86.39h-.64l-724.48,3.21a85.77,85.77,0,0,0-84.51,75.28l279.5,543a87,87,0,0,0,77.68,47.33Z" transform="translate(-59.63 -63.97)" style="fill:#3b3c3d"/><path d="M1278.7,2188.71l-863.87,3.82h-.52a106,106,0,0,1-94.2-57.42L281,2043.56,84.2,1583.67c-19-44.42,13.47-93.83,61.76-94l716.54-3.17a167.72,167.72,0,0,1,154.61,100.82l156.29,359.34Z" transform="translate(-59.63 -63.97)" style="fill:#39d5ff"/><path d="M1278.7,2188.71l-863.87,3.82h-.52a106,106,0,0,1-94.2-57.42L281,2043.56c60.32,37.66,183.89,83.25,423.76,74.48,304.66-11.14,435.09-133.07,468.69-171.39Z" transform="translate(-59.63 -63.97)" style="fill:#3bb4ff"/><path d="M862.48,1479.48c67.95-9.93,145.76,35.84,161,105,1.62,7.43-8.57,11.8-12.82,5.58-26.74-37.31-59.61-69.78-103.35-85.36a221.89,221.89,0,0,0-44.92-11.3c-7.91-1.2-7.85-12.85.06-14Z" transform="translate(-59.63 -63.97)" style="fill:#3b3c3d"/><path d="M1128.34,1819.69c57.89,119.75,117,239.12,167.67,362.15,5,11.84-4.38,25.72-17.24,25.52l-863.87,3.83a124.29,124.29,0,0,1-113-68.3C257.79,2042.81,210.6,1930.83,167,1829.81c-21.83-52.18-66.33-157.29-88.19-209.47-3.56-9.4-14.57-32.35-16.65-42.46-11-41.81,14.41-88.63,55.52-101.75,10.87-3.78,22.61-4.84,34-4.42,56.91,1.15,113.67,2.85,170.48,7.84,11.35,1.2,11.14,17.47.08,18.64-56.76,5.49-113.51,7.7-170.4,9.35-33.21-2.43-61.24,28.32-52.58,61.07,1.38,6.43,12.55,29.8,15.17,36.51,22.72,52,67.91,156.47,90.57,208.44,43.33,101.31,91,212.69,133.26,313.77,11.28,23.65,43.68,47.32,76.46,46.57l863.87-3.83-17,26.08q-10.66-22.52-20.56-45.36c-33.14-76.12-63.22-153.53-93.87-230.69q-18.35-46.32-35.93-93c-4.08-11.08,11.83-17.8,17.1-7.44Z" transform="translate(-59.63 -63.97)" style="fill:#3b3c3d"/><path d="M1219.06,2128.87h574.19a12.23,12.23,0,0,1,12.23,12.23v0a87.09,87.09,0,0,1-87.09,87.09H1276.31a57.25,57.25,0,0,1-57.25-57.25v-42.08a0,0,0,0,1,0,0Z" style="fill:#39d5ff"/><path d="M1865.09,2205.07a87,87,0,0,1-87.07,87.07H1335.94a57.25,57.25,0,0,1-57.24-57.24v-42.09h.52a57.24,57.24,0,0,0,56.72,49.69H1778a86.81,86.81,0,0,0,61.58-25.5,87.88,87.88,0,0,0,16.82-23.68A12.25,12.25,0,0,1,1865.09,2205.07Z" transform="translate(-59.63 -63.97)" style="fill:#3bb4ff"/><path d="M1778,2310.81H1335.94a76,76,0,0,1-75.9-75.9v-42.08a18.65,18.65,0,0,1,18.65-18.65h574.19a30.93,30.93,0,0,1,30.88,30.89A105.87,105.87,0,0,1,1778,2310.81Zm-480.68-99.33v23.43a38.64,38.64,0,0,0,38.6,38.6H1778a68.53,68.53,0,0,0,68.15-62Z" transform="translate(-59.63 -63.97)" style="fill:#3b3c3d"/><path d="M1718.87,2146.9a604.7,604.7,0,0,1-72.72-33.24c-9.46,14.55-48.1,82.55-147.39,71.93-43.44-4.66-99-32.07-107.11-111.83a234.2,234.2,0,0,1,1-51.36c5.32-44.19,21.17-83,45.31-114.77,65.59-86.37,192.61-120.86,336.92-70.19,0,0,17.53-34.31,22.28-72.21l249.43,70.62.93.28S2057.79,2273.45,1718.87,2146.9Z" transform="translate(-59.63 -63.97)" style="fill:#8e8fb3"/><path d="M1718.87,2146.9a604.7,604.7,0,0,1-72.72-33.24c-9.46,14.55-48.1,82.55-147.39,71.93-43.44-4.66-99-32.07-107.11-111.83,16.17,21.72,47.31,49.51,100,47.87,114.43-3.54,131-102.73,182.07-98.63s123.52,98.17,249.47,35.57c77.52-38.51,110.38-132.94,123.34-222.72l.93.28S2057.79,2273.45,1718.87,2146.9Z" transform="translate(-59.63 -63.97)" style="fill:#6c709e"/><path d="M1718.87,2146.9a604.7,604.7,0,0,1-72.72-33.24c-9.46,14.55-48.1,82.55-147.39,71.93-1.35-.14-2.75-.33-4.1-.52a.83.83,0,0,1-.33,0c-1.25-.19-2.56-.38-3.82-.61s-2.84-.46-4.24-.79c-1.12-.19-2.19-.42-3.31-.7-1.91-.42-3.82-.93-5.73-1.45-1.17-.32-2.38-.69-3.55-1-3.86-1.21-7.78-2.61-11.6-4.24-.79-.28-1.54-.65-2.33-1a119.89,119.89,0,0,1-14.22-7.51c-1.26-.79-2.52-1.58-3.78-2.47-1.49-1-2.89-2-4.33-3.07s-2.84-2.15-4.2-3.31-2.75-2.33-4.1-3.59c-.7-.61-1.35-1.26-2-1.87-2-1.91-3.92-4-5.78-6.06-.65-.74-1.26-1.44-1.87-2.19a107.77,107.77,0,0,1-8.62-11.84c-.75-1.21-1.49-2.47-2.24-3.73a108.52,108.52,0,0,1-5.45-10.72q-1.12-2.45-2.1-5c-.14-.37-.28-.75-.46-1.12-.66-1.68-1.26-3.4-1.87-5.17-.37-1.22-.75-2.38-1.12-3.64-.37-1.07-.7-2.19-1-3.31l-.42-1.54c-.37-1.26-.7-2.51-1-3.82-.14-.56-.23-1.12-.37-1.63-.37-1.54-.7-3.08-1-4.66-.42-2.1-.79-4.29-1.12-6.53-.14-.93-.28-1.91-.42-2.93-.23-1.87-.46-3.78-.69-5.69,16.22,21.72,47.35,49.46,100,47.82,114.43-3.54,131-102.73,182.07-98.63,8.06.65,16.64,3.54,25.87,7.69C1702,2068.54,1703.25,2108.3,1718.87,2146.9Z" transform="translate(-59.63 -63.97)" style="fill:#e8e8e8"/><path d="M1718.87,2146.9a604.7,604.7,0,0,1-72.72-33.24c-9.46,14.55-48.1,82.55-147.39,71.93-51.69-5.55-120.59-43.35-106.14-163.19,5.32-44.19,21.17-83,45.31-114.77,48.15-40.41,118.54-74.2,197.41-20.74C1728.61,1950.19,1680.41,2052,1718.87,2146.9Z" transform="translate(-59.63 -63.97)" style="fill:#fff"/><path d="M1718.87,2146.9a604.7,604.7,0,0,1-72.72-33.24c-9.46,14.55-48.1,82.55-147.39,71.93-1.35-.14-2.75-.33-4.1-.52a.83.83,0,0,1-.33,0c-1.25-.19-2.56-.38-3.82-.61s-2.84-.46-4.24-.79c-1.12-.19-2.19-.42-3.31-.7-1.91-.42-3.82-.93-5.73-1.45-1.17-.32-2.38-.69-3.55-1-3.86-1.21-7.78-2.61-11.6-4.24-.79-.28-1.54-.65-2.33-1a119.89,119.89,0,0,1-14.22-7.51c-1.26-.79-2.52-1.58-3.78-2.47-1.49-1-2.89-2-4.33-3.07s-2.84-2.15-4.2-3.31-2.75-2.33-4.1-3.59c-.7-.61-1.35-1.26-2-1.87-2-1.91-3.92-4-5.78-6.06-.65-.74-1.26-1.44-1.87-2.19a107.77,107.77,0,0,1-8.62-11.84c-.75-1.21-1.49-2.47-2.24-3.73a108.52,108.52,0,0,1-5.45-10.72q-1.12-2.45-2.1-5c-.14-.37-.28-.75-.46-1.12-.66-1.68-1.26-3.4-1.87-5.17-.37-1.22-.75-2.38-1.12-3.64-.37-1.07-.7-2.19-1-3.31l-.42-1.54c-.37-1.26-.7-2.51-1-3.82-.14-.56-.23-1.12-.37-1.63-.37-1.54-.7-3.08-1-4.66-.42-2.1-.79-4.29-1.12-6.53-.14-.93-.28-1.91-.42-2.93-.23-1.87-.46-3.78-.69-5.69,16.22,21.72,47.35,49.46,100,47.82,114.43-3.54,131-102.73,182.07-98.63,8.06.65,16.64,3.54,25.87,7.69C1702,2068.54,1703.25,2108.3,1718.87,2146.9Z" transform="translate(-59.63 -63.97)" style="fill:#d3d4e2"/><path d="M2056.79,1835.91c8.81,82.63-4.79,167.42-43.52,241.58-83.45,154.8-245,127.36-375.87,52.63l24.4-6.28c-38.92,66.79-113.31,94.47-187.39,76.17-105.5-27.75-117.87-141.82-88.92-231.37,46.65-144.45,201.46-196.29,339.9-164.5a502.61,502.61,0,0,1,55.63,15.72l-22.78,9.11a234,234,0,0,0,24.16-47.66c4.59-8.57,3.28-27,17.1-24.16a9.37,9.37,0,0,1,6.86,9.24,252.71,252.71,0,0,1-14.91,79.55,18.55,18.55,0,0,1-22.78,9.11,466.16,466.16,0,0,0-51.1-14.45c-51-10.91-105.53-11.51-155.26,3.71-66,19.39-120.8,70-141.37,135.9-21.72,67.28-19.46,163.17,62.89,183.73,59.11,14.17,116.12-7,146.71-60.44a18.49,18.49,0,0,1,24.4-6.28c23.24,11.61,46.79,22.34,70.83,31.05a386.84,386.84,0,0,0,73.06,18.69c183.9,26.59,221.92-169.54,239.31-310.61.86-11,17.21-11.57,18.65-.44Z" transform="translate(-59.63 -63.97)" style="fill:#0c6cf2"/><path d="M1680.47,2030.38c-2.52,31.86-5.93,61.26-17.8,92a18.77,18.77,0,0,1-24.51,10.64c-11-4.28-15.25-18.31-8.5-28,7.13-10.44,13.23-23.35,18.54-36.54a420.64,420.64,0,0,0,13.91-41.19c3.06-10.7,19-7.91,18.36,3.11Z" transform="translate(-59.63 -63.97)" style="fill:#0c6cf2"/><path d="M1859.63,1894.45c-29.65-18.48-60.77-27.25-93.32-40.42-24.76-11.25-6.49-46.79,17.08-33.15,28.64,18,61.81,35.13,87.2,58.49a9.36,9.36,0,0,1-11,15.08Z" transform="translate(-59.63 -63.97)" style="fill:#0c6cf2"/><path d="M2133.91,2692c-23,86.37-61.11,186.73-134,176.66-28.39-3.87-142.5-171.91-165.71-243.55-27.64-85.44-36.13-159.09-30.86-221.46,20.65-245.88,255.3-315.85,374.63-237.44l186.26-215.92c37.76,65,71,159.37,84.93,259.31C2479.12,2422.89,2421.56,2661.27,2133.91,2692Z" transform="translate(-59.63 -63.97)" style="fill:#8e8fb3"/><path d="M2133.91,2692c-23,86.37-61.11,186.73-134,176.66-28.39-3.87-142.5-171.91-165.71-243.55-27.64-85.44-36.13-159.09-30.86-221.46,42.74-7.74,98.12,1.54,165.71,51.28,199,146.55,305.45,91.54,367.68,50.29,72.9-48.34,101.34-191.34,112.43-295.62C2479.12,2422.89,2421.56,2661.27,2133.91,2692Z" transform="translate(-59.63 -63.97)" style="fill:#6c709e"/><path d="M2172.83,2174c-170.87-68.44-334.66,47.43-349.52,226.55-7.84,77.27,7.71,156.76,32.6,229.61,25.63,60,62.56,116.08,101.18,168.84,13.89,17.81,29.86,39.36,46.58,51.38a2.52,2.52,0,0,0-.72-.17c-.17,0-.77,0-.2,0l1.89.16c46.14,4,71.77-52,87.1-88.39,9.65-24,17.29-49.24,24.16-74.82a18.75,18.75,0,0,1,16-13.74c37.19-4.48,73.83-12.3,108.2-25.61,231.54-87.9,224.34-387.88,154.23-585.25-12.59-35.8-27.8-70.69-46.37-103.15-11.62-21.28,19.24-39.79,32.36-18.51,75.34,136.54,110.85,308,86.79,462.68-29.56,181.49-150.17,288-331.26,306.92,0,0,16.08-13.78,16-13.72-19.67,68.93-51.92,185-138.18,191.12-6.13,0-12.48,0-18.54-1.24-8.8-1.9-15.61-7.41-22.19-12.88-37-35.09-64.75-78-92.48-120.16-23.82-38.3-47.53-77.19-63.15-120.1-22.57-69.2-37-142.52-34.33-215.64,4.35-142,90.19-270,235.53-296.61,28.48-5.16,58.06-6,86.71-.24,28.46,5.86,56.31,17.86,77.77,37.37,7.93,7.25-.74,19.94-10.24,15.57Z" transform="translate(-59.63 -63.97)" style="fill:#0c6cf2"/><path d="M2071.12,2764.37c1.33,11.14,9.33,65-26.8,96.08-63.15,54.35-232.51,25.6-311.38-130.08-55.76-110.08-53.58-241,50.19-282.58,70.74-28.36,160.48,54,198.79,153.69,0,0,17.49,30.87,47.57,74.43C2065,2727.32,2071.12,2764.37,2071.12,2764.37Z" transform="translate(-59.63 -63.97)" style="fill:#fff"/><path d="M2044.32,2860.45c-52.91,45.54-180.35,32.72-266.63-64.14,82.23,58.68,179.23,63.16,217.27,19.72,58.87-67.31-58-293.25-61-298.93a325.33,325.33,0,0,1,47.91,84.37s17.48,30.9,47.6,74.44c35.52,51.41,41.62,88.47,41.62,88.47C2072.43,2775.52,2080.44,2829.36,2044.32,2860.45Z" transform="translate(-59.63 -63.97)" style="fill:#d3d4e2"/><path d="M2080.37,2763.26c32.37,133.16-100.35,164.82-201.83,126.12-92.13-32.91-158.89-114.67-187.67-206.33-26.77-80.15-23.17-187.82,55.15-238.52,22.34-14.58,49.64-24.91,76.44-21.56,62.15,7.32,113.18,58.07,143.11,109.16,11.57,20.71,20.58,42.84,25,66a9.47,9.47,0,0,1-17.4,6.68c-33.35-52.19-69.62-110.25-127.47-136-20.33-8.29-40.41-9.72-58.29-1.07-56,23.65-74.93,83.68-69.11,141.07,10.24,103.31,74.71,206,174,243.69,59.07,23.84,157.09,24.73,167.12-55.37a198.77,198.77,0,0,0,2.42-31.67,9.39,9.39,0,0,1,18.51-2.22Z" transform="translate(-59.63 -63.97)" style="fill:#0c6cf2"/><path d="M2148.17,2613.84a700.44,700.44,0,0,1,4.24,80.55c-1,24.8-37,24.51-37.56-.33,2.21-14,6.46-27.66,8.66-41.94,2.34-12.72,4.4-25.71,6-38.47,1.46-10.91,17.44-10.65,18.62.19Z" transform="translate(-59.63 -63.97)" style="fill:#0c6cf2"/><path d="M1342.23,1899c-30.4-17-63-33.37-95.74-44.45-25.11-9.68-9.44-45.93,14.84-34.21,33.27,18.2,62.42,39.8,91.59,63.38,8.75,7.31-.89,21-10.69,15.28Z" transform="translate(-59.63 -63.97)" style="fill:#0c6cf2"/><path d="M1926.51,2697.59c22.29,34.38,26.49,79.13,1.91,101.87-34,31.48-85.86-.9-107.09-33.66s-29.67-93.28,13-111.51C1865.07,2641.13,1904.22,2663.22,1926.51,2697.59Z" transform="translate(-59.63 -63.97)" style="fill:#f27e80"/><path d="M1911.65,2584.7c11.12,17.14,13.23,38.66.95,50.79s-38.46,6.26-53.4-16.78-9.62-49.35,6.47-55.61S1900.54,2567.55,1911.65,2584.7Z" transform="translate(-59.63 -63.97)" style="fill:#f27e80"/><path d="M1832.48,2581.47c9.51,19.12,9.15,41.72-5,52.87s-40.69,1.93-53.47-23.78-4.13-52.38,13.32-57S1823,2562.35,1832.48,2581.47Z" transform="translate(-59.63 -63.97)" style="fill:#f27e80"/><path d="M1795.53,2652.33c6.43,12.92,6.18,28.18-3.4,35.71s-27.48,1.31-36.12-16.05-2.79-35.39,9-38.49S1789.11,2639.42,1795.53,2652.33Z" transform="translate(-59.63 -63.97)" style="fill:#f27e80"/><circle cx="1308.65" cy="2178.53" r="15.95" style="fill:#6c709e"/><rect x="1378.56" y="2162.58" width="84.18" height="31.9" style="fill:#6c709e"/><rect x="1659.47" y="2171.92" width="39.68" height="15.04" rx="7.52" style="fill:#6c709e"/><path d="M1559.55,2117.72c3.42,9.88,15.57,38.52,28.2,34.62,24.36-10.16,40.2,24.75,16.49,36.38-5.34,2.78-12,1.5-17.55.89a43,43,0,0,1-25.44-12.4c-10.89-11.22-14.81-24.05-17.82-37.88-.9-9.11-7.51-26.93,6.53-28.59a9.43,9.43,0,0,1,9.59,7Z" transform="translate(-59.63 -63.97)" style="fill:#0c6cf2"/><path d="M1466,2118c3.51,17.47,10.09,45.09,30.14,48.62,29.31,5.55,16.08,47.72-11.3,35.54-33.08-14-39.89-52.45-37.48-84.11,1-11.33,17.55-11.26,18.64,0Z" transform="translate(-59.63 -63.97)" style="fill:#0c6cf2"/><g style="opacity:0.5"><path d="M1909.53,2321.24c-3.84-29.08,29-91.42,79.24-117.5,77.66-40.3,143.95-21.79,151.63-7.78,8.78,16-41,21.77-128.08,71.75C1956.65,2299.66,1914.2,2356.57,1909.53,2321.24Z" transform="translate(-59.63 -63.97)" style="fill:#fff"/></g><g style="opacity:0.5"><path d="M182.42,1531.5c100.61-20.14,528.33-29.13,625.17-6S98.16,1548.37,182.42,1531.5Z" transform="translate(-59.63 -63.97)" style="fill:#fff"/></g><path d="M484.74,643.65a217.82,217.82,0,0,0,30.9-136.29c-12.34-120.2-119.79-207.63-240-195.29S68,431.85,80.36,552.05s119.79,207.64,240,195.3a218.1,218.1,0,0,0,91.24-30.62l101.24,22.7Z" transform="translate(-59.63 -63.97)" style="fill:#fff"/><g style="opacity:0.5"><path d="M280,353.93c112.29-11.53,213.41,64,236.31,172a218.54,218.54,0,0,0-1.11-23.34c-12.34-120.2-119.79-207.64-240-195.3s-207.64,119.79-195.3,240a219.06,219.06,0,0,0,3.66,23.18C84,460,167.64,365.46,280,353.93Z" transform="translate(-59.63 -63.97)" style="fill:#fff"/></g><path d="M297.56,767.76a238.08,238.08,0,1,1,208-121.54L531.3,734a19.24,19.24,0,0,1-22.68,24.19l-93.85-21.05a235.73,235.73,0,0,1-92.46,29.33A242.35,242.35,0,0,1,297.56,767.76Zm.82-437.62a203.82,203.82,0,0,0-20.75,1.07,199.54,199.54,0,1,0,124,369.08A19.23,19.23,0,0,1,415.8,698l69.37,15.56-18.9-64.44a19.27,19.27,0,0,1,2.05-15.45A199.56,199.56,0,0,0,298.38,330.14Z" transform="translate(-59.63 -63.97)" style="fill:#000072"/><g style="opacity:0.30000000000000004"><path d="M486,641.55A252.43,252.43,0,0,1,261.51,694c-90.92-22.63-157.91-91.86-182-175.89a220.49,220.49,0,0,0,.85,33.91c12.34,120.2,119.79,207.64,240,195.29a217.94,217.94,0,0,0,91.24-30.61l101.24,22.7-28.09-95.78C485.16,643,485.55,642.25,486,641.55Z" transform="translate(-59.63 -63.97)" style="fill:#000072"/></g><g style="opacity:0.2"><ellipse cx="1520.23" cy="2965.34" rx="1025.06" ry="48.89" style="fill:#000072"/></g><path d="M294.8,392.68a131.2,131.2,0,1,0,132.8,131.2,131.21,131.21,0,0,0-132.8-131.2ZM350,603.28l-12-45.44-6.4-23.52L318,557.84l-26.4,45.44H260.2l26.08-45.44,26.24-45.28L321.6,497l-8-29.92-1.92-7.2-4.32,7.2-26.2,45.44-26.24,45.28-26.24,45.44H197.32l26.24-45.44,26-45.28,26.24-45.44L301.6,422.8l.64-1H329.6l1.28,4.8,9.92,37.12,1,3.36h28.48l-19.52,33.76,3.2,11.68,12,45.28,12,45.44Z" transform="translate(-59.63 -63.97)" style="fill:#010101"/></svg>